<ttFont>
    <TTGlyph name=".notdef" xMin="193" yMin="0" xMax="1034" yMax="1462">
      <contour>
        <pt x="193" y="1462" on="1"/>
        <pt x="1034" y="1462" on="1"/>
        <pt x="1034" y="0" on="1"/>
        <pt x="193" y="0" on="1"/>
      </contour>
      <contour>
        <pt x="297" y="104" on="1"/>
        <pt x="930" y="104" on="1"/>
        <pt x="930" y="1358" on="1"/>
        <pt x="297" y="1358" on="1"/>
      </contour>
    </TTGlyph>
    <TTGlyph name="A" xMin="-121" yMin="0" xMax="1102" yMax="1464">
      <contour>
        <pt x="827" y="406" on="1"/>
        <pt x="342" y="406" on="1"/>
        <pt x="133" y="0" on="1"/>
        <pt x="-121" y="0" on="1"/>
        <pt x="662" y="1464" on="1"/>
        <pt x="936" y="1464" on="1"/>
        <pt x="1102" y="0" on="1"/>
        <pt x="868" y="0" on="1"/>
      </contour>
      <contour>
        <pt x="811" y="614" on="1"/>
        <pt x="771" y="1030" on="0"/>
        <pt x="760" y="1205" on="0"/>
        <pt x="760" y="1257" on="1"/>
        <pt x="705" y="1118" on="0"/>
        <pt x="618" y="950" on="1"/>
        <pt x="446" y="614" on="1"/>
      </contour>
    </TTGlyph>
    <TTGlyph name="AE" xMin="-121" yMin="0" xMax="1829" yMax="1462">
      <contour>
        <pt x="1520" y="0" on="1"/>
        <pt x="743" y="0" on="1"/>
        <pt x="829" y="406" on="1"/>
        <pt x="397" y="406" on="1"/>
        <pt x="141" y="0" on="1"/>
        <pt x="-121" y="0" on="1"/>
        <pt x="809" y="1462" on="1"/>
        <pt x="1829" y="1462" on="1"/>
        <pt x="1786" y="1257" on="1"/>
        <pt x="1247" y="1257" on="1"/>
        <pt x="1163" y="862" on="1"/>
        <pt x="1667" y="862" on="1"/>
        <pt x="1624" y="662" on="1"/>
        <pt x="1122" y="662" on="1"/>
        <pt x="1024" y="203" on="1"/>
        <pt x="1563" y="203" on="1"/>
      </contour>
      <contour>
        <pt x="872" y="614" on="1"/>
        <pt x="1010" y="1257" on="1"/>
        <pt x="928" y="1257" on="1"/>
        <pt x="528" y="614" on="1"/>
      </contour>
    </TTGlyph>
    <TTGlyph name="AEacute" xMin="-121" yMin="0" xMax="1829" yMax="1907">
      <component glyphName="AE" x="0" y="0" flags="0x204"/>
      <component glyphName="acute" x="621" y="338" flags="0x4"/>
    </TTGlyph>
    <TTGlyph name="Aacute" xMin="-121" yMin="0" xMax="1196" yMax="1907">
      <component glyphName="A" x="0" y="0" flags="0x204"/>
      <component glyphName="acute" x="199" y="338" flags="0x4"/>
    </TTGlyph>
    <TTGlyph name="Abreve" xMin="-121" yMin="0" xMax="1170" yMax="1882">
      <component glyphName="A" x="0" y="0" flags="0x204"/>
      <component glyphName="breve" x="72" y="338" flags="0x4"/>
    </TTGlyph>
    <TTGlyph name="Acircumflex" xMin="-121" yMin="0" xMax="1157" yMax="1907">
      <component glyphName="A" x="0" y="0" flags="0x204"/>
      <component glyphName="circumflex" x="90" y="338" flags="0x4"/>
    </TTGlyph>
    <TTGlyph name="Adieresis" xMin="-121" yMin="0" xMax="1139" yMax="1854">
      <component glyphName="A" x="0" y="0" flags="0x204"/>
      <component glyphName="dieresis" x="92" y="338" flags="0x4"/>
    </TTGlyph>
    <TTGlyph name="Agrave" xMin="-121" yMin="0" xMax="1102" yMax="1907">
      <component glyphName="A" x="0" y="0" flags="0x204"/>
      <component glyphName="grave" x="-3" y="338" flags="0x4"/>
    </TTGlyph>
    <TTGlyph name="Alpha" xMin="-121" yMin="0" xMax="1102" yMax="1464">
      <component glyphName="A" x="0" y="0" flags="0x204"/>
    </TTGlyph>
    <TTGlyph name="Alphatonos" xMin="-121" yMin="0" xMax="1102" yMax="1535">
      <component glyphName="A" x="0" y="0" flags="0x204"/>
      <component glyphName="tonos" x="-486" y="-105" flags="0x4"/>
    </TTGlyph>
    <TTGlyph name="Amacron" xMin="-121" yMin="0" xMax="1137" yMax="1755">
      <component glyphName="A" x="0" y="0" flags="0x204"/>
      <component glyphName="macron" x="123" y="338" flags="0x4"/>
    </TTGlyph>
    <TTGlyph name="Aogonek" xMin="-121" yMin="-467" xMax="1102" yMax="1464">
      <component glyphName="A" x="0" y="0" flags="0x204"/>
      <component glyphName="ogonek" x="817" y="0" flags="0x4"/>
    </TTGlyph>
    <TTGlyph name="Aring" xMin="-121" yMin="0" xMax="1102" yMax="1799">
      <component glyphName="A" x="0" y="0" flags="0x204"/>
      <component glyphName="ring" x="27" y="109" flags="0x4"/>
    </TTGlyph>
    <TTGlyph name="Aringacute" xMin="-119" yMin="0" xMax="1221" yMax="1962">
      <contour>
        <pt x="1030" y="1446" on="1"/>
        <pt x="1030" y="1332" on="0"/>
        <pt x="946" y="1266" on="1"/>
        <pt x="1102" y="0" on="1"/>
        <pt x="868" y="0" on="1"/>
        <pt x="825" y="397" on="1"/>
        <pt x="342" y="397" on="1"/>
        <pt x="133" y="0" on="1"/>
        <pt x="-119" y="0" on="1"/>
        <pt x="594" y="1315" on="1"/>
        <pt x="559" y="1363" on="0"/>
        <pt x="559" y="1444" on="1"/>
        <pt x="559" y="1547" on="0"/>
        <pt x="690" y="1669" on="0"/>
        <pt x="793" y="1669" on="1"/>
        <pt x="897" y="1669" on="0"/>
        <pt x="1030" y="1547" on="0"/>
      </contour>
      <contour>
        <pt x="725" y="1741" on="1"/>
        <pt x="768" y="1777" on="0"/>
        <pt x="906" y="1915" on="0"/>
        <pt x="944" y="1962" on="1"/>
        <pt x="1221" y="1962" on="1"/>
        <pt x="1221" y="1948" on="1"/>
        <pt x="1168" y="1899" on="0"/>
        <pt x="977" y="1770" on="0"/>
        <pt x="891" y="1722" on="1"/>
        <pt x="725" y="1722" on="1"/>
      </contour>
      <contour>
        <pt x="897" y="1444" on="1"/>
        <pt x="897" y="1493" on="0"/>
        <pt x="839" y="1550" on="0"/>
        <pt x="793" y="1550" on="1"/>
        <pt x="746" y="1550" on="0"/>
        <pt x="686" y="1493" on="0"/>
        <pt x="686" y="1444" on="1"/>
        <pt x="686" y="1394" on="0"/>
        <pt x="740" y="1339" on="0"/>
        <pt x="793" y="1339" on="1"/>
        <pt x="839" y="1339" on="0"/>
        <pt x="897" y="1394" on="0"/>
      </contour>
      <contour>
        <pt x="737" y="1178" on="1"/>
        <pt x="715" y="1127" on="0"/>
        <pt x="666" y="1023" on="0"/>
        <pt x="451" y="604" on="1"/>
        <pt x="809" y="604" on="1"/>
        <pt x="771" y="967" on="0"/>
        <pt x="762" y="1107" on="0"/>
        <pt x="758" y="1178" on="1"/>
      </contour>
    </TTGlyph>
    <TTGlyph name="Atilde" xMin="-121" yMin="0" xMax="1227" yMax="1864">
      <component glyphName="A" x="0" y="0" flags="0x204"/>
      <component glyphName="tilde" x="115" y="338" flags="0x4"/>
    </TTGlyph>
    <TTGlyph name="B" xMin="70" yMin="0" xMax="1227" yMax="1462">
      <contour>
        <pt x="778" y="1462" on="1"/>
        <pt x="1000" y="1462" on="0"/>
        <pt x="1227" y="1294" on="0"/>
        <pt x="1227" y="1130" on="1"/>
        <pt x="1227" y="984" on="0"/>
        <pt x="1054" y="790" on="0"/>
        <pt x="901" y="760" on="1"/>
        <pt x="901" y="752" on="1"/>
        <pt x="1009" y="724" on="0"/>
        <pt x="1128" y="573" on="0"/>
        <pt x="1128" y="465" on="1"/>
        <pt x="1128" y="248" on="0"/>
        <pt x="828" y="0" on="0"/>
        <pt x="561" y="0" on="1"/>
        <pt x="70" y="0" on="1"/>
        <pt x="379" y="1462" on="1"/>
      </contour>
      <contour>
        <pt x="489" y="858" on="1"/>
        <pt x="688" y="858" on="1"/>
        <pt x="827" y="858" on="0"/>
        <pt x="979" y="979" on="0"/>
        <pt x="979" y="1090" on="1"/>
        <pt x="979" y="1262" on="0"/>
        <pt x="756" y="1262" on="1"/>
        <pt x="575" y="1262" on="1"/>
      </contour>
      <contour>
        <pt x="348" y="201" on="1"/>
        <pt x="571" y="201" on="1"/>
        <pt x="718" y="201" on="0"/>
        <pt x="885" y="337" on="0"/>
        <pt x="885" y="463" on="1"/>
        <pt x="885" y="561" on="0"/>
        <pt x="765" y="664" on="0"/>
        <pt x="649" y="664" on="1"/>
        <pt x="449" y="664" on="1"/>
      </contour>
    </TTGlyph>
    <TTGlyph name="Beta" xMin="70" yMin="0" xMax="1227" yMax="1462">
      <component glyphName="B" x="0" y="0" flags="0x204"/>
    </TTGlyph>
    <TTGlyph name="C" xMin="135" yMin="-20" xMax="1313" yMax="1483">
      <contour>
        <pt x="924" y="1278" on="1"/>
        <pt x="770" y="1278" on="0"/>
        <pt x="528" y="1100" on="0"/>
        <pt x="383" y="759" on="0"/>
        <pt x="383" y="555" on="1"/>
        <pt x="383" y="375" on="0"/>
        <pt x="548" y="184" on="0"/>
        <pt x="709" y="184" on="1"/>
        <pt x="850" y="184" on="0"/>
        <pt x="1038" y="252" on="1"/>
        <pt x="1038" y="47" on="1"/>
        <pt x="858" y="-20" on="0"/>
        <pt x="664" y="-20" on="1"/>
        <pt x="416" y="-20" on="0"/>
        <pt x="135" y="277" on="0"/>
        <pt x="135" y="545" on="1"/>
        <pt x="135" y="805" on="0"/>
        <pt x="346" y="1251" on="0"/>
        <pt x="698" y="1483" on="0"/>
        <pt x="924" y="1483" on="1"/>
        <pt x="1141" y="1483" on="0"/>
        <pt x="1313" y="1391" on="1"/>
        <pt x="1219" y="1196" on="1"/>
        <pt x="1156" y="1230" on="0"/>
        <pt x="1014" y="1278" on="0"/>
      </contour>
    </TTGlyph>
    <TTGlyph name="Cacute" xMin="135" yMin="-20" xMax="1313" yMax="1907">
      <component glyphName="C" x="0" y="0" flags="0x204"/>
      <component glyphName="acute" x="283" y="338" flags="0x4"/>
    </TTGlyph>
    <TTGlyph name="Ccaron" xMin="135" yMin="-20" xMax="1313" yMax="1907">
      <component glyphName="C" x="0" y="0" flags="0x204"/>
      <component glyphName="caron" x="152" y="338" flags="0x4"/>
    </TTGlyph>
    <TTGlyph name="Ccedilla" xMin="135" yMin="-492" xMax="1313" yMax="1483">
      <component glyphName="C" x="0" y="0" flags="0x204"/>
      <component glyphName="cedilla" x="555" y="0" flags="0x4"/>
    </TTGlyph>
    <TTGlyph name="Ccircumflex" xMin="135" yMin="-20" xMax="1313" yMax="1907">
      <component glyphName="C" x="0" y="0" flags="0x204"/>
      <component glyphName="circumflex" x="193" y="338" flags="0x4"/>
    </TTGlyph>
    <TTGlyph name="Cdot" xMin="135" yMin="-20" xMax="1313" yMax="1868">
      <component glyphName="C" x="0" y="0" flags="0x204"/>
      <component glyphName="dotaccent" x="475" y="338" flags="0x4"/>
    </TTGlyph>
    <TTGlyph name="Chi" xMin="-111" yMin="0" xMax="1317" yMax="1462">
      <component glyphName="X" x="0" y="0" flags="0x204"/>
    </TTGlyph>
    <TTGlyph name="D" xMin="70" yMin="0" xMax="1311" yMax="1462">
      <contour>
        <pt x="1311" y="893" on="1"/>
        <pt x="1311" y="622" on="0"/>
        <pt x="1111" y="218" on="0"/>
        <pt x="729" y="0" on="0"/>
        <pt x="471" y="0" on="1"/>
        <pt x="70" y="0" on="1"/>
        <pt x="379" y="1462" on="1"/>
        <pt x="748" y="1462" on="1"/>
        <pt x="1019" y="1462" on="0"/>
        <pt x="1311" y="1172" on="0"/>
      </contour>
      <contour>
        <pt x="483" y="201" on="1"/>
        <pt x="660" y="201" on="0"/>
        <pt x="924" y="373" on="0"/>
        <pt x="1065" y="685" on="0"/>
        <pt x="1065" y="885" on="1"/>
        <pt x="1065" y="1069" on="0"/>
        <pt x="889" y="1262" on="0"/>
        <pt x="721" y="1262" on="1"/>
        <pt x="575" y="1262" on="1"/>
        <pt x="348" y="201" on="1"/>
      </contour>
    </TTGlyph>
    <TTGlyph name="Dcaron" xMin="70" yMin="0" xMax="1311" yMax="1907">
      <component glyphName="D" x="0" y="0" flags="0x204"/>
      <component glyphName="caron" x="92" y="338" flags="0x4"/>
    </TTGlyph>
    <TTGlyph name="Dcroat" xMin="53" yMin="0" xMax="1311" yMax="1462">
      <component glyphName="Eth" x="0" y="0" flags="0x204"/>
    </TTGlyph>
    <TTGlyph name="Delta" xMin="-55" yMin="0" xMax="1065" yMax="1464">
      <contour>
        <pt x="657" y="1464" on="1"/>
        <pt x="920" y="1464" on="1"/>
        <pt x="1065" y="137" on="1"/>
        <pt x="1034" y="0" on="1"/>
        <pt x="-55" y="0" on="1"/>
        <pt x="-27" y="141" on="1"/>
      </contour>
      <contour>
        <pt x="743" y="1223" on="1"/>
        <pt x="707" y="1117" on="0"/>
        <pt x="633" y="973" on="1"/>
        <pt x="244" y="205" on="1"/>
        <pt x="836" y="205" on="1"/>
        <pt x="758" y="963" on="1"/>
        <pt x="743" y="1126" on="0"/>
      </contour>
    </TTGlyph>
    <TTGlyph name="E" xMin="70" yMin="0" xMax="1155" yMax="1462">
      <contour>
        <pt x="846" y="0" on="1"/>
        <pt x="70" y="0" on="1"/>
        <pt x="379" y="1462" on="1"/>
        <pt x="1155" y="1462" on="1"/>
        <pt x="1112" y="1257" on="1"/>
        <pt x="573" y="1257" on="1"/>
        <pt x="489" y="862" on="1"/>
        <pt x="991" y="862" on="1"/>
        <pt x="950" y="659" on="1"/>
        <pt x="446" y="659" on="1"/>
        <pt x="350" y="203" on="1"/>
        <pt x="889" y="203" on="1"/>
      </contour>
    </TTGlyph>
    <TTGlyph name="Eacute" xMin="70" yMin="0" xMax="1155" yMax="1907">
      <component glyphName="E" x="0" y="0" flags="0x204"/>
      <component glyphName="acute" x="125" y="338" flags="0x4"/>
    </TTGlyph>
    <TTGlyph name="Ebreve" xMin="70" yMin="0" xMax="1155" yMax="1882">
      <component glyphName="E" x="0" y="0" flags="0x204"/>
      <component glyphName="breve" x="45" y="338" flags="0x4"/>
    </TTGlyph>
    <TTGlyph name="Ecaron" xMin="70" yMin="0" xMax="1178" yMax="1907">
      <component glyphName="E" x="0" y="0" flags="0x204"/>
      <component glyphName="caron" x="45" y="338" flags="0x4"/>
    </TTGlyph>
    <TTGlyph name="Ecircumflex" xMin="70" yMin="0" xMax="1155" yMax="1907">
      <component glyphName="E" x="0" y="0" flags="0x204"/>
      <component glyphName="circumflex" x="63" y="338" flags="0x4"/>
    </TTGlyph>
    <TTGlyph name="Edieresis" xMin="70" yMin="0" xMax="1155" yMax="1854">
      <component glyphName="E" x="0" y="0" flags="0x204"/>
      <component glyphName="dieresis" x="53" y="338" flags="0x4"/>
    </TTGlyph>
    <TTGlyph name="Edotaccent" xMin="70" yMin="0" xMax="1155" yMax="1839">
      <component glyphName="E" x="0" y="0" flags="0x204"/>
      <component glyphName="dotaccent" x="324" y="309" flags="0x4"/>
    </TTGlyph>
    <TTGlyph name="Egrave" xMin="70" yMin="0" xMax="1155" yMax="1907">
      <component glyphName="E" x="0" y="0" flags="0x204"/>
      <component glyphName="grave" x="-15" y="338" flags="0x4"/>
    </TTGlyph>
    <TTGlyph name="Emacron" xMin="70" yMin="0" xMax="1155" yMax="1755">
      <component glyphName="E" x="0" y="0" flags="0x204"/>
      <component glyphName="macron" x="88" y="338" flags="0x4"/>
    </TTGlyph>
    <TTGlyph name="Eng" xMin="68" yMin="-406" xMax="1501" yMax="1462">
      <contour>
        <pt x="721" y="-406" on="1"/>
        <pt x="613" y="-406" on="0"/>
        <pt x="549" y="-381" on="1"/>
        <pt x="553" y="-178" on="1"/>
        <pt x="640" y="-201" on="0"/>
        <pt x="707" y="-201" on="1"/>
        <pt x="913" y="-201" on="0"/>
        <pt x="967" y="0" on="1"/>
        <pt x="522" y="1163" on="1"/>
        <pt x="516" y="1163" on="1"/>
        <pt x="471" y="870" on="0"/>
        <pt x="444" y="745" on="1"/>
        <pt x="287" y="0" on="1"/>
        <pt x="68" y="0" on="1"/>
        <pt x="377" y="1462" on="1"/>
        <pt x="633" y="1462" on="1"/>
        <pt x="1051" y="362" on="1"/>
        <pt x="1057" y="362" on="1"/>
        <pt x="1083" y="531" on="0"/>
        <pt x="1133" y="756" on="1"/>
        <pt x="1282" y="1462" on="1"/>
        <pt x="1501" y="1462" on="1"/>
        <pt x="1192" y="0" on="1"/>
        <pt x="1149" y="-200" on="0"/>
        <pt x="913" y="-406" on="0"/>
      </contour>
    </TTGlyph>
    <TTGlyph name="Eogonek" xMin="70" yMin="-467" xMax="1155" yMax="1462">
      <component glyphName="E" x="0" y="0" flags="0x204"/>
      <component glyphName="ogonek" x="559" y="0" flags="0x4"/>
    </TTGlyph>
    <TTGlyph name="Epsilon" xMin="70" yMin="0" xMax="1155" yMax="1462">
      <component glyphName="E" x="0" y="0" flags="0x204"/>
    </TTGlyph>
    <TTGlyph name="Epsilontonos" xMin="52" yMin="0" xMax="1288" yMax="1535">
      <component glyphName="E" x="133" y="0" flags="0x4"/>
      <component glyphName="tonos" x="-542" y="-105" flags="0x4"/>
    </TTGlyph>
    <TTGlyph name="Eta" xMin="70" yMin="0" xMax="1419" yMax="1462">
      <component glyphName="H" x="0" y="0" flags="0x204"/>
    </TTGlyph>
    <TTGlyph name="Etatonos" xMin="52" yMin="0" xMax="1569" yMax="1535">
      <component glyphName="H" x="150" y="0" flags="0x4"/>
      <component glyphName="tonos" x="-542" y="-105" flags="0x4"/>
    </TTGlyph>
    <TTGlyph name="Eth" xMin="53" yMin="0" xMax="1311" yMax="1462">
      <contour>
        <pt x="1311" y="893" on="1"/>
        <pt x="1311" y="622" on="0"/>
        <pt x="1111" y="218" on="0"/>
        <pt x="729" y="0" on="0"/>
        <pt x="471" y="0" on="1"/>
        <pt x="70" y="0" on="1"/>
        <pt x="199" y="623" on="1"/>
        <pt x="53" y="623" on="1"/>
        <pt x="98" y="823" on="1"/>
        <pt x="242" y="823" on="1"/>
        <pt x="379" y="1462" on="1"/>
        <pt x="748" y="1462" on="1"/>
        <pt x="1019" y="1462" on="0"/>
        <pt x="1311" y="1172" on="0"/>
      </contour>
      <contour>
        <pt x="483" y="201" on="1"/>
        <pt x="660" y="201" on="0"/>
        <pt x="924" y="373" on="0"/>
        <pt x="1065" y="685" on="0"/>
        <pt x="1065" y="885" on="1"/>
        <pt x="1065" y="1069" on="0"/>
        <pt x="889" y="1262" on="0"/>
        <pt x="721" y="1262" on="1"/>
        <pt x="575" y="1262" on="1"/>
        <pt x="481" y="823" on="1"/>
        <pt x="766" y="823" on="1"/>
        <pt x="721" y="623" on="1"/>
        <pt x="438" y="623" on="1"/>
        <pt x="348" y="201" on="1"/>
      </contour>
    </TTGlyph>
    <TTGlyph name="Euro" xMin="51" yMin="-20" xMax="1241" yMax="1483">
      <contour>
        <pt x="913" y="1282" on="1"/>
        <pt x="795" y="1282" on="0"/>
        <pt x="602" y="1108" on="0"/>
        <pt x="537" y="940" on="1"/>
        <pt x="924" y="940" on="1"/>
        <pt x="891" y="786" on="1"/>
        <pt x="489" y="786" on="1"/>
        <pt x="471" y="719" on="0"/>
        <pt x="461" y="647" on="1"/>
        <pt x="801" y="647" on="1"/>
        <pt x="768" y="492" on="1"/>
        <pt x="449" y="492" on="1"/>
        <pt x="449" y="331" on="0"/>
        <pt x="570" y="184" on="0"/>
        <pt x="705" y="184" on="1"/>
        <pt x="825" y="184" on="0"/>
        <pt x="963" y="244" on="1"/>
        <pt x="963" y="41" on="1"/>
        <pt x="834" y="-20" on="0"/>
        <pt x="657" y="-20" on="1"/>
        <pt x="441" y="-20" on="0"/>
        <pt x="213" y="240" on="0"/>
        <pt x="213" y="492" on="1"/>
        <pt x="51" y="492" on="1"/>
        <pt x="84" y="647" on="1"/>
        <pt x="223" y="647" on="1"/>
        <pt x="238" y="742" on="0"/>
        <pt x="250" y="786" on="1"/>
        <pt x="113" y="786" on="1"/>
        <pt x="145" y="940" on="1"/>
        <pt x="293" y="940" on="1"/>
        <pt x="385" y="1200" on="0"/>
        <pt x="712" y="1483" on="0"/>
        <pt x="920" y="1483" on="1"/>
        <pt x="1008" y="1483" on="0"/>
        <pt x="1161" y="1439" on="0"/>
        <pt x="1241" y="1384" on="1"/>
        <pt x="1139" y="1204" on="1"/>
        <pt x="1085" y="1238" on="0"/>
        <pt x="979" y="1282" on="0"/>
      </contour>
    </TTGlyph>
    <TTGlyph name="F" xMin="70" yMin="0" xMax="1153" yMax="1462">
      <contour>
        <pt x="307" y="0" on="1"/>
        <pt x="70" y="0" on="1"/>
        <pt x="379" y="1462" on="1"/>
        <pt x="1153" y="1462" on="1"/>
        <pt x="1110" y="1257" on="1"/>
        <pt x="573" y="1257" on="1"/>
        <pt x="477" y="803" on="1"/>
        <pt x="979" y="803" on="1"/>
        <pt x="934" y="600" on="1"/>
        <pt x="434" y="600" on="1"/>
      </contour>
    </TTGlyph>
    <TTGlyph name="G" xMin="135" yMin="-20" xMax="1372" yMax="1483">
      <contour>
        <pt x="786" y="793" on="1"/>
        <pt x="1298" y="793" on="1"/>
        <pt x="1141" y="57" on="1"/>
        <pt x="1029" y="17" on="0"/>
        <pt x="816" y="-20" on="0"/>
        <pt x="684" y="-20" on="1"/>
        <pt x="423" y="-20" on="0"/>
        <pt x="135" y="272" on="0"/>
        <pt x="135" y="539" on="1"/>
        <pt x="135" y="803" on="0"/>
        <pt x="340" y="1241" on="0"/>
        <pt x="715" y="1483" on="0"/>
        <pt x="954" y="1483" on="1"/>
        <pt x="1065" y="1483" on="0"/>
        <pt x="1269" y="1442" on="0"/>
        <pt x="1372" y="1393" on="1"/>
        <pt x="1282" y="1190" on="1"/>
        <pt x="1108" y="1276" on="0"/>
        <pt x="948" y="1276" on="1"/>
        <pt x="790" y="1276" on="0"/>
        <pt x="532" y="1095" on="0"/>
        <pt x="383" y="760" on="0"/>
        <pt x="383" y="555" on="1"/>
        <pt x="383" y="372" on="0"/>
        <pt x="561" y="184" on="0"/>
        <pt x="725" y="184" on="1"/>
        <pt x="834" y="184" on="0"/>
        <pt x="940" y="217" on="1"/>
        <pt x="1020" y="588" on="1"/>
        <pt x="743" y="588" on="1"/>
      </contour>
    </TTGlyph>
    <TTGlyph name="Gamma" xMin="70" yMin="0" xMax="1153" yMax="1462">
      <contour>
        <pt x="305" y="0" on="1"/>
        <pt x="70" y="0" on="1"/>
        <pt x="379" y="1462" on="1"/>
        <pt x="1153" y="1462" on="1"/>
        <pt x="1110" y="1257" on="1"/>
        <pt x="571" y="1257" on="1"/>
      </contour>
    </TTGlyph>
    <TTGlyph name="Gbreve" xMin="135" yMin="-20" xMax="1372" yMax="1882">
      <component glyphName="G" x="0" y="0" flags="0x204"/>
      <component glyphName="breve" x="170" y="338" flags="0x4"/>
    </TTGlyph>
    <TTGlyph name="Gcircumflex" xMin="135" yMin="-20" xMax="1372" yMax="1907">
      <component glyphName="G" x="0" y="0" flags="0x204"/>
      <component glyphName="circumflex" x="197" y="338" flags="0x4"/>
    </TTGlyph>
    <TTGlyph name="Gcommaaccent" xMin="135" yMin="-453" xMax="1372" yMax="1483">
      <component glyphName="G" x="0" y="0" flags="0x204"/>
      <component glyphName="commaaccent" x="291" y="0" flags="0x4"/>
    </TTGlyph>
    <TTGlyph name="Gdot" xMin="135" yMin="-20" xMax="1372" yMax="1868">
      <component glyphName="G" x="0" y="0" flags="0x204"/>
      <component glyphName="dotaccent" x="483" y="338" flags="0x4"/>
    </TTGlyph>
    <TTGlyph name="H" xMin="70" yMin="0" xMax="1419" yMax="1462">
      <contour>
        <pt x="1110" y="0" on="1"/>
        <pt x="872" y="0" on="1"/>
        <pt x="1012" y="659" on="1"/>
        <pt x="446" y="659" on="1"/>
        <pt x="307" y="0" on="1"/>
        <pt x="70" y="0" on="1"/>
        <pt x="379" y="1462" on="1"/>
        <pt x="616" y="1462" on="1"/>
        <pt x="489" y="864" on="1"/>
        <pt x="1055" y="864" on="1"/>
        <pt x="1182" y="1462" on="1"/>
        <pt x="1419" y="1462" on="1"/>
      </contour>
    </TTGlyph>
    <TTGlyph name="Hbar" xMin="70" yMin="0" xMax="1556" yMax="1462">
      <contour>
        <pt x="1374" y="1239" on="1"/>
        <pt x="1556" y="1239" on="1"/>
        <pt x="1522" y="1069" on="1"/>
        <pt x="1337" y="1069" on="1"/>
        <pt x="1112" y="0" on="1"/>
        <pt x="872" y="0" on="1"/>
        <pt x="1012" y="659" on="1"/>
        <pt x="446" y="659" on="1"/>
        <pt x="307" y="0" on="1"/>
        <pt x="70" y="0" on="1"/>
        <pt x="295" y="1069" on="1"/>
        <pt x="113" y="1069" on="1"/>
        <pt x="150" y="1239" on="1"/>
        <pt x="332" y="1239" on="1"/>
        <pt x="379" y="1462" on="1"/>
        <pt x="616" y="1462" on="1"/>
        <pt x="569" y="1239" on="1"/>
        <pt x="1135" y="1239" on="1"/>
        <pt x="1182" y="1462" on="1"/>
        <pt x="1421" y="1462" on="1"/>
      </contour>
      <contour>
        <pt x="1055" y="864" on="1"/>
        <pt x="1098" y="1069" on="1"/>
        <pt x="532" y="1069" on="1"/>
        <pt x="489" y="864" on="1"/>
      </contour>
    </TTGlyph>
    <TTGlyph name="Hcircumflex" xMin="70" yMin="0" xMax="1419" yMax="1907">
      <component glyphName="H" x="0" y="0" flags="0x204"/>
      <component glyphName="circumflex" x="184" y="338" flags="0x4"/>
    </TTGlyph>
    <TTGlyph name="I" xMin="70" yMin="0" xMax="616" yMax="1462">
      <contour>
        <pt x="70" y="0" on="1"/>
        <pt x="381" y="1462" on="1"/>
        <pt x="616" y="1462" on="1"/>
        <pt x="305" y="0" on="1"/>
      </contour>
    </TTGlyph>
    <TTGlyph name="I.alt" xMin="-49" yMin="0" xMax="831" yMax="1462">
      <contour>
        <pt x="522" y="0" on="1"/>
        <pt x="-49" y="0" on="1"/>
        <pt x="-23" y="133" on="1"/>
        <pt x="158" y="193" on="1"/>
        <pt x="385" y="1268" on="1"/>
        <pt x="231" y="1327" on="1"/>
        <pt x="260" y="1462" on="1"/>
        <pt x="831" y="1462" on="1"/>
        <pt x="805" y="1327" on="1"/>
        <pt x="623" y="1268" on="1"/>
        <pt x="393" y="193" on="1"/>
        <pt x="551" y="133" on="1"/>
      </contour>
    </TTGlyph>
    <TTGlyph name="IJ" xMin="70" yMin="-408" xMax="1235" yMax="1462">
      <component glyphName="J" x="608" y="0" flags="0x4"/>
      <component glyphName="I" x="0" y="0" flags="0x4"/>
    </TTGlyph>
    <TTGlyph name="IJ.alt" xMin="-49" yMin="-408" xMax="1344" yMax="1462">
      <component glyphName="I.alt" x="0" y="0" flags="0x4"/>
      <component glyphName="J" x="717" y="0" flags="0x4"/>
    </TTGlyph>
    <TTGlyph name="Iacute" xMin="70" yMin="0" xMax="904" yMax="1907">
      <component glyphName="I" x="0" y="0" flags="0x204"/>
      <component glyphName="acute" x="-93" y="338" flags="0x4"/>
    </TTGlyph>
    <TTGlyph name="Iacute.alt" xMin="-49" yMin="0" xMax="945" yMax="1907">
      <component glyphName="I.alt" x="0" y="0" flags="0x204"/>
      <component glyphName="acute" x="-52" y="338" flags="0x4"/>
    </TTGlyph>
    <TTGlyph name="Ibreve" xMin="70" yMin="0" xMax="888" yMax="1882">
      <component glyphName="I" x="0" y="0" flags="0x204"/>
      <component glyphName="breve" x="-210" y="338" flags="0x4"/>
    </TTGlyph>
    <TTGlyph name="Ibreve.alt" xMin="-49" yMin="0" xMax="923" yMax="1882">
      <component glyphName="I.alt" x="0" y="0" flags="0x204"/>
      <component glyphName="breve" x="-175" y="338" flags="0x4"/>
    </TTGlyph>
    <TTGlyph name="Icircumflex" xMin="70" yMin="0" xMax="873" yMax="1907">
      <component glyphName="I" x="0" y="0" flags="0x204"/>
      <component glyphName="circumflex" x="-194" y="338" flags="0x4"/>
    </TTGlyph>
    <TTGlyph name="Icircumflex.alt" xMin="-49" yMin="0" xMax="910" yMax="1907">
      <component glyphName="I.alt" x="0" y="0" flags="0x204"/>
      <component glyphName="circumflex" x="-157" y="338" flags="0x4"/>
    </TTGlyph>
    <TTGlyph name="Idieresis" xMin="70" yMin="0" xMax="864" yMax="1854">
      <component glyphName="I" x="0" y="0" flags="0x204"/>
      <component glyphName="dieresis" x="-183" y="338" flags="0x4"/>
    </TTGlyph>
    <TTGlyph name="Idieresis.alt" xMin="-49" yMin="0" xMax="894" yMax="1854">
      <component glyphName="I.alt" x="0" y="0" flags="0x204"/>
      <component glyphName="dieresis" x="-153" y="338" flags="0x4"/>
    </TTGlyph>
    <TTGlyph name="Idotaccent" xMin="70" yMin="0" xMax="684" yMax="1868">
      <component glyphName="I" x="0" y="0" flags="0x204"/>
      <component glyphName="dotaccent" x="94" y="338" flags="0x4"/>
    </TTGlyph>
    <TTGlyph name="Idotaccent.alt" xMin="-49" yMin="0" xMax="831" yMax="1868">
      <component glyphName="I.alt" x="0" y="0" flags="0x204"/>
      <component glyphName="dotaccent" x="123" y="338" flags="0x4"/>
    </TTGlyph>
    <TTGlyph name="Igrave" xMin="70" yMin="0" xMax="630" yMax="1907">
      <component glyphName="I" x="0" y="0" flags="0x204"/>
      <component glyphName="grave" x="-288" y="338" flags="0x4"/>
    </TTGlyph>
    <TTGlyph name="Igrave.alt" xMin="-49" yMin="0" xMax="831" yMax="1907">
      <component glyphName="I.alt" x="0" y="0" flags="0x204"/>
      <component glyphName="grave" x="-247" y="338" flags="0x4"/>
    </TTGlyph>
    <TTGlyph name="Imacron" xMin="70" yMin="0" xMax="845" yMax="1755">
      <component glyphName="I" x="0" y="0" flags="0x204"/>
      <component glyphName="macron" x="-169" y="338" flags="0x4"/>
    </TTGlyph>
    <TTGlyph name="Imacron.alt" xMin="-49" yMin="0" xMax="890" yMax="1755">
      <component glyphName="I.alt" x="0" y="0" flags="0x204"/>
      <component glyphName="macron" x="-124" y="338" flags="0x4"/>
    </TTGlyph>
    <TTGlyph name="Iogonek" xMin="-76" yMin="-467" xMax="616" yMax="1462">
      <component glyphName="I" x="0" y="0" flags="0x204"/>
      <component glyphName="ogonek" x="84" y="0" flags="0x4"/>
    </TTGlyph>
    <TTGlyph name="Iogonek.alt" xMin="-49" yMin="-467" xMax="831" yMax="1462">
      <component glyphName="I.alt" x="0" y="0" flags="0x204"/>
      <component glyphName="ogonek" x="164" y="0" flags="0x4"/>
    </TTGlyph>
    <TTGlyph name="Iota" xMin="70" yMin="0" xMax="616" yMax="1462">
      <component glyphName="I" x="0" y="0" flags="0x204"/>
    </TTGlyph>
    <TTGlyph name="Iota.alt" xMin="-49" yMin="0" xMax="831" yMax="1462">
      <component glyphName="I.alt" x="0" y="0" flags="0x204"/>
    </TTGlyph>
    <TTGlyph name="Iotadieresis" xMin="70" yMin="0" xMax="860" yMax="1854">
      <component glyphName="I" x="0" y="0" flags="0x204"/>
      <component glyphName="dieresis" x="-187" y="338" flags="0x4"/>
    </TTGlyph>
    <TTGlyph name="Iotadieresis.alt" xMin="-49" yMin="0" xMax="915" yMax="1854">
      <component glyphName="I.alt" x="0" y="0" flags="0x204"/>
      <component glyphName="dieresis" x="-132" y="338" flags="0x4"/>
    </TTGlyph>
    <TTGlyph name="Iotatonos" xMin="65" yMin="0" xMax="780" yMax="1535">
      <component glyphName="I" x="164" y="0" flags="0x4"/>
      <component glyphName="tonos" x="-529" y="-105" flags="0x4"/>
    </TTGlyph>
    <TTGlyph name="Iotatonos.alt" xMin="65" yMin="0" xMax="1085" yMax="1535">
      <component glyphName="I.alt" x="254" y="0" flags="0x4"/>
      <component glyphName="tonos" x="-529" y="-105" flags="0x4"/>
    </TTGlyph>
    <TTGlyph name="Itilde" xMin="70" yMin="0" xMax="931" yMax="1864">
      <component glyphName="I" x="0" y="0" flags="0x204"/>
      <component glyphName="tilde" x="-181" y="338" flags="0x4"/>
    </TTGlyph>
    <TTGlyph name="Itilde.alt" xMin="-49" yMin="0" xMax="986" yMax="1864">
      <component glyphName="I.alt" x="0" y="0" flags="0x204"/>
      <component glyphName="tilde" x="-126" y="338" flags="0x4"/>
    </TTGlyph>
    <TTGlyph name="J" xMin="-322" yMin="-408" xMax="627" yMax="1462">
      <contour>
        <pt x="-152" y="-408" on="1"/>
        <pt x="-256" y="-408" on="0"/>
        <pt x="-322" y="-383" on="1"/>
        <pt x="-317" y="-182" on="1"/>
        <pt x="-233" y="-203" on="0"/>
        <pt x="-164" y="-203" on="1"/>
        <pt x="37" y="-203" on="0"/>
        <pt x="90" y="47" on="1"/>
        <pt x="389" y="1462" on="1"/>
        <pt x="627" y="1462" on="1"/>
        <pt x="322" y="16" on="1"/>
        <pt x="276" y="-201" on="0"/>
        <pt x="45" y="-408" on="0"/>
      </contour>
    </TTGlyph>
    <TTGlyph name="Jcircumflex" xMin="-322" yMin="-408" xMax="873" yMax="1907">
      <component glyphName="J" x="0" y="0" flags="0x204"/>
      <component glyphName="circumflex" x="-194" y="338" flags="0x4"/>
    </TTGlyph>
    <TTGlyph name="K" xMin="70" yMin="0" xMax="1382" yMax="1462">
      <contour>
        <pt x="1087" y="0" on="1"/>
        <pt x="825" y="0" on="1"/>
        <pt x="573" y="655" on="1"/>
        <pt x="424" y="555" on="1"/>
        <pt x="307" y="0" on="1"/>
        <pt x="70" y="0" on="1"/>
        <pt x="379" y="1462" on="1"/>
        <pt x="616" y="1462" on="1"/>
        <pt x="465" y="756" on="1"/>
        <pt x="606" y="922" on="1"/>
        <pt x="1098" y="1462" on="1"/>
        <pt x="1382" y="1462" on="1"/>
        <pt x="766" y="793" on="1"/>
      </contour>
    </TTGlyph>
    <TTGlyph name="Kappa" xMin="70" yMin="0" xMax="1382" yMax="1462">
      <component glyphName="K" x="0" y="0" flags="0x204"/>
    </TTGlyph>
    <TTGlyph name="Kcommaaccent" xMin="70" yMin="-453" xMax="1382" yMax="1462">
      <component glyphName="K" x="0" y="0" flags="0x204"/>
      <component glyphName="commaaccent" x="162" y="0" flags="0x4"/>
    </TTGlyph>
    <TTGlyph name="L" xMin="70" yMin="0" xMax="889" yMax="1462">
      <contour>
        <pt x="70" y="0" on="1"/>
        <pt x="379" y="1462" on="1"/>
        <pt x="616" y="1462" on="1"/>
        <pt x="350" y="205" on="1"/>
        <pt x="889" y="205" on="1"/>
        <pt x="846" y="0" on="1"/>
      </contour>
    </TTGlyph>
    <TTGlyph name="Lacute" xMin="70" yMin="0" xMax="910" yMax="1907">
      <component glyphName="L" x="0" y="0" flags="0x204"/>
      <component glyphName="acute" x="-87" y="338" flags="0x4"/>
    </TTGlyph>
    <TTGlyph name="Lambda" xMin="-121" yMin="0" xMax="1077" yMax="1464">
      <contour>
        <pt x="-121" y="0" on="1"/>
        <pt x="653" y="1464" on="1"/>
        <pt x="913" y="1464" on="1"/>
        <pt x="1077" y="0" on="1"/>
        <pt x="846" y="0" on="1"/>
        <pt x="760" y="885" on="1"/>
        <pt x="745" y="1021" on="0"/>
        <pt x="741" y="1225" on="1"/>
        <pt x="718" y="1166" on="0"/>
        <pt x="632" y="973" on="0"/>
        <pt x="572" y="855" on="0"/>
        <pt x="133" y="0" on="1"/>
      </contour>
    </TTGlyph>
    <TTGlyph name="Lcaron" xMin="70" yMin="0" xMax="1124" yMax="1463">
      <component glyphName="L" x="0" y="0" flags="0x204"/>
      <component glyphName="caroncommaaccent" x="260" y="-93" flags="0x4"/>
    </TTGlyph>
    <TTGlyph name="Lcommaaccent" xMin="70" yMin="-453" xMax="889" yMax="1462">
      <component glyphName="L" x="0" y="0" flags="0x204"/>
      <component glyphName="commaaccent" x="111" y="0" flags="0x4"/>
    </TTGlyph>
    <TTGlyph name="Ldot" xMin="70" yMin="0" xMax="957" yMax="1462">
      <component glyphName="L" x="0" y="0" flags="0x204"/>
      <component glyphName="dotaccent" x="367" y="-661" flags="0x4"/>
    </TTGlyph>
    <TTGlyph name="Lslash" xMin="10" yMin="0" xMax="889" yMax="1462">
      <contour>
        <pt x="70" y="0" on="1"/>
        <pt x="176" y="494" on="1"/>
        <pt x="92" y="446" on="1"/>
        <pt x="10" y="602" on="1"/>
        <pt x="223" y="719" on="1"/>
        <pt x="379" y="1462" on="1"/>
        <pt x="616" y="1462" on="1"/>
        <pt x="492" y="868" on="1"/>
        <pt x="680" y="975" on="1"/>
        <pt x="764" y="819" on="1"/>
        <pt x="442" y="641" on="1"/>
        <pt x="350" y="205" on="1"/>
        <pt x="889" y="205" on="1"/>
        <pt x="846" y="0" on="1"/>
      </contour>
    </TTGlyph>
    <TTGlyph name="M" xMin="68" yMin="0" xMax="1765" yMax="1462">
      <contour>
        <pt x="647" y="0" on="1"/>
        <pt x="532" y="1214" on="1"/>
        <pt x="526" y="1214" on="1"/>
        <pt x="517" y="1096" on="0"/>
        <pt x="471" y="874" on="1"/>
        <pt x="287" y="0" on="1"/>
        <pt x="68" y="0" on="1"/>
        <pt x="377" y="1462" on="1"/>
        <pt x="700" y="1462" on="1"/>
        <pt x="809" y="313" on="1"/>
        <pt x="815" y="313" on="1"/>
        <pt x="1421" y="1462" on="1"/>
        <pt x="1765" y="1462" on="1"/>
        <pt x="1460" y="0" on="1"/>
        <pt x="1233" y="0" on="1"/>
        <pt x="1415" y="872" on="1"/>
        <pt x="1454" y="1058" on="0"/>
        <pt x="1501" y="1214" on="1"/>
        <pt x="1495" y="1214" on="1"/>
        <pt x="852" y="0" on="1"/>
      </contour>
    </TTGlyph>
    <TTGlyph name="Mu" xMin="68" yMin="0" xMax="1765" yMax="1462">
      <component glyphName="M" x="0" y="0" flags="0x204"/>
    </TTGlyph>
    <TTGlyph name="N" xMin="68" yMin="0" xMax="1501" yMax="1462">
      <contour>
        <pt x="1192" y="0" on="1"/>
        <pt x="932" y="0" on="1"/>
        <pt x="522" y="1163" on="1"/>
        <pt x="516" y="1163" on="1"/>
        <pt x="506" y="1094" on="1"/>
        <pt x="482" y="945" on="0"/>
        <pt x="459" y="818" on="0"/>
        <pt x="287" y="0" on="1"/>
        <pt x="68" y="0" on="1"/>
        <pt x="377" y="1462" on="1"/>
        <pt x="645" y="1462" on="1"/>
        <pt x="1044" y="313" on="1"/>
        <pt x="1051" y="313" on="1"/>
        <pt x="1057" y="367" on="0"/>
        <pt x="1107" y="644" on="0"/>
        <pt x="1122" y="709" on="1"/>
        <pt x="1282" y="1462" on="1"/>
        <pt x="1501" y="1462" on="1"/>
      </contour>
    </TTGlyph>
    <TTGlyph name="Nacute" xMin="68" yMin="0" xMax="1501" yMax="1907">
      <component glyphName="N" x="0" y="0" flags="0x204"/>
      <component glyphName="acute" x="336" y="338" flags="0x4"/>
    </TTGlyph>
    <TTGlyph name="Ncaron" xMin="68" yMin="0" xMax="1501" yMax="1907">
      <component glyphName="N" x="0" y="0" flags="0x204"/>
      <component glyphName="caron" x="213" y="338" flags="0x4"/>
    </TTGlyph>
    <TTGlyph name="Ncommaaccent" xMin="68" yMin="-453" xMax="1501" yMax="1462">
      <component glyphName="N" x="0" y="0" flags="0x204"/>
      <component glyphName="commaaccent" x="242" y="0" flags="0x4"/>
    </TTGlyph>
    <TTGlyph name="Ntilde" xMin="68" yMin="0" xMax="1501" yMax="1864">
      <component glyphName="N" x="0" y="0" flags="0x204"/>
      <component glyphName="tilde" x="256" y="338" flags="0x4"/>
    </TTGlyph>
    <TTGlyph name="Nu" xMin="68" yMin="0" xMax="1501" yMax="1462">
      <component glyphName="N" x="0" y="0" flags="0x204"/>
    </TTGlyph>
    <TTGlyph name="O" xMin="135" yMin="-20" xMax="1421" yMax="1485">
      <contour>
        <pt x="1421" y="922" on="1"/>
        <pt x="1421" y="643" on="0"/>
        <pt x="1231" y="207" on="0"/>
        <pt x="898" y="-20" on="0"/>
        <pt x="678" y="-20" on="1"/>
        <pt x="419" y="-20" on="0"/>
        <pt x="135" y="279" on="0"/>
        <pt x="135" y="543" on="1"/>
        <pt x="135" y="810" on="0"/>
        <pt x="332" y="1251" on="0"/>
        <pt x="674" y="1485" on="0"/>
        <pt x="891" y="1485" on="1"/>
        <pt x="1142" y="1485" on="0"/>
        <pt x="1421" y="1187" on="0"/>
      </contour>
      <contour>
        <pt x="872" y="1280" on="1"/>
        <pt x="734" y="1280" on="0"/>
        <pt x="510" y="1088" on="0"/>
        <pt x="383" y="747" on="0"/>
        <pt x="383" y="545" on="1"/>
        <pt x="383" y="372" on="0"/>
        <pt x="546" y="184" on="0"/>
        <pt x="692" y="184" on="1"/>
        <pt x="830" y="184" on="0"/>
        <pt x="1051" y="375" on="0"/>
        <pt x="1174" y="714" on="0"/>
        <pt x="1174" y="920" on="1"/>
        <pt x="1174" y="1090" on="0"/>
        <pt x="1016" y="1280" on="0"/>
      </contour>
    </TTGlyph>
    <TTGlyph name="OE" xMin="135" yMin="-20" xMax="1874" yMax="1485">
      <contour>
        <pt x="1565" y="0" on="1"/>
        <pt x="848" y="0" on="1"/>
        <pt x="764" y="-20" on="0"/>
        <pt x="678" y="-20" on="1"/>
        <pt x="419" y="-20" on="0"/>
        <pt x="135" y="279" on="0"/>
        <pt x="135" y="543" on="1"/>
        <pt x="135" y="810" on="0"/>
        <pt x="332" y="1251" on="0"/>
        <pt x="674" y="1485" on="0"/>
        <pt x="891" y="1485" on="1"/>
        <pt x="1036" y="1485" on="0"/>
        <pt x="1114" y="1462" on="1"/>
        <pt x="1874" y="1462" on="1"/>
        <pt x="1831" y="1257" on="1"/>
        <pt x="1292" y="1257" on="1"/>
        <pt x="1208" y="862" on="1"/>
        <pt x="1712" y="862" on="1"/>
        <pt x="1669" y="662" on="1"/>
        <pt x="1165" y="662" on="1"/>
        <pt x="1069" y="203" on="1"/>
        <pt x="1608" y="203" on="1"/>
      </contour>
      <contour>
        <pt x="692" y="184" on="1"/>
        <pt x="766" y="184" on="0"/>
        <pt x="831" y="211" on="1"/>
        <pt x="1053" y="1249" on="1"/>
        <pt x="985" y="1280" on="0"/>
        <pt x="872" y="1280" on="1"/>
        <pt x="734" y="1280" on="0"/>
        <pt x="510" y="1088" on="0"/>
        <pt x="383" y="747" on="0"/>
        <pt x="383" y="545" on="1"/>
        <pt x="383" y="372" on="0"/>
        <pt x="546" y="184" on="0"/>
      </contour>
    </TTGlyph>
    <TTGlyph name="Oacute" xMin="135" yMin="-20" xMax="1421" yMax="1907">
      <component glyphName="O" x="0" y="0" flags="0x204"/>
      <component glyphName="acute" x="279" y="338" flags="0x4"/>
    </TTGlyph>
    <TTGlyph name="Obreve" xMin="135" yMin="-20" xMax="1421" yMax="1882">
      <component glyphName="O" x="0" y="0" flags="0x204"/>
      <component glyphName="breve" x="170" y="338" flags="0x4"/>
    </TTGlyph>
    <TTGlyph name="Ocircumflex" xMin="135" yMin="-20" xMax="1421" yMax="1907">
      <component glyphName="O" x="0" y="0" flags="0x204"/>
      <component glyphName="circumflex" x="201" y="338" flags="0x4"/>
    </TTGlyph>
    <TTGlyph name="Odieresis" xMin="135" yMin="-20" xMax="1421" yMax="1854">
      <component glyphName="O" x="0" y="0" flags="0x204"/>
      <component glyphName="dieresis" x="197" y="338" flags="0x4"/>
    </TTGlyph>
    <TTGlyph name="Ograve" xMin="135" yMin="-20" xMax="1421" yMax="1907">
      <component glyphName="O" x="0" y="0" flags="0x204"/>
      <component glyphName="grave" x="111" y="338" flags="0x4"/>
    </TTGlyph>
    <TTGlyph name="Ohorn" xMin="135" yMin="-20" xMax="1749" yMax="1556">
      <contour>
        <pt x="1421" y="922" on="1"/>
        <pt x="1421" y="643" on="0"/>
        <pt x="1231" y="207" on="0"/>
        <pt x="898" y="-20" on="0"/>
        <pt x="678" y="-20" on="1"/>
        <pt x="419" y="-20" on="0"/>
        <pt x="135" y="279" on="0"/>
        <pt x="135" y="543" on="1"/>
        <pt x="135" y="810" on="0"/>
        <pt x="332" y="1251" on="0"/>
        <pt x="674" y="1485" on="0"/>
        <pt x="891" y="1485" on="1"/>
        <pt x="1193" y="1485" on="0"/>
        <pt x="1331" y="1272" on="1"/>
        <pt x="1403" y="1309" on="0"/>
        <pt x="1480" y="1450" on="0"/>
        <pt x="1495" y="1556" on="1"/>
        <pt x="1741" y="1556" on="1"/>
        <pt x="1749" y="1532" on="1"/>
        <pt x="1708" y="1380" on="0"/>
        <pt x="1531" y="1193" on="0"/>
        <pt x="1389" y="1137" on="1"/>
        <pt x="1421" y="1035" on="0"/>
      </contour>
      <contour>
        <pt x="872" y="1280" on="1"/>
        <pt x="734" y="1280" on="0"/>
        <pt x="510" y="1088" on="0"/>
        <pt x="383" y="747" on="0"/>
        <pt x="383" y="545" on="1"/>
        <pt x="383" y="372" on="0"/>
        <pt x="546" y="184" on="0"/>
        <pt x="692" y="184" on="1"/>
        <pt x="830" y="184" on="0"/>
        <pt x="1051" y="375" on="0"/>
        <pt x="1174" y="714" on="0"/>
        <pt x="1174" y="920" on="1"/>
        <pt x="1174" y="1090" on="0"/>
        <pt x="1016" y="1280" on="0"/>
      </contour>
    </TTGlyph>
    <TTGlyph name="Ohungarumlaut" xMin="135" yMin="-20" xMax="1483" yMax="1907">
      <component glyphName="O" x="0" y="0" flags="0x204"/>
      <component glyphName="hungarumlaut" x="307" y="338" flags="0x4"/>
    </TTGlyph>
    <TTGlyph name="Omacron" xMin="135" yMin="-20" xMax="1421" yMax="1755">
      <component glyphName="O" x="0" y="0" flags="0x204"/>
      <component glyphName="macron" x="233" y="338" flags="0x4"/>
    </TTGlyph>
    <TTGlyph name="Omega" xMin="-39" yMin="0" xMax="1421" yMax="1485">
      <component glyphName="uni03A9" x="0" y="0" flags="0x204"/>
    </TTGlyph>
    <TTGlyph name="Omegatonos" xMin="87" yMin="0" xMax="1548" yMax="1535">
      <component glyphName="uni03A9" x="127" y="0" flags="0x4"/>
      <component glyphName="tonos" x="-507" y="-105" flags="0x4"/>
    </TTGlyph>
    <TTGlyph name="Omicron" xMin="135" yMin="-20" xMax="1421" yMax="1485">
      <component glyphName="O" x="0" y="0" flags="0x204"/>
    </TTGlyph>
    <TTGlyph name="Omicrontonos" xMin="77" yMin="-20" xMax="1517" yMax="1535">
      <component glyphName="O" x="96" y="0" flags="0x4"/>
      <component glyphName="tonos" x="-517" y="-105" flags="0x4"/>
    </TTGlyph>
    <TTGlyph name="Oslash" xMin="109" yMin="-86" xMax="1460" yMax="1540">
      <contour>
        <pt x="1421" y="922" on="1"/>
        <pt x="1421" y="643" on="0"/>
        <pt x="1231" y="207" on="0"/>
        <pt x="898" y="-20" on="0"/>
        <pt x="678" y="-20" on="1"/>
        <pt x="485" y="-20" on="0"/>
        <pt x="360" y="63" on="1"/>
        <pt x="242" y="-86" on="1"/>
        <pt x="109" y="18" on="1"/>
        <pt x="238" y="178" on="1"/>
        <pt x="135" y="316" on="0"/>
        <pt x="135" y="543" on="1"/>
        <pt x="135" y="810" on="0"/>
        <pt x="332" y="1251" on="0"/>
        <pt x="674" y="1485" on="0"/>
        <pt x="891" y="1485" on="1"/>
        <pt x="1080" y="1485" on="0"/>
        <pt x="1208" y="1391" on="1"/>
        <pt x="1327" y="1540" on="1"/>
        <pt x="1460" y="1436" on="1"/>
        <pt x="1327" y="1270" on="1"/>
        <pt x="1421" y="1140" on="0"/>
      </contour>
      <contour>
        <pt x="872" y="1282" on="1"/>
        <pt x="731" y="1282" on="0"/>
        <pt x="507" y="1096" on="0"/>
        <pt x="377" y="752" on="0"/>
        <pt x="377" y="545" on="1"/>
        <pt x="377" y="457" on="0"/>
        <pt x="401" y="381" on="1"/>
        <pt x="1069" y="1217" on="1"/>
        <pt x="989" y="1282" on="0"/>
      </contour>
      <contour>
        <pt x="1180" y="920" on="1"/>
        <pt x="1180" y="1008" on="0"/>
        <pt x="1161" y="1063" on="1"/>
        <pt x="500" y="238" on="1"/>
        <pt x="575" y="182" on="0"/>
        <pt x="694" y="182" on="1"/>
        <pt x="833" y="182" on="0"/>
        <pt x="1056" y="373" on="0"/>
        <pt x="1180" y="711" on="0"/>
      </contour>
    </TTGlyph>
    <TTGlyph name="Oslashacute" xMin="109" yMin="-86" xMax="1460" yMax="1907">
      <component glyphName="Oslash" x="0" y="0" flags="0x204"/>
      <component glyphName="acute" x="274" y="338" flags="0x4"/>
    </TTGlyph>
    <TTGlyph name="Otilde" xMin="135" yMin="-20" xMax="1421" yMax="1864">
      <component glyphName="O" x="0" y="0" flags="0x204"/>
      <component glyphName="tilde" x="217" y="338" flags="0x4"/>
    </TTGlyph>
    <TTGlyph name="P" xMin="70" yMin="0" xMax="1174" yMax="1462">
      <contour>
        <pt x="465" y="748" on="1"/>
        <pt x="559" y="748" on="1"/>
        <pt x="737" y="748" on="0"/>
        <pt x="932" y="907" on="0"/>
        <pt x="932" y="1053" on="1"/>
        <pt x="932" y="1162" on="0"/>
        <pt x="815" y="1262" on="0"/>
        <pt x="694" y="1262" on="1"/>
        <pt x="575" y="1262" on="1"/>
      </contour>
      <contour>
        <pt x="1174" y="1061" on="1"/>
        <pt x="1174" y="813" on="0"/>
        <pt x="835" y="547" on="0"/>
        <pt x="532" y="547" on="1"/>
        <pt x="422" y="547" on="1"/>
        <pt x="307" y="0" on="1"/>
        <pt x="70" y="0" on="1"/>
        <pt x="379" y="1462" on="1"/>
        <pt x="713" y="1462" on="1"/>
        <pt x="942" y="1462" on="0"/>
        <pt x="1174" y="1261" on="0"/>
      </contour>
    </TTGlyph>
    <TTGlyph name="Phi" xMin="135" yMin="-20" xMax="1534" yMax="1483">
      <contour>
        <pt x="555" y="-20" on="1"/>
        <pt x="604" y="203" on="1"/>
        <pt x="379" y="220" on="0"/>
        <pt x="135" y="466" on="0"/>
        <pt x="135" y="676" on="1"/>
        <pt x="135" y="963" on="0"/>
        <pt x="504" y="1291" on="0"/>
        <pt x="838" y="1303" on="1"/>
        <pt x="874" y="1483" on="1"/>
        <pt x="1104" y="1483" on="1"/>
        <pt x="1067" y="1303" on="1"/>
        <pt x="1293" y="1286" on="0"/>
        <pt x="1534" y="1043" on="0"/>
        <pt x="1534" y="838" on="1"/>
        <pt x="1534" y="652" on="0"/>
        <pt x="1370" y="370" on="0"/>
        <pt x="1055" y="210" on="0"/>
        <pt x="834" y="205" on="1"/>
        <pt x="784" y="-20" on="1"/>
      </contour>
      <contour>
        <pt x="874" y="397" on="1"/>
        <pt x="1073" y="408" on="0"/>
        <pt x="1294" y="637" on="0"/>
        <pt x="1294" y="831" on="1"/>
        <pt x="1294" y="957" on="0"/>
        <pt x="1153" y="1103" on="0"/>
        <pt x="1026" y="1106" on="1"/>
      </contour>
      <contour>
        <pt x="795" y="1106" on="1"/>
        <pt x="599" y="1102" on="0"/>
        <pt x="375" y="874" on="0"/>
        <pt x="375" y="680" on="1"/>
        <pt x="375" y="553" on="0"/>
        <pt x="510" y="402" on="0"/>
        <pt x="643" y="397" on="1"/>
      </contour>
    </TTGlyph>
    <TTGlyph name="Pi" xMin="70" yMin="0" xMax="1417" yMax="1462">
      <contour>
        <pt x="1108" y="0" on="1"/>
        <pt x="868" y="0" on="1"/>
        <pt x="1135" y="1257" on="1"/>
        <pt x="573" y="1257" on="1"/>
        <pt x="307" y="0" on="1"/>
        <pt x="70" y="0" on="1"/>
        <pt x="379" y="1462" on="1"/>
        <pt x="1417" y="1462" on="1"/>
      </contour>
    </TTGlyph>
    <TTGlyph name="Psi" xMin="188" yMin="0" xMax="1675" yMax="1462">
      <contour>
        <pt x="915" y="440" on="1"/>
        <pt x="887" y="440" on="1"/>
        <pt x="793" y="0" on="1"/>
        <pt x="563" y="0" on="1"/>
        <pt x="657" y="440" on="1"/>
        <pt x="643" y="440" on="1"/>
        <pt x="426" y="440" on="0"/>
        <pt x="188" y="651" on="0"/>
        <pt x="188" y="838" on="1"/>
        <pt x="188" y="921" on="0"/>
        <pt x="211" y="1040" on="1"/>
        <pt x="301" y="1462" on="1"/>
        <pt x="537" y="1462" on="1"/>
        <pt x="442" y="1012" on="1"/>
        <pt x="424" y="916" on="0"/>
        <pt x="424" y="862" on="1"/>
        <pt x="424" y="745" on="0"/>
        <pt x="551" y="639" on="0"/>
        <pt x="682" y="639" on="1"/>
        <pt x="698" y="639" on="1"/>
        <pt x="872" y="1462" on="1"/>
        <pt x="1102" y="1462" on="1"/>
        <pt x="928" y="639" on="1"/>
        <pt x="944" y="639" on="1"/>
        <pt x="1114" y="639" on="0"/>
        <pt x="1298" y="807" on="0"/>
        <pt x="1333" y="979" on="1"/>
        <pt x="1436" y="1462" on="1"/>
        <pt x="1675" y="1462" on="1"/>
        <pt x="1567" y="954" on="1"/>
        <pt x="1512" y="691" on="0"/>
        <pt x="1187" y="440" on="0"/>
      </contour>
    </TTGlyph>
    <TTGlyph name="Q" xMin="135" yMin="-348" xMax="1421" yMax="1485">
      <contour>
        <pt x="1421" y="922" on="1"/>
        <pt x="1421" y="600" on="0"/>
        <pt x="1161" y="118" on="0"/>
        <pt x="936" y="27" on="1"/>
        <pt x="1200" y="-348" on="1"/>
        <pt x="911" y="-348" on="1"/>
        <pt x="709" y="-20" on="1"/>
        <pt x="678" y="-20" on="1"/>
        <pt x="419" y="-20" on="0"/>
        <pt x="135" y="279" on="0"/>
        <pt x="135" y="543" on="1"/>
        <pt x="135" y="810" on="0"/>
        <pt x="332" y="1251" on="0"/>
        <pt x="674" y="1485" on="0"/>
        <pt x="891" y="1485" on="1"/>
        <pt x="1142" y="1485" on="0"/>
        <pt x="1421" y="1187" on="0"/>
      </contour>
      <contour>
        <pt x="872" y="1280" on="1"/>
        <pt x="734" y="1280" on="0"/>
        <pt x="510" y="1088" on="0"/>
        <pt x="383" y="747" on="0"/>
        <pt x="383" y="545" on="1"/>
        <pt x="383" y="372" on="0"/>
        <pt x="546" y="184" on="0"/>
        <pt x="692" y="184" on="1"/>
        <pt x="830" y="184" on="0"/>
        <pt x="1051" y="372" on="0"/>
        <pt x="1174" y="711" on="0"/>
        <pt x="1174" y="920" on="1"/>
        <pt x="1174" y="1090" on="0"/>
        <pt x="1016" y="1280" on="0"/>
      </contour>
    </TTGlyph>
    <TTGlyph name="R" xMin="70" yMin="0" xMax="1178" yMax="1462">
      <contour>
        <pt x="430" y="584" on="1"/>
        <pt x="307" y="0" on="1"/>
        <pt x="70" y="0" on="1"/>
        <pt x="379" y="1462" on="1"/>
        <pt x="717" y="1462" on="1"/>
        <pt x="940" y="1462" on="0"/>
        <pt x="1178" y="1273" on="0"/>
        <pt x="1178" y="1077" on="1"/>
        <pt x="1178" y="912" on="0"/>
        <pt x="1005" y="685" on="0"/>
        <pt x="834" y="633" on="1"/>
        <pt x="1083" y="0" on="1"/>
        <pt x="823" y="0" on="1"/>
        <pt x="616" y="584" on="1"/>
      </contour>
      <contour>
        <pt x="473" y="782" on="1"/>
        <pt x="596" y="782" on="1"/>
        <pt x="766" y="782" on="0"/>
        <pt x="934" y="932" on="0"/>
        <pt x="934" y="1063" on="1"/>
        <pt x="934" y="1168" on="0"/>
        <pt x="816" y="1260" on="0"/>
        <pt x="692" y="1260" on="1"/>
        <pt x="573" y="1260" on="1"/>
      </contour>
    </TTGlyph>
    <TTGlyph name="Racute" xMin="70" yMin="0" xMax="1178" yMax="1907">
      <component glyphName="R" x="0" y="0" flags="0x204"/>
      <component glyphName="acute" x="154" y="338" flags="0x4"/>
    </TTGlyph>
    <TTGlyph name="Rcaron" xMin="70" yMin="0" xMax="1190" yMax="1907">
      <component glyphName="R" x="0" y="0" flags="0x204"/>
      <component glyphName="caron" x="57" y="338" flags="0x4"/>
    </TTGlyph>
    <TTGlyph name="Rcommaaccent" xMin="70" yMin="-453" xMax="1178" yMax="1462">
      <component glyphName="R" x="0" y="0" flags="0x204"/>
      <component glyphName="commaaccent" x="166" y="0" flags="0x4"/>
    </TTGlyph>
    <TTGlyph name="Rho" xMin="70" yMin="0" xMax="1174" yMax="1462">
      <component glyphName="P" x="0" y="0" flags="0x204"/>
    </TTGlyph>
    <TTGlyph name="S" xMin="39" yMin="-20" xMax="1083" yMax="1483">
      <contour>
        <pt x="930" y="428" on="1"/>
        <pt x="930" y="218" on="0"/>
        <pt x="641" y="-20" on="0"/>
        <pt x="387" y="-20" on="1"/>
        <pt x="177" y="-20" on="0"/>
        <pt x="39" y="55" on="1"/>
        <pt x="39" y="279" on="1"/>
        <pt x="212" y="182" on="0"/>
        <pt x="389" y="182" on="1"/>
        <pt x="526" y="182" on="0"/>
        <pt x="684" y="299" on="0"/>
        <pt x="684" y="403" on="1"/>
        <pt x="684" y="472" on="0"/>
        <pt x="602" y="579" on="0"/>
        <pt x="471" y="662" on="1"/>
        <pt x="366" y="729" on="0"/>
        <pt x="266" y="839" on="0"/>
        <pt x="213" y="970" on="0"/>
        <pt x="213" y="1049" on="1"/>
        <pt x="213" y="1177" on="0"/>
        <pt x="336" y="1375" on="0"/>
        <pt x="561" y="1483" on="0"/>
        <pt x="702" y="1483" on="1"/>
        <pt x="907" y="1483" on="0"/>
        <pt x="1083" y="1391" on="1"/>
        <pt x="997" y="1200" on="1"/>
        <pt x="836" y="1278" on="0"/>
        <pt x="702" y="1278" on="1"/>
        <pt x="593" y="1278" on="0"/>
        <pt x="461" y="1161" on="0"/>
        <pt x="461" y="1067" on="1"/>
        <pt x="461" y="1020" on="0"/>
        <pt x="491" y="949" on="0"/>
        <pt x="554" y="888" on="0"/>
        <pt x="657" y="823" on="1"/>
        <pt x="812" y="726" on="0"/>
        <pt x="930" y="545" on="0"/>
      </contour>
    </TTGlyph>
    <TTGlyph name="Sacute" xMin="39" yMin="-20" xMax="1103" yMax="1907">
      <component glyphName="S" x="0" y="0" flags="0x204"/>
      <component glyphName="acute" x="106" y="338" flags="0x4"/>
    </TTGlyph>
    <TTGlyph name="Scaron" xMin="39" yMin="-20" xMax="1103" yMax="1907">
      <component glyphName="S" x="0" y="0" flags="0x204"/>
      <component glyphName="caron" x="-30" y="338" flags="0x4"/>
    </TTGlyph>
    <TTGlyph name="Scedilla" xMin="39" yMin="-492" xMax="1083" yMax="1483">
      <component glyphName="S" x="0" y="0" flags="0x204"/>
      <component glyphName="cedilla" x="340" y="0" flags="0x4"/>
    </TTGlyph>
    <TTGlyph name="Scircumflex" xMin="39" yMin="-20" xMax="1083" yMax="1907">
      <component glyphName="S" x="0" y="0" flags="0x204"/>
      <component glyphName="circumflex" x="2" y="338" flags="0x4"/>
    </TTGlyph>
    <TTGlyph name="Scommaaccent" xMin="39" yMin="-453" xMax="1083" yMax="1483">
      <component glyphName="S" x="0" y="0" flags="0x204"/>
      <component glyphName="commaaccent" x="27" y="0" flags="0x4"/>
    </TTGlyph>
    <TTGlyph name="Sigma" xMin="-37" yMin="0" xMax="1165" yMax="1462">
      <contour>
        <pt x="-37" y="0" on="1"/>
        <pt x="2" y="190" on="1"/>
        <pt x="539" y="752" on="1"/>
        <pt x="244" y="1276" on="1"/>
        <pt x="283" y="1462" on="1"/>
        <pt x="1165" y="1462" on="1"/>
        <pt x="1122" y="1257" on="1"/>
        <pt x="506" y="1257" on="1"/>
        <pt x="797" y="735" on="1"/>
        <pt x="293" y="203" on="1"/>
        <pt x="956" y="203" on="1"/>
        <pt x="913" y="0" on="1"/>
      </contour>
    </TTGlyph>
    <TTGlyph name="T" xMin="176" yMin="0" xMax="1219" yMax="1462">
      <contour>
        <pt x="528" y="0" on="1"/>
        <pt x="291" y="0" on="1"/>
        <pt x="555" y="1257" on="1"/>
        <pt x="176" y="1257" on="1"/>
        <pt x="221" y="1462" on="1"/>
        <pt x="1219" y="1462" on="1"/>
        <pt x="1176" y="1257" on="1"/>
        <pt x="795" y="1257" on="1"/>
      </contour>
    </TTGlyph>
    <TTGlyph name="Tau" xMin="176" yMin="0" xMax="1219" yMax="1462">
      <component glyphName="T" x="0" y="0" flags="0x204"/>
    </TTGlyph>
    <TTGlyph name="Tbar" xMin="168" yMin="0" xMax="1219" yMax="1462">
      <contour>
        <pt x="705" y="831" on="1"/>
        <pt x="969" y="831" on="1"/>
        <pt x="928" y="637" on="1"/>
        <pt x="664" y="637" on="1"/>
        <pt x="528" y="0" on="1"/>
        <pt x="291" y="0" on="1"/>
        <pt x="424" y="637" on="1"/>
        <pt x="168" y="637" on="1"/>
        <pt x="211" y="831" on="1"/>
        <pt x="465" y="831" on="1"/>
        <pt x="555" y="1257" on="1"/>
        <pt x="176" y="1257" on="1"/>
        <pt x="221" y="1462" on="1"/>
        <pt x="1219" y="1462" on="1"/>
        <pt x="1176" y="1257" on="1"/>
        <pt x="795" y="1257" on="1"/>
      </contour>
    </TTGlyph>
    <TTGlyph name="Tcaron" xMin="176" yMin="0" xMax="1219" yMax="1907">
      <component glyphName="T" x="0" y="0" flags="0x204"/>
      <component glyphName="caron" x="10" y="338" flags="0x4"/>
    </TTGlyph>
    <TTGlyph name="Tcedilla" xMin="146" yMin="-492" xMax="1219" yMax="1462">
      <component glyphName="T" x="0" y="0" flags="0x204"/>
      <component glyphName="cedilla" x="334" y="0" flags="0x4"/>
    </TTGlyph>
    <TTGlyph name="Tcommaaccent" xMin="136" yMin="-453" xMax="1219" yMax="1462">
      <component glyphName="T" x="0" y="0" flags="0x204"/>
      <component glyphName="commaaccent" x="-3" y="0" flags="0x4"/>
    </TTGlyph>
    <TTGlyph name="Theta" xMin="135" yMin="-20" xMax="1434" yMax="1485">
      <contour>
        <pt x="1049" y="844" on="1"/>
        <pt x="1006" y="643" on="1"/>
        <pt x="518" y="643" on="1"/>
        <pt x="559" y="844" on="1"/>
      </contour>
      <contour>
        <pt x="1434" y="905" on="1"/>
        <pt x="1434" y="640" on="0"/>
        <pt x="1258" y="216" on="0"/>
        <pt x="921" y="-20" on="0"/>
        <pt x="692" y="-20" on="1"/>
        <pt x="428" y="-20" on="0"/>
        <pt x="135" y="284" on="0"/>
        <pt x="135" y="551" on="1"/>
        <pt x="135" y="816" on="0"/>
        <pt x="330" y="1252" on="0"/>
        <pt x="673" y="1485" on="0"/>
        <pt x="895" y="1485" on="1"/>
        <pt x="1149" y="1485" on="0"/>
        <pt x="1434" y="1179" on="0"/>
      </contour>
      <contour>
        <pt x="879" y="1280" on="1"/>
        <pt x="733" y="1280" on="0"/>
        <pt x="507" y="1091" on="0"/>
        <pt x="383" y="756" on="0"/>
        <pt x="383" y="549" on="1"/>
        <pt x="383" y="380" on="0"/>
        <pt x="551" y="184" on="0"/>
        <pt x="700" y="184" on="1"/>
        <pt x="840" y="184" on="0"/>
        <pt x="1061" y="364" on="0"/>
        <pt x="1186" y="705" on="0"/>
        <pt x="1186" y="913" on="1"/>
        <pt x="1186" y="1086" on="0"/>
        <pt x="1022" y="1280" on="0"/>
      </contour>
    </TTGlyph>
    <TTGlyph name="Thorn" xMin="70" yMin="0" xMax="1124" yMax="1462">
      <contour>
        <pt x="1124" y="817" on="1"/>
        <pt x="1124" y="574" on="0"/>
        <pt x="791" y="305" on="0"/>
        <pt x="481" y="305" on="1"/>
        <pt x="373" y="305" on="1"/>
        <pt x="307" y="0" on="1"/>
        <pt x="70" y="0" on="1"/>
        <pt x="379" y="1462" on="1"/>
        <pt x="616" y="1462" on="1"/>
        <pt x="565" y="1219" on="1"/>
        <pt x="662" y="1219" on="1"/>
        <pt x="889" y="1219" on="0"/>
        <pt x="1124" y="1017" on="0"/>
      </contour>
      <contour>
        <pt x="414" y="506" on="1"/>
        <pt x="510" y="506" on="1"/>
        <pt x="686" y="506" on="0"/>
        <pt x="883" y="663" on="0"/>
        <pt x="883" y="811" on="1"/>
        <pt x="883" y="920" on="0"/>
        <pt x="764" y="1018" on="0"/>
        <pt x="643" y="1018" on="1"/>
        <pt x="522" y="1018" on="1"/>
      </contour>
    </TTGlyph>
    <TTGlyph name="U" xMin="152" yMin="-20" xMax="1419" yMax="1462">
      <contour>
        <pt x="1419" y="1462" on="1"/>
        <pt x="1217" y="506" on="1"/>
        <pt x="1161" y="239" on="0"/>
        <pt x="857" y="-20" on="0"/>
        <pt x="606" y="-20" on="1"/>
        <pt x="389" y="-20" on="0"/>
        <pt x="152" y="192" on="0"/>
        <pt x="152" y="391" on="1"/>
        <pt x="152" y="474" on="0"/>
        <pt x="172" y="561" on="1"/>
        <pt x="365" y="1462" on="1"/>
        <pt x="602" y="1462" on="1"/>
        <pt x="410" y="557" on="1"/>
        <pt x="389" y="469" on="0"/>
        <pt x="389" y="399" on="1"/>
        <pt x="389" y="297" on="0"/>
        <pt x="508" y="184" on="0"/>
        <pt x="629" y="184" on="1"/>
        <pt x="774" y="184" on="0"/>
        <pt x="944" y="345" on="0"/>
        <pt x="983" y="526" on="1"/>
        <pt x="1182" y="1462" on="1"/>
      </contour>
    </TTGlyph>
    <TTGlyph name="Uacute" xMin="152" yMin="-20" xMax="1419" yMax="1907">
      <component glyphName="U" x="0" y="0" flags="0x204"/>
      <component glyphName="acute" x="283" y="338" flags="0x4"/>
    </TTGlyph>
    <TTGlyph name="Ubreve" xMin="152" yMin="-20" xMax="1419" yMax="1882">
      <component glyphName="U" x="0" y="0" flags="0x204"/>
      <component glyphName="breve" x="166" y="338" flags="0x4"/>
    </TTGlyph>
    <TTGlyph name="Ucircumflex" xMin="152" yMin="-20" xMax="1419" yMax="1907">
      <component glyphName="U" x="0" y="0" flags="0x204"/>
      <component glyphName="circumflex" x="182" y="338" flags="0x4"/>
    </TTGlyph>
    <TTGlyph name="Udieresis" xMin="152" yMin="-20" xMax="1419" yMax="1854">
      <component glyphName="U" x="0" y="0" flags="0x204"/>
      <component glyphName="dieresis" x="176" y="338" flags="0x4"/>
    </TTGlyph>
    <TTGlyph name="Ugrave" xMin="152" yMin="-20" xMax="1419" yMax="1907">
      <component glyphName="U" x="0" y="0" flags="0x204"/>
      <component glyphName="grave" x="78" y="338" flags="0x4"/>
    </TTGlyph>
    <TTGlyph name="Uhorn" xMin="152" yMin="-20" xMax="1827" yMax="1556">
      <contour>
        <pt x="1419" y="1462" on="1"/>
        <pt x="1378" y="1270" on="1"/>
        <pt x="1462" y="1293" on="0"/>
        <pt x="1554" y="1433" on="0"/>
        <pt x="1573" y="1556" on="1"/>
        <pt x="1817" y="1556" on="1"/>
        <pt x="1827" y="1532" on="1"/>
        <pt x="1780" y="1356" on="0"/>
        <pt x="1532" y="1139" on="0"/>
        <pt x="1346" y="1116" on="1"/>
        <pt x="1217" y="506" on="1"/>
        <pt x="1160" y="237" on="0"/>
        <pt x="857" y="-20" on="0"/>
        <pt x="608" y="-20" on="1"/>
        <pt x="390" y="-20" on="0"/>
        <pt x="152" y="196" on="0"/>
        <pt x="152" y="393" on="1"/>
        <pt x="152" y="465" on="0"/>
        <pt x="172" y="561" on="1"/>
        <pt x="365" y="1462" on="1"/>
        <pt x="602" y="1462" on="1"/>
        <pt x="410" y="555" on="1"/>
        <pt x="389" y="465" on="0"/>
        <pt x="389" y="408" on="1"/>
        <pt x="389" y="184" on="0"/>
        <pt x="629" y="184" on="1"/>
        <pt x="776" y="184" on="0"/>
        <pt x="946" y="351" on="0"/>
        <pt x="983" y="526" on="1"/>
        <pt x="1182" y="1462" on="1"/>
      </contour>
    </TTGlyph>
    <TTGlyph name="Uhungarumlaut" xMin="152" yMin="-20" xMax="1469" yMax="1907">
      <component glyphName="U" x="0" y="0" flags="0x204"/>
      <component glyphName="hungarumlaut" x="293" y="338" flags="0x4"/>
    </TTGlyph>
    <TTGlyph name="Umacron" xMin="152" yMin="-20" xMax="1419" yMax="1755">
      <component glyphName="U" x="0" y="0" flags="0x204"/>
      <component glyphName="macron" x="219" y="338" flags="0x4"/>
    </TTGlyph>
    <TTGlyph name="Uogonek" xMin="152" yMin="-467" xMax="1419" yMax="1462">
      <component glyphName="U" x="0" y="0" flags="0x204"/>
      <component glyphName="ogonek" x="625" y="0" flags="0x4"/>
    </TTGlyph>
    <TTGlyph name="Upsilon" xMin="186" yMin="0" xMax="1280" yMax="1462">
      <component glyphName="Y" x="0" y="0" flags="0x204"/>
    </TTGlyph>
    <TTGlyph name="Upsilondieresis" xMin="186" yMin="0" xMax="1280" yMax="1854">
      <component glyphName="Y" x="0" y="0" flags="0x204"/>
      <component glyphName="dieresis" x="35" y="338" flags="0x4"/>
    </TTGlyph>
    <TTGlyph name="Upsilontonos" xMin="52" yMin="0" xMax="1575" yMax="1535">
      <component glyphName="Y" x="295" y="0" flags="0x4"/>
      <component glyphName="tonos" x="-542" y="-105" flags="0x4"/>
    </TTGlyph>
    <TTGlyph name="Uring" xMin="152" yMin="-20" xMax="1419" yMax="2028">
      <component glyphName="U" x="0" y="0" flags="0x204"/>
      <component glyphName="ring" x="152" y="338" flags="0x4"/>
    </TTGlyph>
    <TTGlyph name="Utilde" xMin="152" yMin="-20" xMax="1419" yMax="1864">
      <component glyphName="U" x="0" y="0" flags="0x204"/>
      <component glyphName="tilde" x="213" y="338" flags="0x4"/>
    </TTGlyph>
    <TTGlyph name="V" xMin="186" yMin="0" xMax="1352" yMax="1462">
      <contour>
        <pt x="506" y="248" on="1"/>
        <pt x="576" y="426" on="0"/>
        <pt x="643" y="557" on="1"/>
        <pt x="1098" y="1462" on="1"/>
        <pt x="1352" y="1462" on="1"/>
        <pt x="588" y="0" on="1"/>
        <pt x="330" y="0" on="1"/>
        <pt x="186" y="1462" on="1"/>
        <pt x="418" y="1462" on="1"/>
        <pt x="492" y="557" on="1"/>
        <pt x="501" y="454" on="0"/>
        <pt x="503" y="324" on="1"/>
        <pt x="502" y="248" on="1"/>
      </contour>
    </TTGlyph>
    <TTGlyph name="W" xMin="203" yMin="0" xMax="1972" yMax="1462">
      <contour>
        <pt x="1317" y="0" on="1"/>
        <pt x="1059" y="0" on="1"/>
        <pt x="1022" y="842" on="1"/>
        <pt x="1016" y="1027" on="1"/>
        <pt x="1020" y="1133" on="1"/>
        <pt x="1014" y="1133" on="1"/>
        <pt x="967" y="989" on="0"/>
        <pt x="897" y="842" on="1"/>
        <pt x="512" y="0" on="1"/>
        <pt x="256" y="0" on="1"/>
        <pt x="203" y="1462" on="1"/>
        <pt x="432" y="1462" on="1"/>
        <pt x="451" y="612" on="1"/>
        <pt x="451" y="476" on="0"/>
        <pt x="438" y="266" on="1"/>
        <pt x="444" y="266" on="1"/>
        <pt x="527" y="487" on="0"/>
        <pt x="586" y="621" on="1"/>
        <pt x="973" y="1462" on="1"/>
        <pt x="1198" y="1462" on="1"/>
        <pt x="1229" y="623" on="1"/>
        <pt x="1232" y="454" on="1"/>
        <pt x="1229" y="266" on="1"/>
        <pt x="1237" y="266" on="1"/>
        <pt x="1265" y="354" on="0"/>
        <pt x="1349" y="573" on="0"/>
        <pt x="1368" y="616" on="1"/>
        <pt x="1726" y="1462" on="1"/>
        <pt x="1972" y="1462" on="1"/>
      </contour>
    </TTGlyph>
    <TTGlyph name="Wacute" xMin="203" yMin="0" xMax="1972" yMax="1907">
      <component glyphName="W" x="0" y="0" flags="0x204"/>
      <component glyphName="acute" x="475" y="338" flags="0x4"/>
    </TTGlyph>
    <TTGlyph name="Wcircumflex" xMin="203" yMin="0" xMax="1972" yMax="1907">
      <component glyphName="W" x="0" y="0" flags="0x204"/>
      <component glyphName="circumflex" x="381" y="338" flags="0x4"/>
    </TTGlyph>
    <TTGlyph name="Wdieresis" xMin="203" yMin="0" xMax="1972" yMax="1854">
      <component glyphName="W" x="0" y="0" flags="0x204"/>
      <component glyphName="dieresis" x="373" y="338" flags="0x4"/>
    </TTGlyph>
    <TTGlyph name="Wgrave" xMin="203" yMin="0" xMax="1972" yMax="1907">
      <component glyphName="W" x="0" y="0" flags="0x204"/>
      <component glyphName="grave" x="274" y="338" flags="0x4"/>
    </TTGlyph>
    <TTGlyph name="X" xMin="-111" yMin="0" xMax="1317" yMax="1462">
      <contour>
        <pt x="1040" y="0" on="1"/>
        <pt x="784" y="0" on="1"/>
        <pt x="592" y="592" on="1"/>
        <pt x="154" y="0" on="1"/>
        <pt x="-111" y="0" on="1"/>
        <pt x="475" y="770" on="1"/>
        <pt x="225" y="1462" on="1"/>
        <pt x="471" y="1462" on="1"/>
        <pt x="649" y="922" on="1"/>
        <pt x="1051" y="1462" on="1"/>
        <pt x="1317" y="1462" on="1"/>
        <pt x="766" y="752" on="1"/>
      </contour>
    </TTGlyph>
    <TTGlyph name="Xi" xMin="-35" yMin="0" xMax="1130" yMax="1462">
      <contour>
        <pt x="268" y="862" on="1"/>
        <pt x="922" y="862" on="1"/>
        <pt x="881" y="662" on="1"/>
        <pt x="225" y="662" on="1"/>
      </contour>
      <contour>
        <pt x="313" y="1462" on="1"/>
        <pt x="1130" y="1462" on="1"/>
        <pt x="1087" y="1257" on="1"/>
        <pt x="270" y="1257" on="1"/>
      </contour>
      <contour>
        <pt x="903" y="203" on="1"/>
        <pt x="860" y="0" on="1"/>
        <pt x="-35" y="0" on="1"/>
        <pt x="6" y="203" on="1"/>
      </contour>
    </TTGlyph>
    <TTGlyph name="Y" xMin="186" yMin="0" xMax="1280" yMax="1462">
      <contour>
        <pt x="582" y="793" on="1"/>
        <pt x="1014" y="1462" on="1"/>
        <pt x="1280" y="1462" on="1"/>
        <pt x="657" y="549" on="1"/>
        <pt x="543" y="0" on="1"/>
        <pt x="305" y="0" on="1"/>
        <pt x="424" y="553" on="1"/>
        <pt x="186" y="1462" on="1"/>
        <pt x="428" y="1462" on="1"/>
      </contour>
    </TTGlyph>
    <TTGlyph name="Yacute" xMin="186" yMin="0" xMax="1280" yMax="1907">
      <component glyphName="Y" x="0" y="0" flags="0x204"/>
      <component glyphName="acute" x="102" y="338" flags="0x4"/>
    </TTGlyph>
    <TTGlyph name="Ycircumflex" xMin="186" yMin="0" xMax="1280" yMax="1907">
      <component glyphName="Y" x="0" y="0" flags="0x204"/>
      <component glyphName="circumflex" x="2" y="338" flags="0x4"/>
    </TTGlyph>
    <TTGlyph name="Ydieresis" xMin="186" yMin="0" xMax="1280" yMax="1854">
      <component glyphName="Y" x="0" y="0" flags="0x204"/>
      <component glyphName="dieresis" x="14" y="338" flags="0x4"/>
    </TTGlyph>
    <TTGlyph name="Ygrave" xMin="186" yMin="0" xMax="1280" yMax="1907">
      <component glyphName="Y" x="0" y="0" flags="0x204"/>
      <component glyphName="grave" x="-101" y="338" flags="0x4"/>
    </TTGlyph>
    <TTGlyph name="Z" xMin="-39" yMin="0" xMax="1186" yMax="1462">
      <contour>
        <pt x="901" y="0" on="1"/>
        <pt x="-39" y="0" on="1"/>
        <pt x="-6" y="168" on="1"/>
        <pt x="844" y="1255" on="1"/>
        <pt x="246" y="1255" on="1"/>
        <pt x="289" y="1462" on="1"/>
        <pt x="1186" y="1462" on="1"/>
        <pt x="1151" y="1290" on="1"/>
        <pt x="299" y="205" on="1"/>
        <pt x="944" y="205" on="1"/>
      </contour>
    </TTGlyph>
    <TTGlyph name="Zacute" xMin="-39" yMin="0" xMax="1186" yMax="1907">
      <component glyphName="Z" x="0" y="0" flags="0x204"/>
      <component glyphName="acute" x="127" y="338" flags="0x4"/>
    </TTGlyph>
    <TTGlyph name="Zcaron" xMin="-39" yMin="0" xMax="1186" yMax="1907">
      <component glyphName="Z" x="0" y="0" flags="0x204"/>
      <component glyphName="caron" x="23" y="338" flags="0x4"/>
    </TTGlyph>
    <TTGlyph name="Zdotaccent" xMin="-39" yMin="0" xMax="1186" yMax="1868">
      <component glyphName="Z" x="0" y="0" flags="0x204"/>
      <component glyphName="dotaccent" x="305" y="338" flags="0x4"/>
    </TTGlyph>
    <TTGlyph name="Zeta" xMin="-39" yMin="0" xMax="1186" yMax="1462">
      <component glyphName="Z" x="0" y="0" flags="0x204"/>
    </TTGlyph>
    <TTGlyph name="a" xMin="94" yMin="-20" xMax="1151" yMax="1126">
      <contour>
        <pt x="399" y="-20" on="1"/>
        <pt x="258" y="-20" on="0"/>
        <pt x="94" y="183" on="0"/>
        <pt x="94" y="367" on="1"/>
        <pt x="94" y="569" on="0"/>
        <pt x="233" y="921" on="0"/>
        <pt x="477" y="1126" on="0"/>
        <pt x="623" y="1126" on="1"/>
        <pt x="720" y="1126" on="0"/>
        <pt x="860" y="1035" on="0"/>
        <pt x="899" y="948" on="1"/>
        <pt x="909" y="948" on="1"/>
        <pt x="971" y="1106" on="1"/>
        <pt x="1151" y="1106" on="1"/>
        <pt x="915" y="0" on="1"/>
        <pt x="733" y="0" on="1"/>
        <pt x="754" y="176" on="1"/>
        <pt x="748" y="176" on="1"/>
        <pt x="590" y="-20" on="0"/>
      </contour>
      <contour>
        <pt x="485" y="170" on="1"/>
        <pt x="567" y="170" on="0"/>
        <pt x="725" y="325" on="0"/>
        <pt x="827" y="585" on="0"/>
        <pt x="827" y="739" on="1"/>
        <pt x="827" y="827" on="0"/>
        <pt x="733" y="934" on="0"/>
        <pt x="657" y="934" on="1"/>
        <pt x="572" y="934" on="0"/>
        <pt x="422" y="780" on="0"/>
        <pt x="332" y="515" on="0"/>
        <pt x="332" y="373" on="1"/>
        <pt x="332" y="271" on="0"/>
        <pt x="413" y="170" on="0"/>
      </contour>
    </TTGlyph>
    <TTGlyph name="aacute" xMin="94" yMin="-20" xMax="1151" yMax="1569">
      <component glyphName="a" x="0" y="0" flags="0x204"/>
      <component glyphName="acute" x="90" y="0" flags="0x4"/>
    </TTGlyph>
    <TTGlyph name="abreve" xMin="94" yMin="-20" xMax="1151" yMax="1544">
      <component glyphName="a" x="0" y="0" flags="0x204"/>
      <component glyphName="breve" x="-7" y="0" flags="0x4"/>
    </TTGlyph>
    <TTGlyph name="acircumflex" xMin="94" yMin="-20" xMax="1151" yMax="1569">
      <component glyphName="a" x="0" y="0" flags="0x204"/>
      <component glyphName="circumflex" x="-3" y="0" flags="0x4"/>
    </TTGlyph>
    <TTGlyph name="acute" xMin="508" yMin="1241" xMax="997" yMax="1569">
      <contour>
        <pt x="508" y="1266" on="1"/>
        <pt x="605" y="1374" on="0"/>
        <pt x="733" y="1569" on="1"/>
        <pt x="997" y="1569" on="1"/>
        <pt x="997" y="1550" on="1"/>
        <pt x="943" y="1484" on="0"/>
        <pt x="735" y="1293" on="0"/>
        <pt x="664" y="1241" on="1"/>
        <pt x="508" y="1241" on="1"/>
      </contour>
    </TTGlyph>
    <TTGlyph name="adieresis" xMin="94" yMin="-20" xMax="1151" yMax="1516">
      <component glyphName="a" x="0" y="0" flags="0x204"/>
      <component glyphName="dieresis" x="-1" y="0" flags="0x4"/>
    </TTGlyph>
    <TTGlyph name="ae" xMin="94" yMin="-20" xMax="1679" yMax="1126">
      <contour>
        <pt x="1186" y="-20" on="1"/>
        <pt x="964" y="-20" on="0"/>
        <pt x="881" y="117" on="1"/>
        <pt x="858" y="0" on="1"/>
        <pt x="707" y="0" on="1"/>
        <pt x="727" y="176" on="1"/>
        <pt x="719" y="176" on="1"/>
        <pt x="634" y="70" on="0"/>
        <pt x="473" y="-20" on="0"/>
        <pt x="379" y="-20" on="1"/>
        <pt x="245" y="-20" on="0"/>
        <pt x="94" y="186" on="0"/>
        <pt x="94" y="367" on="1"/>
        <pt x="94" y="568" on="0"/>
        <pt x="232" y="922" on="0"/>
        <pt x="471" y="1126" on="0"/>
        <pt x="612" y="1126" on="1"/>
        <pt x="700" y="1126" on="0"/>
        <pt x="828" y="1039" on="0"/>
        <pt x="872" y="948" on="1"/>
        <pt x="881" y="948" on="1"/>
        <pt x="944" y="1106" on="1"/>
        <pt x="1092" y="1106" on="1"/>
        <pt x="1067" y="989" on="1"/>
        <pt x="1118" y="1052" on="0"/>
        <pt x="1278" y="1126" on="0"/>
        <pt x="1378" y="1126" on="1"/>
        <pt x="1518" y="1126" on="0"/>
        <pt x="1679" y="973" on="0"/>
        <pt x="1679" y="848" on="1"/>
        <pt x="1679" y="666" on="0"/>
        <pt x="1346" y="461" on="0"/>
        <pt x="1038" y="461" on="1"/>
        <pt x="993" y="461" on="1"/>
        <pt x="989" y="401" on="1"/>
        <pt x="989" y="284" on="0"/>
        <pt x="1110" y="164" on="0"/>
        <pt x="1225" y="164" on="1"/>
        <pt x="1350" y="164" on="0"/>
        <pt x="1530" y="248" on="1"/>
        <pt x="1530" y="59" on="1"/>
        <pt x="1355" y="-20" on="0"/>
      </contour>
      <contour>
        <pt x="465" y="170" on="1"/>
        <pt x="550" y="170" on="0"/>
        <pt x="705" y="331" on="0"/>
        <pt x="801" y="601" on="0"/>
        <pt x="801" y="733" on="1"/>
        <pt x="801" y="824" on="0"/>
        <pt x="724" y="934" on="0"/>
        <pt x="649" y="934" on="1"/>
        <pt x="564" y="934" on="0"/>
        <pt x="415" y="774" on="0"/>
        <pt x="332" y="512" on="0"/>
        <pt x="332" y="373" on="1"/>
        <pt x="332" y="268" on="0"/>
        <pt x="406" y="170" on="0"/>
      </contour>
      <contour>
        <pt x="1333" y="946" on="1"/>
        <pt x="1230" y="946" on="0"/>
        <pt x="1059" y="774" on="0"/>
        <pt x="1022" y="633" on="1"/>
        <pt x="1053" y="633" on="1"/>
        <pt x="1240" y="633" on="0"/>
        <pt x="1452" y="740" on="0"/>
        <pt x="1452" y="836" on="1"/>
        <pt x="1452" y="894" on="0"/>
        <pt x="1384" y="946" on="0"/>
      </contour>
    </TTGlyph>
    <TTGlyph name="aeacute" xMin="94" yMin="-20" xMax="1679" yMax="1569">
      <component glyphName="ae" x="0" y="0" flags="0x204"/>
      <component glyphName="acute" x="426" y="0" flags="0x4"/>
    </TTGlyph>
    <TTGlyph name="afii00208" xMin="47" yMin="453" xMax="1911" yMax="647">
      <component glyphName="emdash" x="0" y="0" flags="0x204"/>
    </TTGlyph>
    <TTGlyph name="afii08941" xMin="-16" yMin="0" xMax="1208" yMax="1483">
      <contour>
        <pt x="365" y="915" on="1"/>
        <pt x="395" y="1063" on="1"/>
        <pt x="442" y="1282" on="0"/>
        <pt x="668" y="1483" on="0"/>
        <pt x="856" y="1483" on="1"/>
        <pt x="1046" y="1483" on="0"/>
        <pt x="1208" y="1397" on="1"/>
        <pt x="1120" y="1214" on="1"/>
        <pt x="1064" y="1245" on="0"/>
        <pt x="924" y="1288" on="0"/>
        <pt x="862" y="1288" on="1"/>
        <pt x="768" y="1288" on="0"/>
        <pt x="657" y="1187" on="0"/>
        <pt x="635" y="1083" on="1"/>
        <pt x="600" y="915" on="1"/>
        <pt x="934" y="915" on="1"/>
        <pt x="901" y="762" on="1"/>
        <pt x="567" y="762" on="1"/>
        <pt x="537" y="623" on="1"/>
        <pt x="870" y="623" on="1"/>
        <pt x="840" y="467" on="1"/>
        <pt x="504" y="467" on="1"/>
        <pt x="447" y="281" on="0"/>
        <pt x="307" y="207" on="1"/>
        <pt x="999" y="207" on="1"/>
        <pt x="954" y="0" on="1"/>
        <pt x="-16" y="0" on="1"/>
        <pt x="20" y="193" on="1"/>
        <pt x="117" y="218" on="0"/>
        <pt x="236" y="349" on="0"/>
        <pt x="268" y="467" on="1"/>
        <pt x="78" y="467" on="1"/>
        <pt x="111" y="623" on="1"/>
        <pt x="303" y="623" on="1"/>
        <pt x="332" y="762" on="1"/>
        <pt x="135" y="762" on="1"/>
        <pt x="170" y="915" on="1"/>
      </contour>
    </TTGlyph>
    <TTGlyph name="afii10017" xMin="-121" yMin="0" xMax="1102" yMax="1464">
      <component glyphName="A" x="0" y="0" flags="0x204"/>
    </TTGlyph>
    <TTGlyph name="afii10018" xMin="72" yMin="0" xMax="1157" yMax="1462">
      <contour>
        <pt x="600" y="868" on="1"/>
        <pt x="830" y="868" on="0"/>
        <pt x="1065" y="675" on="0"/>
        <pt x="1065" y="485" on="1"/>
        <pt x="1065" y="251" on="0"/>
        <pt x="756" y="0" on="0"/>
        <pt x="471" y="0" on="1"/>
        <pt x="72" y="0" on="1"/>
        <pt x="381" y="1462" on="1"/>
        <pt x="1157" y="1462" on="1"/>
        <pt x="1114" y="1257" on="1"/>
        <pt x="573" y="1257" on="1"/>
        <pt x="492" y="868" on="1"/>
      </contour>
      <contour>
        <pt x="496" y="199" on="1"/>
        <pt x="659" y="199" on="0"/>
        <pt x="823" y="338" on="0"/>
        <pt x="823" y="471" on="1"/>
        <pt x="823" y="668" on="0"/>
        <pt x="596" y="668" on="1"/>
        <pt x="449" y="668" on="1"/>
        <pt x="348" y="199" on="1"/>
      </contour>
    </TTGlyph>
    <TTGlyph name="afii10019" xMin="70" yMin="0" xMax="1227" yMax="1462">
      <component glyphName="B" x="0" y="0" flags="0x204"/>
    </TTGlyph>
    <TTGlyph name="afii10020" xMin="70" yMin="0" xMax="1153" yMax="1462">
      <component glyphName="Gamma" x="0" y="0" flags="0x204"/>
    </TTGlyph>
    <TTGlyph name="afii10021" xMin="-182" yMin="-401" xMax="1333" yMax="1462">
      <contour>
        <pt x="891" y="-401" on="1"/>
        <pt x="977" y="0" on="1"/>
        <pt x="131" y="0" on="1"/>
        <pt x="45" y="-401" on="1"/>
        <pt x="-182" y="-401" on="1"/>
        <pt x="-55" y="205" on="1"/>
        <pt x="59" y="205" on="1"/>
        <pt x="242" y="462" on="0"/>
        <pt x="565" y="1137" on="0"/>
        <pt x="662" y="1462" on="1"/>
        <pt x="1333" y="1462" on="1"/>
        <pt x="1067" y="205" on="1"/>
        <pt x="1253" y="205" on="1"/>
        <pt x="1124" y="-401" on="1"/>
      </contour>
      <contour>
        <pt x="1049" y="1255" on="1"/>
        <pt x="823" y="1255" on="1"/>
        <pt x="743" y="1011" on="0"/>
        <pt x="469" y="419" on="0"/>
        <pt x="326" y="205" on="1"/>
        <pt x="823" y="205" on="1"/>
      </contour>
    </TTGlyph>
    <TTGlyph name="afii10022" xMin="70" yMin="0" xMax="1155" yMax="1462">
      <component glyphName="E" x="0" y="0" flags="0x204"/>
    </TTGlyph>
    <TTGlyph name="afii10023" xMin="70" yMin="0" xMax="1155" yMax="1854">
      <component glyphName="E" x="0" y="0" flags="0x204"/>
      <component glyphName="dieresis" x="61" y="338" flags="0x4"/>
    </TTGlyph>
    <TTGlyph name="afii10024" xMin="-113" yMin="0" xMax="1858" yMax="1462">
      <contour>
        <pt x="539" y="774" on="1"/>
        <pt x="217" y="1462" on="1"/>
        <pt x="461" y="1462" on="1"/>
        <pt x="774" y="770" on="1"/>
        <pt x="922" y="1462" on="1"/>
        <pt x="1151" y="1462" on="1"/>
        <pt x="1004" y="770" on="1"/>
        <pt x="1591" y="1462" on="1"/>
        <pt x="1858" y="1462" on="1"/>
        <pt x="1231" y="733" on="1"/>
        <pt x="1565" y="0" on="1"/>
        <pt x="1313" y="0" on="1"/>
        <pt x="993" y="725" on="1"/>
        <pt x="842" y="0" on="1"/>
        <pt x="612" y="0" on="1"/>
        <pt x="764" y="723" on="1"/>
        <pt x="162" y="0" on="1"/>
        <pt x="-113" y="0" on="1"/>
      </contour>
    </TTGlyph>
    <TTGlyph name="afii10025" xMin="16" yMin="-20" xMax="1130" yMax="1483">
      <contour>
        <pt x="1130" y="1151" on="1"/>
        <pt x="1130" y="991" on="0"/>
        <pt x="922" y="785" on="0"/>
        <pt x="737" y="760" on="1"/>
        <pt x="737" y="756" on="1"/>
        <pt x="874" y="738" on="0"/>
        <pt x="1032" y="568" on="0"/>
        <pt x="1032" y="436" on="1"/>
        <pt x="1032" y="222" on="0"/>
        <pt x="708" y="-20" on="0"/>
        <pt x="424" y="-20" on="1"/>
        <pt x="292" y="-20" on="0"/>
        <pt x="98" y="18" on="0"/>
        <pt x="16" y="59" on="1"/>
        <pt x="16" y="272" on="1"/>
        <pt x="100" y="226" on="0"/>
        <pt x="311" y="172" on="0"/>
        <pt x="420" y="172" on="1"/>
        <pt x="593" y="172" on="0"/>
        <pt x="786" y="318" on="0"/>
        <pt x="786" y="446" on="1"/>
        <pt x="786" y="561" on="0"/>
        <pt x="619" y="662" on="0"/>
        <pt x="465" y="662" on="1"/>
        <pt x="287" y="662" on="1"/>
        <pt x="328" y="852" on="1"/>
        <pt x="492" y="852" on="1"/>
        <pt x="682" y="852" on="0"/>
        <pt x="885" y="988" on="0"/>
        <pt x="885" y="1108" on="1"/>
        <pt x="885" y="1198" on="0"/>
        <pt x="775" y="1288" on="0"/>
        <pt x="676" y="1288" on="1"/>
        <pt x="503" y="1288" on="0"/>
        <pt x="319" y="1167" on="1"/>
        <pt x="229" y="1333" on="1"/>
        <pt x="354" y="1415" on="0"/>
        <pt x="590" y="1483" on="0"/>
        <pt x="729" y="1483" on="1"/>
        <pt x="910" y="1483" on="0"/>
        <pt x="1130" y="1301" on="0"/>
      </contour>
    </TTGlyph>
    <TTGlyph name="afii10026" xMin="70" yMin="0" xMax="1497" yMax="1462">
      <contour>
        <pt x="379" y="1462" on="1"/>
        <pt x="600" y="1462" on="1"/>
        <pt x="417" y="599" on="0"/>
        <pt x="365" y="379" on="0"/>
        <pt x="352" y="334" on="1"/>
        <pt x="360" y="334" on="1"/>
        <pt x="1212" y="1462" on="1"/>
        <pt x="1497" y="1462" on="1"/>
        <pt x="1188" y="0" on="1"/>
        <pt x="969" y="0" on="1"/>
        <pt x="1081" y="532" on="0"/>
        <pt x="1204" y="1122" on="0"/>
        <pt x="1217" y="1149" on="1"/>
        <pt x="1210" y="1149" on="1"/>
        <pt x="356" y="0" on="1"/>
        <pt x="70" y="0" on="1"/>
      </contour>
    </TTGlyph>
    <TTGlyph name="afii10027" xMin="70" yMin="0" xMax="1497" yMax="1913">
      <component glyphName="afii10026" x="0" y="0" flags="0x204"/>
      <component glyphName="cyrillicbreve" x="233" y="338" flags="0x4"/>
    </TTGlyph>
    <TTGlyph name="afii10028" xMin="70" yMin="0" xMax="1368" yMax="1462">
      <contour>
        <pt x="1092" y="0" on="1"/>
        <pt x="825" y="0" on="1"/>
        <pt x="459" y="721" on="1"/>
        <pt x="307" y="0" on="1"/>
        <pt x="70" y="0" on="1"/>
        <pt x="379" y="1462" on="1"/>
        <pt x="616" y="1462" on="1"/>
        <pt x="467" y="764" on="1"/>
        <pt x="1090" y="1462" on="1"/>
        <pt x="1368" y="1462" on="1"/>
        <pt x="709" y="735" on="1"/>
      </contour>
    </TTGlyph>
    <TTGlyph name="afii10029" xMin="-63" yMin="-23" xMax="1380" yMax="1462">
      <contour>
        <pt x="772" y="1255" on="1"/>
        <pt x="637" y="735" on="0"/>
        <pt x="452" y="188" on="0"/>
        <pt x="246" y="-23" on="0"/>
        <pt x="70" y="-23" on="1"/>
        <pt x="-11" y="-23" on="0"/>
        <pt x="-63" y="2" on="1"/>
        <pt x="-63" y="203" on="1"/>
        <pt x="-8" y="182" on="0"/>
        <pt x="37" y="182" on="1"/>
        <pt x="105" y="182" on="0"/>
        <pt x="193" y="245" on="0"/>
        <pt x="276" y="389" on="0"/>
        <pt x="382" y="695" on="0"/>
        <pt x="524" y="1194" on="0"/>
        <pt x="594" y="1462" on="1"/>
        <pt x="1380" y="1462" on="1"/>
        <pt x="1069" y="0" on="1"/>
        <pt x="831" y="0" on="1"/>
        <pt x="1100" y="1255" on="1"/>
      </contour>
    </TTGlyph>
    <TTGlyph name="afii10030" xMin="68" yMin="0" xMax="1765" yMax="1462">
      <component glyphName="M" x="0" y="0" flags="0x204"/>
    </TTGlyph>
    <TTGlyph name="afii10031" xMin="70" yMin="0" xMax="1419" yMax="1462">
      <component glyphName="H" x="0" y="0" flags="0x204"/>
    </TTGlyph>
    <TTGlyph name="afii10032" xMin="135" yMin="-20" xMax="1421" yMax="1485">
      <component glyphName="O" x="0" y="0" flags="0x204"/>
    </TTGlyph>
    <TTGlyph name="afii10033" xMin="70" yMin="0" xMax="1417" yMax="1462">
      <component glyphName="Pi" x="0" y="0" flags="0x204"/>
    </TTGlyph>
    <TTGlyph name="afii10034" xMin="70" yMin="0" xMax="1174" yMax="1462">
      <component glyphName="P" x="0" y="0" flags="0x204"/>
    </TTGlyph>
    <TTGlyph name="afii10035" xMin="135" yMin="-20" xMax="1313" yMax="1483">
      <component glyphName="C" x="0" y="0" flags="0x204"/>
    </TTGlyph>
    <TTGlyph name="afii10036" xMin="176" yMin="0" xMax="1219" yMax="1462">
      <component glyphName="T" x="0" y="0" flags="0x204"/>
    </TTGlyph>
    <TTGlyph name="afii10037" xMin="12" yMin="-20" xMax="1386" yMax="1462">
      <contour>
        <pt x="201" y="-20" on="1"/>
        <pt x="91" y="-20" on="0"/>
        <pt x="12" y="10" on="1"/>
        <pt x="12" y="227" on="1"/>
        <pt x="94" y="188" on="0"/>
        <pt x="195" y="188" on="1"/>
        <pt x="280" y="188" on="0"/>
        <pt x="413" y="286" on="0"/>
        <pt x="494" y="420" on="1"/>
        <pt x="197" y="1462" on="1"/>
        <pt x="436" y="1462" on="1"/>
        <pt x="602" y="825" on="1"/>
        <pt x="641" y="665" on="0"/>
        <pt x="651" y="604" on="1"/>
        <pt x="701" y="722" on="0"/>
        <pt x="748" y="803" on="1"/>
        <pt x="1122" y="1462" on="1"/>
        <pt x="1386" y="1462" on="1"/>
        <pt x="743" y="395" on="1"/>
        <pt x="636" y="217" on="0"/>
        <pt x="483" y="53" on="0"/>
        <pt x="313" y="-20" on="0"/>
      </contour>
    </TTGlyph>
    <TTGlyph name="afii10038" xMin="135" yMin="-20" xMax="1534" yMax="1483">
      <component glyphName="Phi" x="0" y="0" flags="0x204"/>
    </TTGlyph>
    <TTGlyph name="afii10039" xMin="-111" yMin="0" xMax="1317" yMax="1462">
      <component glyphName="X" x="0" y="0" flags="0x204"/>
    </TTGlyph>
    <TTGlyph name="afii10040" xMin="68" yMin="-403" xMax="1401" yMax="1462">
      <contour>
        <pt x="1321" y="201" on="1"/>
        <pt x="1192" y="-403" on="1"/>
        <pt x="958" y="-403" on="1"/>
        <pt x="1044" y="0" on="1"/>
        <pt x="68" y="0" on="1"/>
        <pt x="377" y="1462" on="1"/>
        <pt x="616" y="1462" on="1"/>
        <pt x="350" y="205" on="1"/>
        <pt x="897" y="205" on="1"/>
        <pt x="1163" y="1462" on="1"/>
        <pt x="1401" y="1462" on="1"/>
        <pt x="1133" y="201" on="1"/>
      </contour>
    </TTGlyph>
    <TTGlyph name="afii10041" xMin="217" yMin="0" xMax="1354" yMax="1462">
      <contour>
        <pt x="805" y="0" on="1"/>
        <pt x="928" y="580" on="1"/>
        <pt x="740" y="494" on="0"/>
        <pt x="555" y="494" on="1"/>
        <pt x="393" y="494" on="0"/>
        <pt x="217" y="651" on="0"/>
        <pt x="217" y="793" on="1"/>
        <pt x="217" y="854" on="0"/>
        <pt x="233" y="934" on="1"/>
        <pt x="344" y="1462" on="1"/>
        <pt x="582" y="1462" on="1"/>
        <pt x="475" y="952" on="1"/>
        <pt x="459" y="884" on="0"/>
        <pt x="459" y="842" on="1"/>
        <pt x="459" y="698" on="0"/>
        <pt x="627" y="698" on="1"/>
        <pt x="780" y="698" on="0"/>
        <pt x="971" y="774" on="1"/>
        <pt x="1114" y="1462" on="1"/>
        <pt x="1354" y="1462" on="1"/>
        <pt x="1044" y="0" on="1"/>
      </contour>
    </TTGlyph>
    <TTGlyph name="afii10042" xMin="68" yMin="0" xMax="2015" yMax="1462">
      <contour>
        <pt x="68" y="0" on="1"/>
        <pt x="377" y="1462" on="1"/>
        <pt x="621" y="1462" on="1"/>
        <pt x="352" y="205" on="1"/>
        <pt x="809" y="205" on="1"/>
        <pt x="1075" y="1462" on="1"/>
        <pt x="1319" y="1462" on="1"/>
        <pt x="1053" y="205" on="1"/>
        <pt x="1507" y="205" on="1"/>
        <pt x="1774" y="1462" on="1"/>
        <pt x="2015" y="1462" on="1"/>
        <pt x="1706" y="0" on="1"/>
      </contour>
    </TTGlyph>
    <TTGlyph name="afii10043" xMin="68" yMin="-403" xMax="2015" yMax="1462">
      <contour>
        <pt x="1935" y="201" on="1"/>
        <pt x="1806" y="-403" on="1"/>
        <pt x="1575" y="-403" on="1"/>
        <pt x="1661" y="0" on="1"/>
        <pt x="68" y="0" on="1"/>
        <pt x="377" y="1462" on="1"/>
        <pt x="621" y="1462" on="1"/>
        <pt x="352" y="205" on="1"/>
        <pt x="809" y="205" on="1"/>
        <pt x="1075" y="1462" on="1"/>
        <pt x="1319" y="1462" on="1"/>
        <pt x="1053" y="205" on="1"/>
        <pt x="1507" y="205" on="1"/>
        <pt x="1774" y="1462" on="1"/>
        <pt x="2015" y="1462" on="1"/>
        <pt x="1749" y="201" on="1"/>
      </contour>
    </TTGlyph>
    <TTGlyph name="afii10044" xMin="176" yMin="0" xMax="1239" yMax="1462">
      <contour>
        <pt x="774" y="868" on="1"/>
        <pt x="1002" y="868" on="0"/>
        <pt x="1239" y="675" on="0"/>
        <pt x="1239" y="485" on="1"/>
        <pt x="1239" y="252" on="0"/>
        <pt x="932" y="0" on="0"/>
        <pt x="645" y="0" on="1"/>
        <pt x="248" y="0" on="1"/>
        <pt x="514" y="1257" on="1"/>
        <pt x="176" y="1257" on="1"/>
        <pt x="221" y="1462" on="1"/>
        <pt x="797" y="1462" on="1"/>
        <pt x="670" y="868" on="1"/>
      </contour>
      <contour>
        <pt x="668" y="199" on="1"/>
        <pt x="831" y="199" on="0"/>
        <pt x="995" y="338" on="0"/>
        <pt x="995" y="471" on="1"/>
        <pt x="995" y="576" on="0"/>
        <pt x="879" y="668" on="0"/>
        <pt x="768" y="668" on="1"/>
        <pt x="629" y="668" on="1"/>
        <pt x="528" y="199" on="1"/>
      </contour>
    </TTGlyph>
    <TTGlyph name="afii10045" xMin="70" yMin="0" xMax="1690" yMax="1462">
      <contour>
        <pt x="1380" y="0" on="1"/>
        <pt x="1139" y="0" on="1"/>
        <pt x="1448" y="1462" on="1"/>
        <pt x="1690" y="1462" on="1"/>
      </contour>
      <contour>
        <pt x="616" y="1462" on="1"/>
        <pt x="492" y="868" on="1"/>
        <pt x="580" y="868" on="1"/>
        <pt x="807" y="868" on="0"/>
        <pt x="1044" y="676" on="0"/>
        <pt x="1044" y="485" on="1"/>
        <pt x="1044" y="252" on="0"/>
        <pt x="737" y="0" on="0"/>
        <pt x="451" y="0" on="1"/>
        <pt x="70" y="0" on="1"/>
        <pt x="379" y="1462" on="1"/>
      </contour>
      <contour>
        <pt x="473" y="199" on="1"/>
        <pt x="635" y="199" on="0"/>
        <pt x="801" y="337" on="0"/>
        <pt x="801" y="471" on="1"/>
        <pt x="801" y="575" on="0"/>
        <pt x="684" y="668" on="0"/>
        <pt x="573" y="668" on="1"/>
        <pt x="449" y="668" on="1"/>
        <pt x="348" y="199" on="1"/>
      </contour>
    </TTGlyph>
    <TTGlyph name="afii10046" xMin="70" yMin="0" xMax="1059" yMax="1462">
      <contour>
        <pt x="616" y="1462" on="1"/>
        <pt x="492" y="868" on="1"/>
        <pt x="594" y="868" on="1"/>
        <pt x="824" y="868" on="0"/>
        <pt x="1059" y="675" on="0"/>
        <pt x="1059" y="485" on="1"/>
        <pt x="1059" y="251" on="0"/>
        <pt x="750" y="0" on="0"/>
        <pt x="465" y="0" on="1"/>
        <pt x="70" y="0" on="1"/>
        <pt x="379" y="1462" on="1"/>
      </contour>
      <contour>
        <pt x="489" y="199" on="1"/>
        <pt x="651" y="199" on="0"/>
        <pt x="817" y="337" on="0"/>
        <pt x="817" y="471" on="1"/>
        <pt x="817" y="668" on="0"/>
        <pt x="590" y="668" on="1"/>
        <pt x="449" y="668" on="1"/>
        <pt x="348" y="199" on="1"/>
      </contour>
    </TTGlyph>
    <TTGlyph name="afii10047" xMin="23" yMin="-20" xMax="1161" yMax="1483">
      <contour>
        <pt x="381" y="184" on="1"/>
        <pt x="777" y="184" on="0"/>
        <pt x="883" y="651" on="1"/>
        <pt x="303" y="651" on="1"/>
        <pt x="344" y="854" on="1"/>
        <pt x="913" y="854" on="1"/>
        <pt x="915" y="926" on="1"/>
        <pt x="915" y="1096" on="0"/>
        <pt x="757" y="1278" on="0"/>
        <pt x="610" y="1278" on="1"/>
        <pt x="539" y="1278" on="0"/>
        <pt x="395" y="1248" on="0"/>
        <pt x="289" y="1208" on="1"/>
        <pt x="227" y="1403" on="1"/>
        <pt x="427" y="1483" on="0"/>
        <pt x="639" y="1483" on="1"/>
        <pt x="890" y="1483" on="0"/>
        <pt x="1161" y="1195" on="0"/>
        <pt x="1161" y="928" on="1"/>
        <pt x="1161" y="643" on="0"/>
        <pt x="969" y="204" on="0"/>
        <pt x="625" y="-20" on="0"/>
        <pt x="391" y="-20" on="1"/>
        <pt x="282" y="-20" on="0"/>
        <pt x="103" y="16" on="0"/>
        <pt x="23" y="61" on="1"/>
        <pt x="23" y="279" on="1"/>
        <pt x="113" y="232" on="0"/>
        <pt x="284" y="184" on="0"/>
      </contour>
    </TTGlyph>
    <TTGlyph name="afii10048" xMin="70" yMin="-20" xMax="1968" yMax="1485">
      <contour>
        <pt x="1968" y="922" on="1"/>
        <pt x="1968" y="642" on="0"/>
        <pt x="1790" y="209" on="0"/>
        <pt x="1474" y="-20" on="0"/>
        <pt x="1262" y="-20" on="1"/>
        <pt x="1013" y="-20" on="0"/>
        <pt x="741" y="278" on="0"/>
        <pt x="741" y="543" on="1"/>
        <pt x="741" y="608" on="0"/>
        <pt x="748" y="659" on="1"/>
        <pt x="446" y="659" on="1"/>
        <pt x="307" y="0" on="1"/>
        <pt x="70" y="0" on="1"/>
        <pt x="379" y="1462" on="1"/>
        <pt x="616" y="1462" on="1"/>
        <pt x="489" y="864" on="1"/>
        <pt x="780" y="864" on="1"/>
        <pt x="851" y="1153" on="0"/>
        <pt x="1216" y="1485" on="0"/>
        <pt x="1468" y="1485" on="1"/>
        <pt x="1703" y="1485" on="0"/>
        <pt x="1968" y="1188" on="0"/>
      </contour>
      <contour>
        <pt x="1442" y="1280" on="1"/>
        <pt x="1314" y="1280" on="0"/>
        <pt x="1106" y="1089" on="0"/>
        <pt x="989" y="748" on="0"/>
        <pt x="989" y="545" on="1"/>
        <pt x="989" y="370" on="0"/>
        <pt x="1140" y="184" on="0"/>
        <pt x="1276" y="184" on="1"/>
        <pt x="1404" y="184" on="0"/>
        <pt x="1604" y="366" on="0"/>
        <pt x="1722" y="704" on="0"/>
        <pt x="1722" y="920" on="1"/>
        <pt x="1722" y="1093" on="0"/>
        <pt x="1574" y="1280" on="0"/>
      </contour>
    </TTGlyph>
    <TTGlyph name="afii10049" xMin="-100" yMin="0" xMax="1221" yMax="1462">
      <contour>
        <pt x="623" y="586" on="1"/>
        <pt x="184" y="0" on="1"/>
        <pt x="-100" y="0" on="1"/>
        <pt x="414" y="664" on="1"/>
        <pt x="310" y="725" on="0"/>
        <pt x="219" y="885" on="0"/>
        <pt x="219" y="991" on="1"/>
        <pt x="219" y="1214" on="0"/>
        <pt x="516" y="1462" on="0"/>
        <pt x="786" y="1462" on="1"/>
        <pt x="1221" y="1462" on="1"/>
        <pt x="911" y="0" on="1"/>
        <pt x="674" y="0" on="1"/>
        <pt x="797" y="586" on="1"/>
      </contour>
      <contour>
        <pt x="942" y="1262" on="1"/>
        <pt x="782" y="1262" on="1"/>
        <pt x="626" y="1262" on="0"/>
        <pt x="467" y="1125" on="0"/>
        <pt x="467" y="997" on="1"/>
        <pt x="467" y="895" on="0"/>
        <pt x="596" y="784" on="0"/>
        <pt x="711" y="784" on="1"/>
        <pt x="840" y="784" on="1"/>
      </contour>
    </TTGlyph>
    <TTGlyph name="afii10050" xMin="70" yMin="0" xMax="1212" yMax="1765">
      <contour>
        <pt x="930" y="1462" on="1"/>
        <pt x="995" y="1765" on="1"/>
        <pt x="1212" y="1765" on="1"/>
        <pt x="1106" y="1257" on="1"/>
        <pt x="571" y="1257" on="1"/>
        <pt x="305" y="0" on="1"/>
        <pt x="70" y="0" on="1"/>
        <pt x="379" y="1462" on="1"/>
      </contour>
    </TTGlyph>
    <TTGlyph name="afii10051" xMin="176" yMin="-20" xMax="1303" yMax="1462">
      <contour>
        <pt x="868" y="-20" on="1"/>
        <pt x="770" y="-20" on="0"/>
        <pt x="702" y="8" on="1"/>
        <pt x="702" y="211" on="1"/>
        <pt x="765" y="182" on="0"/>
        <pt x="840" y="182" on="1"/>
        <pt x="925" y="182" on="0"/>
        <pt x="1015" y="274" on="0"/>
        <pt x="1036" y="375" on="1"/>
        <pt x="1057" y="475" on="0"/>
        <pt x="1063" y="540" on="0"/>
        <pt x="1063" y="563" on="1"/>
        <pt x="1063" y="634" on="0"/>
        <pt x="984" y="707" on="0"/>
        <pt x="891" y="707" on="1"/>
        <pt x="635" y="707" on="1"/>
        <pt x="485" y="0" on="1"/>
        <pt x="246" y="0" on="1"/>
        <pt x="514" y="1257" on="1"/>
        <pt x="176" y="1257" on="1"/>
        <pt x="221" y="1462" on="1"/>
        <pt x="1171" y="1462" on="1"/>
        <pt x="1128" y="1257" on="1"/>
        <pt x="752" y="1257" on="1"/>
        <pt x="678" y="911" on="1"/>
        <pt x="928" y="911" on="1"/>
        <pt x="1115" y="911" on="0"/>
        <pt x="1303" y="743" on="0"/>
        <pt x="1303" y="594" on="1"/>
        <pt x="1303" y="498" on="0"/>
        <pt x="1227" y="144" on="0"/>
        <pt x="1041" y="-20" on="0"/>
      </contour>
    </TTGlyph>
    <TTGlyph name="afii10052" xMin="70" yMin="0" xMax="1153" yMax="1907">
      <component glyphName="Gamma" x="0" y="0" flags="0x204"/>
      <component glyphName="acute" x="125" y="338" flags="0x4"/>
    </TTGlyph>
    <TTGlyph name="afii10053" xMin="135" yMin="-20" xMax="1313" yMax="1483">
      <contour>
        <pt x="924" y="1278" on="1"/>
        <pt x="751" y="1278" on="0"/>
        <pt x="491" y="1056" on="0"/>
        <pt x="428" y="854" on="1"/>
        <pt x="1006" y="854" on="1"/>
        <pt x="965" y="651" on="1"/>
        <pt x="389" y="651" on="1"/>
        <pt x="383" y="620" on="0"/>
        <pt x="383" y="545" on="1"/>
        <pt x="383" y="370" on="0"/>
        <pt x="547" y="184" on="0"/>
        <pt x="709" y="184" on="1"/>
        <pt x="850" y="184" on="0"/>
        <pt x="1038" y="252" on="1"/>
        <pt x="1038" y="47" on="1"/>
        <pt x="951" y="14" on="0"/>
        <pt x="776" y="-20" on="0"/>
        <pt x="664" y="-20" on="1"/>
        <pt x="410" y="-20" on="0"/>
        <pt x="135" y="278" on="0"/>
        <pt x="135" y="545" on="1"/>
        <pt x="135" y="805" on="0"/>
        <pt x="346" y="1251" on="0"/>
        <pt x="698" y="1483" on="0"/>
        <pt x="924" y="1483" on="1"/>
        <pt x="1139" y="1483" on="0"/>
        <pt x="1313" y="1391" on="1"/>
        <pt x="1219" y="1196" on="1"/>
        <pt x="1067" y="1278" on="0"/>
      </contour>
    </TTGlyph>
    <TTGlyph name="afii10054" xMin="39" yMin="-20" xMax="1083" yMax="1483">
      <component glyphName="S" x="0" y="0" flags="0x204"/>
    </TTGlyph>
    <TTGlyph name="afii10055" xMin="70" yMin="0" xMax="616" yMax="1462">
      <component glyphName="I" x="0" y="0" flags="0x204"/>
    </TTGlyph>
    <TTGlyph name="afii10055.alt" xMin="-49" yMin="0" xMax="831" yMax="1462">
      <component glyphName="I.alt" x="0" y="0" flags="0x204"/>
    </TTGlyph>
    <TTGlyph name="afii10056" xMin="70" yMin="0" xMax="860" yMax="1854">
      <component glyphName="I" x="0" y="0" flags="0x204"/>
      <component glyphName="dieresis" x="-187" y="338" flags="0x4"/>
    </TTGlyph>
    <TTGlyph name="afii10056.alt" xMin="-49" yMin="0" xMax="915" yMax="1854">
      <component glyphName="I.alt" x="0" y="0" flags="0x204"/>
      <component glyphName="dieresis" x="-132" y="338" flags="0x4"/>
    </TTGlyph>
    <TTGlyph name="afii10057" xMin="-322" yMin="-408" xMax="627" yMax="1462">
      <component glyphName="J" x="0" y="0" flags="0x204"/>
    </TTGlyph>
    <TTGlyph name="afii10058" xMin="-63" yMin="-20" xMax="1778" yMax="1462">
      <contour>
        <pt x="772" y="1255" on="1"/>
        <pt x="712" y="1030" on="1"/>
        <pt x="573" y="517" on="0"/>
        <pt x="415" y="134" on="0"/>
        <pt x="221" y="-20" on="0"/>
        <pt x="70" y="-20" on="1"/>
        <pt x="-4" y="-20" on="0"/>
        <pt x="-63" y="2" on="1"/>
        <pt x="-63" y="203" on="1"/>
        <pt x="-3" y="182" on="0"/>
        <pt x="37" y="182" on="1"/>
        <pt x="105" y="182" on="0"/>
        <pt x="193" y="245" on="0"/>
        <pt x="276" y="389" on="0"/>
        <pt x="382" y="695" on="0"/>
        <pt x="524" y="1194" on="0"/>
        <pt x="594" y="1462" on="1"/>
        <pt x="1350" y="1462" on="1"/>
        <pt x="1225" y="868" on="1"/>
        <pt x="1313" y="868" on="1"/>
        <pt x="1539" y="868" on="0"/>
        <pt x="1778" y="678" on="0"/>
        <pt x="1778" y="492" on="1"/>
        <pt x="1778" y="255" on="0"/>
        <pt x="1470" y="0" on="0"/>
        <pt x="1184" y="0" on="1"/>
        <pt x="803" y="0" on="1"/>
        <pt x="1067" y="1255" on="1"/>
      </contour>
      <contour>
        <pt x="1217" y="199" on="1"/>
        <pt x="1373" y="199" on="0"/>
        <pt x="1534" y="339" on="0"/>
        <pt x="1534" y="477" on="1"/>
        <pt x="1534" y="668" on="0"/>
        <pt x="1307" y="668" on="1"/>
        <pt x="1182" y="668" on="1"/>
        <pt x="1081" y="199" on="1"/>
      </contour>
    </TTGlyph>
    <TTGlyph name="afii10059" xMin="70" yMin="0" xMax="1769" yMax="1462">
      <contour>
        <pt x="1104" y="1462" on="1"/>
        <pt x="1341" y="1462" on="1"/>
        <pt x="1217" y="870" on="1"/>
        <pt x="1315" y="870" on="1"/>
        <pt x="1539" y="870" on="0"/>
        <pt x="1769" y="680" on="0"/>
        <pt x="1769" y="494" on="1"/>
        <pt x="1769" y="255" on="0"/>
        <pt x="1465" y="0" on="0"/>
        <pt x="1182" y="0" on="1"/>
        <pt x="795" y="0" on="1"/>
        <pt x="936" y="668" on="1"/>
        <pt x="449" y="668" on="1"/>
        <pt x="307" y="0" on="1"/>
        <pt x="70" y="0" on="1"/>
        <pt x="379" y="1462" on="1"/>
        <pt x="616" y="1462" on="1"/>
        <pt x="492" y="870" on="1"/>
        <pt x="977" y="870" on="1"/>
      </contour>
      <contour>
        <pt x="1212" y="199" on="1"/>
        <pt x="1368" y="199" on="0"/>
        <pt x="1528" y="339" on="0"/>
        <pt x="1528" y="475" on="1"/>
        <pt x="1528" y="668" on="0"/>
        <pt x="1300" y="668" on="1"/>
        <pt x="1176" y="668" on="1"/>
        <pt x="1075" y="199" on="1"/>
      </contour>
    </TTGlyph>
    <TTGlyph name="afii10060" xMin="176" yMin="0" xMax="1300" yMax="1462">
      <contour>
        <pt x="1063" y="561" on="1"/>
        <pt x="1063" y="637" on="0"/>
        <pt x="976" y="707" on="0"/>
        <pt x="883" y="707" on="1"/>
        <pt x="635" y="707" on="1"/>
        <pt x="485" y="0" on="1"/>
        <pt x="246" y="0" on="1"/>
        <pt x="514" y="1257" on="1"/>
        <pt x="176" y="1257" on="1"/>
        <pt x="221" y="1462" on="1"/>
        <pt x="1171" y="1462" on="1"/>
        <pt x="1128" y="1257" on="1"/>
        <pt x="752" y="1257" on="1"/>
        <pt x="678" y="911" on="1"/>
        <pt x="928" y="911" on="1"/>
        <pt x="1300" y="911" on="0"/>
        <pt x="1300" y="586" on="1"/>
        <pt x="1300" y="518" on="0"/>
        <pt x="1278" y="414" on="1"/>
        <pt x="1194" y="0" on="1"/>
        <pt x="952" y="0" on="1"/>
        <pt x="1049" y="442" on="1"/>
        <pt x="1063" y="517" on="0"/>
      </contour>
    </TTGlyph>
    <TTGlyph name="afii10061" xMin="70" yMin="0" xMax="1368" yMax="1907">
      <component glyphName="afii10028" x="0" y="0" flags="0x204"/>
      <component glyphName="acute" x="207" y="338" flags="0x4"/>
    </TTGlyph>
    <TTGlyph name="afii10062" xMin="12" yMin="-20" xMax="1386" yMax="1913">
      <component glyphName="afii10037" x="0" y="0" flags="0x204"/>
      <component glyphName="cyrillicbreve" x="80" y="338" flags="0x4"/>
    </TTGlyph>
    <TTGlyph name="afii10065" xMin="94" yMin="-20" xMax="1151" yMax="1126">
      <component glyphName="a" x="0" y="0" flags="0x204"/>
    </TTGlyph>
    <TTGlyph name="afii10066" xMin="104" yMin="-20" xMax="1223" yMax="1567">
      <contour>
        <pt x="104" y="451" on="1"/>
        <pt x="104" y="673" on="0"/>
        <pt x="238" y="1112" on="0"/>
        <pt x="465" y="1398" on="0"/>
        <pt x="610" y="1450" on="1"/>
        <pt x="677" y="1477" on="0"/>
        <pt x="1023" y="1545" on="0"/>
        <pt x="1196" y="1567" on="1"/>
        <pt x="1223" y="1368" on="1"/>
        <pt x="1117" y="1352" on="1"/>
        <pt x="782" y="1303" on="0"/>
        <pt x="575" y="1204" on="0"/>
        <pt x="436" y="1004" on="0"/>
        <pt x="397" y="852" on="1"/>
        <pt x="399" y="852" on="1"/>
        <pt x="473" y="940" on="0"/>
        <pt x="656" y="1030" on="0"/>
        <pt x="752" y="1030" on="1"/>
        <pt x="895" y="1030" on="0"/>
        <pt x="1055" y="842" on="0"/>
        <pt x="1055" y="662" on="1"/>
        <pt x="1055" y="464" on="0"/>
        <pt x="916" y="145" on="0"/>
        <pt x="669" y="-20" on="0"/>
        <pt x="506" y="-20" on="1"/>
        <pt x="310" y="-20" on="0"/>
        <pt x="104" y="221" on="0"/>
      </contour>
      <contour>
        <pt x="526" y="172" on="1"/>
        <pt x="607" y="172" on="0"/>
        <pt x="735" y="291" on="0"/>
        <pt x="817" y="520" on="0"/>
        <pt x="817" y="645" on="1"/>
        <pt x="817" y="846" on="0"/>
        <pt x="672" y="846" on="1"/>
        <pt x="597" y="846" on="0"/>
        <pt x="426" y="735" on="0"/>
        <pt x="365" y="647" on="1"/>
        <pt x="342" y="534" on="0"/>
        <pt x="342" y="442" on="1"/>
        <pt x="342" y="172" on="0"/>
      </contour>
    </TTGlyph>
    <TTGlyph name="afii10067" xMin="94" yMin="-20" xMax="1077" yMax="1126">
      <contour>
        <pt x="692" y="1126" on="1"/>
        <pt x="875" y="1126" on="0"/>
        <pt x="1077" y="976" on="0"/>
        <pt x="1077" y="838" on="1"/>
        <pt x="1077" y="618" on="0"/>
        <pt x="817" y="559" on="1"/>
        <pt x="817" y="555" on="1"/>
        <pt x="1010" y="503" on="0"/>
        <pt x="1010" y="326" on="1"/>
        <pt x="1010" y="226" on="0"/>
        <pt x="901" y="70" on="0"/>
        <pt x="693" y="-20" on="0"/>
        <pt x="547" y="-20" on="1"/>
        <pt x="327" y="-20" on="0"/>
        <pt x="94" y="213" on="0"/>
        <pt x="94" y="432" on="1"/>
        <pt x="94" y="631" on="0"/>
        <pt x="242" y="950" on="0"/>
        <pt x="514" y="1126" on="0"/>
      </contour>
      <contour>
        <pt x="332" y="475" on="1"/>
        <pt x="330" y="448" on="1"/>
        <pt x="330" y="420" on="1"/>
        <pt x="330" y="292" on="0"/>
        <pt x="443" y="156" on="0"/>
        <pt x="555" y="156" on="1"/>
        <pt x="660" y="156" on="0"/>
        <pt x="778" y="251" on="0"/>
        <pt x="778" y="330" on="1"/>
        <pt x="778" y="403" on="0"/>
        <pt x="665" y="475" on="0"/>
        <pt x="539" y="475" on="1"/>
      </contour>
      <contour>
        <pt x="688" y="946" on="1"/>
        <pt x="569" y="946" on="0"/>
        <pt x="399" y="788" on="0"/>
        <pt x="360" y="647" on="1"/>
        <pt x="573" y="647" on="1"/>
        <pt x="706" y="647" on="0"/>
        <pt x="846" y="739" on="0"/>
        <pt x="846" y="819" on="1"/>
        <pt x="846" y="875" on="0"/>
        <pt x="767" y="946" on="0"/>
      </contour>
    </TTGlyph>
    <TTGlyph name="afii10068" xMin="37" yMin="-20" xMax="903" yMax="1126">
      <contour>
        <pt x="184" y="1042" on="1"/>
        <pt x="373" y="1126" on="0"/>
        <pt x="561" y="1126" on="1"/>
        <pt x="727" y="1126" on="0"/>
        <pt x="903" y="984" on="0"/>
        <pt x="903" y="850" on="1"/>
        <pt x="903" y="733" on="0"/>
        <pt x="760" y="571" on="0"/>
        <pt x="584" y="504" on="1"/>
        <pt x="406" y="445" on="0"/>
        <pt x="281" y="348" on="0"/>
        <pt x="281" y="281" on="1"/>
        <pt x="281" y="223" on="0"/>
        <pt x="368" y="162" on="0"/>
        <pt x="449" y="162" on="1"/>
        <pt x="534" y="162" on="0"/>
        <pt x="694" y="214" on="0"/>
        <pt x="768" y="248" on="1"/>
        <pt x="768" y="59" on="1"/>
        <pt x="669" y="13" on="0"/>
        <pt x="500" y="-20" on="0"/>
        <pt x="406" y="-20" on="1"/>
        <pt x="231" y="-20" on="0"/>
        <pt x="37" y="134" on="0"/>
        <pt x="37" y="274" on="1"/>
        <pt x="37" y="362" on="0"/>
        <pt x="116" y="496" on="0"/>
        <pt x="268" y="596" on="0"/>
        <pt x="467" y="669" on="1"/>
        <pt x="570" y="706" on="0"/>
        <pt x="666" y="788" on="0"/>
        <pt x="666" y="840" on="1"/>
        <pt x="666" y="942" on="0"/>
        <pt x="528" y="942" on="1"/>
        <pt x="402" y="942" on="0"/>
        <pt x="244" y="868" on="1"/>
      </contour>
    </TTGlyph>
    <TTGlyph name="afii10069" xMin="94" yMin="-20" xMax="1120" yMax="1577">
      <contour>
        <pt x="1120" y="938" on="1"/>
        <pt x="1120" y="668" on="0"/>
        <pt x="957" y="215" on="0"/>
        <pt x="673" y="-20" on="0"/>
        <pt x="487" y="-20" on="1"/>
        <pt x="300" y="-20" on="0"/>
        <pt x="94" y="201" on="0"/>
        <pt x="94" y="397" on="1"/>
        <pt x="94" y="576" on="0"/>
        <pt x="220" y="878" on="0"/>
        <pt x="449" y="1051" on="0"/>
        <pt x="592" y="1051" on="1"/>
        <pt x="783" y="1051" on="0"/>
        <pt x="877" y="872" on="1"/>
        <pt x="883" y="872" on="1"/>
        <pt x="885" y="906" on="1"/>
        <pt x="885" y="934" on="1"/>
        <pt x="885" y="1166" on="0"/>
        <pt x="754" y="1384" on="0"/>
        <pt x="614" y="1384" on="1"/>
        <pt x="507" y="1384" on="0"/>
        <pt x="406" y="1339" on="1"/>
        <pt x="352" y="1520" on="1"/>
        <pt x="415" y="1547" on="0"/>
        <pt x="576" y="1577" on="0"/>
        <pt x="647" y="1577" on="1"/>
        <pt x="1120" y="1577" on="0"/>
      </contour>
      <contour>
        <pt x="506" y="172" on="1"/>
        <pt x="628" y="172" on="0"/>
        <pt x="809" y="440" on="0"/>
        <pt x="850" y="674" on="1"/>
        <pt x="824" y="764" on="0"/>
        <pt x="710" y="868" on="0"/>
        <pt x="633" y="868" on="1"/>
        <pt x="550" y="868" on="0"/>
        <pt x="410" y="743" on="0"/>
        <pt x="332" y="524" on="0"/>
        <pt x="332" y="393" on="1"/>
        <pt x="332" y="287" on="0"/>
        <pt x="424" y="172" on="0"/>
      </contour>
    </TTGlyph>
    <TTGlyph name="afii10070" xMin="94" yMin="-20" xMax="1018" yMax="1126">
      <component glyphName="e" x="0" y="0" flags="0x204"/>
    </TTGlyph>
    <TTGlyph name="afii10071" xMin="94" yMin="-20" xMax="1018" yMax="1516">
      <component glyphName="e" x="0" y="0" flags="0x204"/>
      <component glyphName="dieresis" x="-42" y="0" flags="0x4"/>
    </TTGlyph>
    <TTGlyph name="afii10072" xMin="-29" yMin="-20" xMax="1876" yMax="1126">
      <contour>
        <pt x="793" y="469" on="1"/>
        <pt x="635" y="469" on="1"/>
        <pt x="581" y="242" on="0"/>
        <pt x="297" y="-20" on="0"/>
        <pt x="100" y="-20" on="1"/>
        <pt x="32" y="-20" on="0"/>
        <pt x="-29" y="-6" on="1"/>
        <pt x="8" y="182" on="1"/>
        <pt x="56" y="170" on="0"/>
        <pt x="98" y="170" on="1"/>
        <pt x="193" y="170" on="0"/>
        <pt x="343" y="312" on="0"/>
        <pt x="428" y="558" on="0"/>
        <pt x="428" y="696" on="1"/>
        <pt x="428" y="813" on="0"/>
        <pt x="339" y="934" on="0"/>
        <pt x="258" y="934" on="1"/>
        <pt x="202" y="934" on="0"/>
        <pt x="141" y="913" on="1"/>
        <pt x="141" y="1104" on="1"/>
        <pt x="217" y="1126" on="0"/>
        <pt x="299" y="1126" on="1"/>
        <pt x="472" y="1126" on="0"/>
        <pt x="664" y="904" on="0"/>
        <pt x="664" y="700" on="1"/>
        <pt x="664" y="673" on="0"/>
        <pt x="659" y="635" on="1"/>
        <pt x="827" y="635" on="1"/>
        <pt x="928" y="1106" on="1"/>
        <pt x="1149" y="1106" on="1"/>
        <pt x="1047" y="635" on="1"/>
        <pt x="1206" y="635" on="1"/>
        <pt x="1261" y="864" on="0"/>
        <pt x="1544" y="1126" on="0"/>
        <pt x="1739" y="1126" on="1"/>
        <pt x="1822" y="1126" on="0"/>
        <pt x="1876" y="1112" on="1"/>
        <pt x="1835" y="924" on="1"/>
        <pt x="1791" y="934" on="0"/>
        <pt x="1741" y="934" on="1"/>
        <pt x="1651" y="934" on="0"/>
        <pt x="1504" y="803" on="0"/>
        <pt x="1415" y="554" on="0"/>
        <pt x="1415" y="410" on="1"/>
        <pt x="1415" y="295" on="0"/>
        <pt x="1500" y="170" on="0"/>
        <pt x="1583" y="170" on="1"/>
        <pt x="1633" y="170" on="0"/>
        <pt x="1700" y="193" on="1"/>
        <pt x="1700" y="0" on="1"/>
        <pt x="1630" y="-20" on="0"/>
        <pt x="1544" y="-20" on="1"/>
        <pt x="1372" y="-20" on="0"/>
        <pt x="1180" y="197" on="0"/>
        <pt x="1180" y="403" on="1"/>
        <pt x="1180" y="436" on="1"/>
        <pt x="1182" y="469" on="1"/>
        <pt x="1012" y="469" on="1"/>
        <pt x="911" y="0" on="1"/>
        <pt x="692" y="0" on="1"/>
      </contour>
    </TTGlyph>
    <TTGlyph name="afii10073" xMin="10" yMin="-20" xMax="928" yMax="1126">
      <contour>
        <pt x="420" y="664" on="1"/>
        <pt x="566" y="664" on="0"/>
        <pt x="694" y="744" on="0"/>
        <pt x="694" y="825" on="1"/>
        <pt x="694" y="942" on="0"/>
        <pt x="530" y="942" on="1"/>
        <pt x="406" y="942" on="0"/>
        <pt x="233" y="868" on="1"/>
        <pt x="172" y="1042" on="1"/>
        <pt x="368" y="1126" on="0"/>
        <pt x="569" y="1126" on="1"/>
        <pt x="740" y="1126" on="0"/>
        <pt x="928" y="986" on="0"/>
        <pt x="928" y="860" on="1"/>
        <pt x="928" y="750" on="0"/>
        <pt x="793" y="607" on="0"/>
        <pt x="670" y="580" on="1"/>
        <pt x="670" y="573" on="1"/>
        <pt x="760" y="550" on="0"/>
        <pt x="858" y="434" on="0"/>
        <pt x="858" y="344" on="1"/>
        <pt x="858" y="170" on="0"/>
        <pt x="591" y="-20" on="0"/>
        <pt x="350" y="-20" on="1"/>
        <pt x="258" y="-20" on="0"/>
        <pt x="75" y="18" on="0"/>
        <pt x="10" y="51" on="1"/>
        <pt x="10" y="254" on="1"/>
        <pt x="180" y="166" on="0"/>
        <pt x="354" y="166" on="1"/>
        <pt x="482" y="166" on="0"/>
        <pt x="625" y="261" on="0"/>
        <pt x="625" y="344" on="1"/>
        <pt x="625" y="416" on="0"/>
        <pt x="532" y="485" on="0"/>
        <pt x="432" y="485" on="1"/>
        <pt x="270" y="485" on="1"/>
        <pt x="309" y="664" on="1"/>
      </contour>
    </TTGlyph>
    <TTGlyph name="afii10074" xMin="111" yMin="-20" xMax="1159" yMax="1106">
      <component glyphName="u" x="0" y="0" flags="0x204"/>
    </TTGlyph>
    <TTGlyph name="afii10075" xMin="111" yMin="-20" xMax="1198" yMax="1575">
      <component glyphName="u" x="0" y="0" flags="0x204"/>
      <component glyphName="cyrillicbreve" x="31" y="0" flags="0x4"/>
    </TTGlyph>
    <TTGlyph name="afii10076" xMin="47" yMin="0" xMax="1163" yMax="1106">
      <contour>
        <pt x="885" y="1106" on="1"/>
        <pt x="1163" y="1106" on="1"/>
        <pt x="649" y="555" on="1"/>
        <pt x="975" y="0" on="1"/>
        <pt x="705" y="0" on="1"/>
        <pt x="397" y="545" on="1"/>
        <pt x="283" y="0" on="1"/>
        <pt x="47" y="0" on="1"/>
        <pt x="283" y="1106" on="1"/>
        <pt x="516" y="1106" on="1"/>
        <pt x="406" y="582" on="1"/>
      </contour>
    </TTGlyph>
    <TTGlyph name="afii10077" xMin="-78" yMin="-18" xMax="1122" yMax="1120">
      <contour>
        <pt x="895" y="0" on="1"/>
        <pt x="659" y="0" on="1"/>
        <pt x="856" y="920" on="1"/>
        <pt x="819" y="928" on="0"/>
        <pt x="786" y="928" on="1"/>
        <pt x="714" y="928" on="0"/>
        <pt x="620" y="864" on="0"/>
        <pt x="539" y="714" on="0"/>
        <pt x="465" y="496" on="1"/>
        <pt x="378" y="245" on="0"/>
        <pt x="272" y="68" on="0"/>
        <pt x="134" y="-18" on="0"/>
        <pt x="37" y="-18" on="1"/>
        <pt x="-27" y="-18" on="0"/>
        <pt x="-78" y="2" on="1"/>
        <pt x="-78" y="199" on="1"/>
        <pt x="-42" y="184" on="0"/>
        <pt x="-2" y="184" on="1"/>
        <pt x="47" y="184" on="0"/>
        <pt x="121" y="249" on="0"/>
        <pt x="190" y="382" on="0"/>
        <pt x="258" y="578" on="1"/>
        <pt x="331" y="787" on="0"/>
        <pt x="430" y="968" on="0"/>
        <pt x="550" y="1071" on="0"/>
        <pt x="712" y="1120" on="0"/>
        <pt x="827" y="1120" on="1"/>
        <pt x="983" y="1120" on="0"/>
        <pt x="1122" y="1077" on="1"/>
      </contour>
    </TTGlyph>
    <TTGlyph name="afii10078" xMin="41" yMin="0" xMax="1468" yMax="1106">
      <contour>
        <pt x="1194" y="844" on="1"/>
        <pt x="1192" y="841" on="0"/>
        <pt x="1189" y="834" on="0"/>
        <pt x="725" y="0" on="1"/>
        <pt x="549" y="0" on="1"/>
        <pt x="451" y="672" on="1"/>
        <pt x="439" y="749" on="0"/>
        <pt x="434" y="844" on="1"/>
        <pt x="256" y="0" on="1"/>
        <pt x="41" y="0" on="1"/>
        <pt x="276" y="1106" on="1"/>
        <pt x="573" y="1106" on="1"/>
        <pt x="668" y="428" on="1"/>
        <pt x="684" y="252" on="1"/>
        <pt x="745" y="394" on="0"/>
        <pt x="799" y="483" on="1"/>
        <pt x="1155" y="1106" on="1"/>
        <pt x="1468" y="1106" on="1"/>
        <pt x="1233" y="0" on="1"/>
        <pt x="1014" y="0" on="1"/>
      </contour>
    </TTGlyph>
    <TTGlyph name="afii10079" xMin="47" yMin="0" xMax="1194" yMax="1106">
      <contour>
        <pt x="518" y="1106" on="1"/>
        <pt x="424" y="662" on="1"/>
        <pt x="866" y="662" on="1"/>
        <pt x="961" y="1106" on="1"/>
        <pt x="1194" y="1106" on="1"/>
        <pt x="961" y="0" on="1"/>
        <pt x="725" y="0" on="1"/>
        <pt x="825" y="477" on="1"/>
        <pt x="385" y="477" on="1"/>
        <pt x="283" y="0" on="1"/>
        <pt x="47" y="0" on="1"/>
        <pt x="285" y="1106" on="1"/>
      </contour>
    </TTGlyph>
    <TTGlyph name="afii10080" xMin="94" yMin="-18" xMax="1079" yMax="1124">
      <component glyphName="o" x="0" y="0" flags="0x204"/>
    </TTGlyph>
    <TTGlyph name="afii10081" xMin="47" yMin="0" xMax="1098" yMax="1126">
      <component glyphName="n" x="0" y="0" flags="0x204"/>
    </TTGlyph>
    <TTGlyph name="afii10082" xMin="-55" yMin="-492" xMax="1104" yMax="1126">
      <component glyphName="p" x="0" y="0" flags="0x204"/>
    </TTGlyph>
    <TTGlyph name="afii10083" xMin="94" yMin="-20" xMax="973" yMax="1126">
      <component glyphName="c" x="0" y="0" flags="0x204"/>
    </TTGlyph>
    <TTGlyph name="afii10084" xMin="47" yMin="0" xMax="1710" yMax="1126">
      <component glyphName="m" x="0" y="0" flags="0x204"/>
    </TTGlyph>
    <TTGlyph name="afii10085" xMin="-170" yMin="-492" xMax="1106" yMax="1106">
      <component glyphName="y" x="0" y="0" flags="0x204"/>
    </TTGlyph>
    <TTGlyph name="afii10086" xMin="94" yMin="-492" xMax="1368" yMax="1556">
      <contour>
        <pt x="961" y="1118" on="1"/>
        <pt x="1157" y="1092" on="0"/>
        <pt x="1368" y="849" on="0"/>
        <pt x="1368" y="655" on="1"/>
        <pt x="1368" y="465" on="0"/>
        <pt x="1204" y="161" on="0"/>
        <pt x="912" y="-7" on="0"/>
        <pt x="721" y="-18" on="1"/>
        <pt x="621" y="-492" on="1"/>
        <pt x="399" y="-492" on="1"/>
        <pt x="502" y="-14" on="1"/>
        <pt x="308" y="9" on="0"/>
        <pt x="94" y="254" on="0"/>
        <pt x="94" y="451" on="1"/>
        <pt x="94" y="639" on="0"/>
        <pt x="258" y="943" on="0"/>
        <pt x="549" y="1110" on="0"/>
        <pt x="741" y="1118" on="1"/>
        <pt x="834" y="1556" on="1"/>
        <pt x="1055" y="1556" on="1"/>
      </contour>
      <contour>
        <pt x="334" y="463" on="1"/>
        <pt x="334" y="336" on="0"/>
        <pt x="444" y="185" on="0"/>
        <pt x="541" y="174" on="1"/>
        <pt x="702" y="932" on="1"/>
        <pt x="591" y="925" on="0"/>
        <pt x="427" y="807" on="0"/>
        <pt x="334" y="590" on="0"/>
      </contour>
      <contour>
        <pt x="762" y="174" on="1"/>
        <pt x="871" y="184" on="0"/>
        <pt x="1034" y="303" on="0"/>
        <pt x="1128" y="521" on="0"/>
        <pt x="1128" y="649" on="1"/>
        <pt x="1128" y="773" on="0"/>
        <pt x="1018" y="915" on="0"/>
        <pt x="922" y="928" on="1"/>
      </contour>
    </TTGlyph>
    <TTGlyph name="afii10087" xMin="-86" yMin="0" xMax="1108" yMax="1106">
      <component glyphName="x" x="0" y="0" flags="0x204"/>
    </TTGlyph>
    <TTGlyph name="afii10088" xMin="109" yMin="-391" xMax="1159" yMax="1106">
      <contour>
        <pt x="506" y="1106" on="1"/>
        <pt x="362" y="432" on="1"/>
        <pt x="346" y="356" on="0"/>
        <pt x="346" y="303" on="1"/>
        <pt x="346" y="170" on="0"/>
        <pt x="473" y="170" on="1"/>
        <pt x="585" y="170" on="0"/>
        <pt x="782" y="425" on="0"/>
        <pt x="827" y="637" on="1"/>
        <pt x="926" y="1106" on="1"/>
        <pt x="1159" y="1106" on="1"/>
        <pt x="997" y="338" on="1"/>
        <pt x="985" y="280" on="0"/>
        <pt x="985" y="246" on="1"/>
        <pt x="985" y="212" on="0"/>
        <pt x="1021" y="174" on="0"/>
        <pt x="1055" y="174" on="1"/>
        <pt x="1088" y="174" on="0"/>
        <pt x="1139" y="188" on="1"/>
        <pt x="1014" y="-391" on="1"/>
        <pt x="788" y="-391" on="1"/>
        <pt x="877" y="-8" on="1"/>
        <pt x="818" y="13" on="0"/>
        <pt x="760" y="110" on="0"/>
        <pt x="754" y="190" on="1"/>
        <pt x="748" y="190" on="1"/>
        <pt x="601" y="-20" on="0"/>
        <pt x="391" y="-20" on="1"/>
        <pt x="257" y="-20" on="0"/>
        <pt x="109" y="132" on="0"/>
        <pt x="109" y="274" on="1"/>
        <pt x="109" y="342" on="0"/>
        <pt x="135" y="467" on="1"/>
        <pt x="270" y="1106" on="1"/>
      </contour>
    </TTGlyph>
    <TTGlyph name="afii10089" xMin="160" yMin="0" xMax="1128" yMax="1106">
      <contour>
        <pt x="475" y="1106" on="1"/>
        <pt x="416" y="829" on="1"/>
        <pt x="397" y="743" on="0"/>
        <pt x="397" y="690" on="1"/>
        <pt x="397" y="619" on="0"/>
        <pt x="471" y="553" on="0"/>
        <pt x="532" y="553" on="1"/>
        <pt x="654" y="553" on="0"/>
        <pt x="818" y="766" on="0"/>
        <pt x="868" y="987" on="1"/>
        <pt x="895" y="1106" on="1"/>
        <pt x="1128" y="1106" on="1"/>
        <pt x="893" y="0" on="1"/>
        <pt x="657" y="0" on="1"/>
        <pt x="721" y="305" on="1"/>
        <pt x="733" y="365" on="0"/>
        <pt x="766" y="480" on="0"/>
        <pt x="778" y="528" on="1"/>
        <pt x="770" y="528" on="1"/>
        <pt x="635" y="362" on="0"/>
        <pt x="444" y="362" on="1"/>
        <pt x="305" y="362" on="0"/>
        <pt x="160" y="518" on="0"/>
        <pt x="160" y="662" on="1"/>
        <pt x="160" y="741" on="0"/>
        <pt x="186" y="858" on="1"/>
        <pt x="240" y="1106" on="1"/>
      </contour>
    </TTGlyph>
    <TTGlyph name="afii10090" xMin="109" yMin="-20" xMax="1772" yMax="1106">
      <contour>
        <pt x="1139" y="1106" on="1"/>
        <pt x="995" y="434" on="1"/>
        <pt x="979" y="354" on="0"/>
        <pt x="979" y="307" on="1"/>
        <pt x="979" y="172" on="0"/>
        <pt x="1096" y="172" on="1"/>
        <pt x="1206" y="172" on="0"/>
        <pt x="1391" y="424" on="0"/>
        <pt x="1438" y="637" on="1"/>
        <pt x="1536" y="1106" on="1"/>
        <pt x="1772" y="1106" on="1"/>
        <pt x="1536" y="0" on="1"/>
        <pt x="1352" y="0" on="1"/>
        <pt x="1372" y="205" on="1"/>
        <pt x="1364" y="205" on="1"/>
        <pt x="1216" y="-20" on="0"/>
        <pt x="1012" y="-20" on="1"/>
        <pt x="898" y="-20" on="0"/>
        <pt x="773" y="105" on="0"/>
        <pt x="758" y="215" on="1"/>
        <pt x="750" y="215" on="1"/>
        <pt x="675" y="99" on="0"/>
        <pt x="484" y="-20" on="0"/>
        <pt x="381" y="-20" on="1"/>
        <pt x="248" y="-20" on="0"/>
        <pt x="109" y="133" on="0"/>
        <pt x="109" y="272" on="1"/>
        <pt x="109" y="336" on="0"/>
        <pt x="131" y="453" on="1"/>
        <pt x="270" y="1106" on="1"/>
        <pt x="506" y="1106" on="1"/>
        <pt x="362" y="434" on="1"/>
        <pt x="344" y="344" on="0"/>
        <pt x="344" y="301" on="1"/>
        <pt x="344" y="172" on="0"/>
        <pt x="465" y="172" on="1"/>
        <pt x="573" y="172" on="0"/>
        <pt x="759" y="421" on="0"/>
        <pt x="803" y="625" on="1"/>
        <pt x="903" y="1106" on="1"/>
      </contour>
    </TTGlyph>
    <TTGlyph name="afii10091" xMin="109" yMin="-391" xMax="1772" yMax="1106">
      <contour>
        <pt x="1139" y="1106" on="1"/>
        <pt x="995" y="432" on="1"/>
        <pt x="979" y="356" on="0"/>
        <pt x="979" y="307" on="1"/>
        <pt x="979" y="239" on="0"/>
        <pt x="1034" y="172" on="0"/>
        <pt x="1096" y="172" on="1"/>
        <pt x="1206" y="172" on="0"/>
        <pt x="1391" y="424" on="0"/>
        <pt x="1438" y="637" on="1"/>
        <pt x="1536" y="1106" on="1"/>
        <pt x="1772" y="1106" on="1"/>
        <pt x="1608" y="338" on="1"/>
        <pt x="1597" y="281" on="0"/>
        <pt x="1597" y="246" on="1"/>
        <pt x="1597" y="211" on="0"/>
        <pt x="1635" y="174" on="0"/>
        <pt x="1667" y="174" on="1"/>
        <pt x="1703" y="174" on="0"/>
        <pt x="1751" y="188" on="1"/>
        <pt x="1626" y="-391" on="1"/>
        <pt x="1401" y="-391" on="1"/>
        <pt x="1489" y="-8" on="1"/>
        <pt x="1374" y="32" on="0"/>
        <pt x="1362" y="193" on="1"/>
        <pt x="1358" y="193" on="1"/>
        <pt x="1211" y="-20" on="0"/>
        <pt x="1012" y="-20" on="1"/>
        <pt x="898" y="-20" on="0"/>
        <pt x="773" y="105" on="0"/>
        <pt x="758" y="215" on="1"/>
        <pt x="750" y="215" on="1"/>
        <pt x="675" y="99" on="0"/>
        <pt x="485" y="-20" on="0"/>
        <pt x="381" y="-20" on="1"/>
        <pt x="248" y="-20" on="0"/>
        <pt x="109" y="133" on="0"/>
        <pt x="109" y="272" on="1"/>
        <pt x="109" y="331" on="0"/>
        <pt x="131" y="453" on="1"/>
        <pt x="270" y="1106" on="1"/>
        <pt x="506" y="1106" on="1"/>
        <pt x="362" y="432" on="1"/>
        <pt x="344" y="347" on="0"/>
        <pt x="344" y="301" on="1"/>
        <pt x="344" y="172" on="0"/>
        <pt x="465" y="172" on="1"/>
        <pt x="572" y="172" on="0"/>
        <pt x="760" y="420" on="0"/>
        <pt x="803" y="625" on="1"/>
        <pt x="903" y="1106" on="1"/>
      </contour>
    </TTGlyph>
    <TTGlyph name="afii10092" xMin="88" yMin="-20" xMax="1174" yMax="1106">
      <contour>
        <pt x="610" y="639" on="1"/>
        <pt x="717" y="664" on="0"/>
        <pt x="829" y="664" on="1"/>
        <pt x="993" y="664" on="0"/>
        <pt x="1174" y="507" on="0"/>
        <pt x="1174" y="367" on="1"/>
        <pt x="1174" y="251" on="0"/>
        <pt x="1061" y="76" on="0"/>
        <pt x="846" y="-20" on="0"/>
        <pt x="696" y="-20" on="1"/>
        <pt x="507" y="-20" on="0"/>
        <pt x="319" y="148" on="0"/>
        <pt x="319" y="299" on="1"/>
        <pt x="319" y="376" on="0"/>
        <pt x="344" y="487" on="1"/>
        <pt x="436" y="920" on="1"/>
        <pt x="88" y="920" on="1"/>
        <pt x="127" y="1106" on="1"/>
        <pt x="711" y="1106" on="1"/>
      </contour>
      <contour>
        <pt x="758" y="487" on="1"/>
        <pt x="679" y="487" on="0"/>
        <pt x="575" y="467" on="1"/>
        <pt x="553" y="363" on="0"/>
        <pt x="553" y="313" on="1"/>
        <pt x="553" y="156" on="0"/>
        <pt x="723" y="156" on="1"/>
        <pt x="822" y="156" on="0"/>
        <pt x="940" y="257" on="0"/>
        <pt x="940" y="344" on="1"/>
        <pt x="940" y="418" on="0"/>
        <pt x="852" y="487" on="0"/>
      </contour>
    </TTGlyph>
    <TTGlyph name="afii10093" xMin="117" yMin="-20" xMax="1511" yMax="1106">
      <contour>
        <pt x="508" y="1106" on="1"/>
        <pt x="408" y="639" on="1"/>
        <pt x="533" y="664" on="0"/>
        <pt x="618" y="664" on="1"/>
        <pt x="770" y="664" on="0"/>
        <pt x="942" y="508" on="0"/>
        <pt x="942" y="371" on="1"/>
        <pt x="942" y="192" on="0"/>
        <pt x="699" y="-20" on="0"/>
        <pt x="487" y="-20" on="1"/>
        <pt x="299" y="-20" on="0"/>
        <pt x="117" y="148" on="0"/>
        <pt x="117" y="299" on="1"/>
        <pt x="117" y="385" on="0"/>
        <pt x="139" y="489" on="1"/>
        <pt x="272" y="1106" on="1"/>
      </contour>
      <contour>
        <pt x="539" y="487" on="1"/>
        <pt x="467" y="487" on="0"/>
        <pt x="371" y="467" on="1"/>
        <pt x="365" y="438" on="0"/>
        <pt x="356" y="395" on="0"/>
        <pt x="352" y="359" on="0"/>
        <pt x="350" y="328" on="0"/>
        <pt x="350" y="311" on="1"/>
        <pt x="350" y="156" on="0"/>
        <pt x="506" y="156" on="1"/>
        <pt x="599" y="156" on="0"/>
        <pt x="709" y="259" on="0"/>
        <pt x="709" y="346" on="1"/>
        <pt x="709" y="423" on="0"/>
        <pt x="623" y="487" on="0"/>
      </contour>
      <contour>
        <pt x="1276" y="0" on="1"/>
        <pt x="1042" y="0" on="1"/>
        <pt x="1276" y="1106" on="1"/>
        <pt x="1511" y="1106" on="1"/>
      </contour>
    </TTGlyph>
    <TTGlyph name="afii10094" xMin="117" yMin="-20" xMax="985" yMax="1106">
      <contour>
        <pt x="406" y="639" on="1"/>
        <pt x="517" y="664" on="0"/>
        <pt x="637" y="664" on="1"/>
        <pt x="806" y="664" on="0"/>
        <pt x="985" y="507" on="0"/>
        <pt x="985" y="367" on="1"/>
        <pt x="985" y="252" on="0"/>
        <pt x="869" y="77" on="0"/>
        <pt x="650" y="-20" on="0"/>
        <pt x="498" y="-20" on="1"/>
        <pt x="304" y="-20" on="0"/>
        <pt x="117" y="149" on="0"/>
        <pt x="117" y="301" on="1"/>
        <pt x="117" y="389" on="0"/>
        <pt x="139" y="487" on="1"/>
        <pt x="272" y="1106" on="1"/>
        <pt x="508" y="1106" on="1"/>
      </contour>
      <contour>
        <pt x="569" y="487" on="1"/>
        <pt x="478" y="487" on="0"/>
        <pt x="371" y="467" on="1"/>
        <pt x="357" y="400" on="0"/>
        <pt x="348" y="348" on="0"/>
        <pt x="348" y="313" on="1"/>
        <pt x="348" y="156" on="0"/>
        <pt x="526" y="156" on="1"/>
        <pt x="632" y="156" on="0"/>
        <pt x="752" y="257" on="0"/>
        <pt x="752" y="344" on="1"/>
        <pt x="752" y="418" on="0"/>
        <pt x="661" y="487" on="0"/>
      </contour>
    </TTGlyph>
    <TTGlyph name="afii10095" xMin="25" yMin="-20" xMax="866" yMax="1126">
      <contour>
        <pt x="457" y="1126" on="1"/>
        <pt x="654" y="1126" on="0"/>
        <pt x="866" y="897" on="0"/>
        <pt x="866" y="680" on="1"/>
        <pt x="866" y="471" on="0"/>
        <pt x="728" y="153" on="0"/>
        <pt x="464" y="-20" on="0"/>
        <pt x="281" y="-20" on="1"/>
        <pt x="202" y="-20" on="0"/>
        <pt x="67" y="9" on="0"/>
        <pt x="25" y="31" on="1"/>
        <pt x="25" y="233" on="1"/>
        <pt x="159" y="172" on="0"/>
        <pt x="279" y="172" on="1"/>
        <pt x="403" y="172" on="0"/>
        <pt x="574" y="321" on="0"/>
        <pt x="606" y="475" on="1"/>
        <pt x="180" y="475" on="1"/>
        <pt x="215" y="651" on="1"/>
        <pt x="629" y="651" on="1"/>
        <pt x="629" y="684" on="1"/>
        <pt x="629" y="934" on="0"/>
        <pt x="420" y="934" on="1"/>
        <pt x="358" y="934" on="0"/>
        <pt x="250" y="901" on="0"/>
        <pt x="195" y="877" on="1"/>
        <pt x="129" y="1051" on="1"/>
        <pt x="288" y="1126" on="0"/>
      </contour>
    </TTGlyph>
    <TTGlyph name="afii10096" xMin="47" yMin="-18" xMax="1559" yMax="1124">
      <contour>
        <pt x="1559" y="692" on="1"/>
        <pt x="1559" y="490" on="0"/>
        <pt x="1423" y="161" on="0"/>
        <pt x="1178" y="-18" on="0"/>
        <pt x="1016" y="-18" on="1"/>
        <pt x="826" y="-18" on="0"/>
        <pt x="614" y="209" on="0"/>
        <pt x="614" y="406" on="1"/>
        <pt x="616" y="477" on="1"/>
        <pt x="385" y="477" on="1"/>
        <pt x="283" y="0" on="1"/>
        <pt x="47" y="0" on="1"/>
        <pt x="285" y="1106" on="1"/>
        <pt x="518" y="1106" on="1"/>
        <pt x="424" y="662" on="1"/>
        <pt x="645" y="662" on="1"/>
        <pt x="706" y="883" on="0"/>
        <pt x="973" y="1124" on="0"/>
        <pt x="1159" y="1124" on="1"/>
        <pt x="1348" y="1124" on="0"/>
        <pt x="1559" y="895" on="0"/>
      </contour>
      <contour>
        <pt x="1147" y="930" on="1"/>
        <pt x="1063" y="930" on="0"/>
        <pt x="929" y="795" on="0"/>
        <pt x="848" y="541" on="0"/>
        <pt x="848" y="403" on="1"/>
        <pt x="848" y="297" on="0"/>
        <pt x="938" y="174" on="0"/>
        <pt x="1032" y="174" on="1"/>
        <pt x="1112" y="174" on="0"/>
        <pt x="1245" y="311" on="0"/>
        <pt x="1321" y="555" on="0"/>
        <pt x="1321" y="702" on="1"/>
        <pt x="1321" y="812" on="0"/>
        <pt x="1228" y="930" on="0"/>
      </contour>
    </TTGlyph>
    <TTGlyph name="afii10097" xMin="-33" yMin="-16" xMax="1083" yMax="1106">
      <contour>
        <pt x="608" y="424" on="1"/>
        <pt x="545" y="424" on="0"/>
        <pt x="456" y="358" on="0"/>
        <pt x="420" y="286" on="1"/>
        <pt x="345" y="140" on="0"/>
        <pt x="260" y="34" on="0"/>
        <pt x="155" y="-16" on="0"/>
        <pt x="82" y="-16" on="1"/>
        <pt x="11" y="-16" on="0"/>
        <pt x="-33" y="2" on="1"/>
        <pt x="-33" y="193" on="1"/>
        <pt x="3" y="180" on="0"/>
        <pt x="31" y="180" on="1"/>
        <pt x="75" y="180" on="0"/>
        <pt x="137" y="234" on="0"/>
        <pt x="174" y="307" on="1"/>
        <pt x="224" y="401" on="0"/>
        <pt x="310" y="483" on="0"/>
        <pt x="362" y="500" on="1"/>
        <pt x="188" y="559" on="0"/>
        <pt x="188" y="743" on="1"/>
        <pt x="188" y="911" on="0"/>
        <pt x="431" y="1106" on="0"/>
        <pt x="643" y="1106" on="1"/>
        <pt x="1083" y="1106" on="1"/>
        <pt x="850" y="0" on="1"/>
        <pt x="616" y="0" on="1"/>
        <pt x="709" y="424" on="1"/>
      </contour>
      <contour>
        <pt x="627" y="926" on="1"/>
        <pt x="533" y="926" on="0"/>
        <pt x="424" y="830" on="0"/>
        <pt x="424" y="745" on="1"/>
        <pt x="424" y="670" on="0"/>
        <pt x="521" y="600" on="0"/>
        <pt x="604" y="600" on="1"/>
        <pt x="745" y="600" on="1"/>
        <pt x="813" y="926" on="1"/>
      </contour>
    </TTGlyph>
    <TTGlyph name="afii10098" xMin="47" yMin="0" xMax="1004" yMax="1419">
      <contour>
        <pt x="897" y="920" on="1"/>
        <pt x="477" y="920" on="1"/>
        <pt x="283" y="0" on="1"/>
        <pt x="47" y="0" on="1"/>
        <pt x="283" y="1106" on="1"/>
        <pt x="711" y="1106" on="1"/>
        <pt x="778" y="1419" on="1"/>
        <pt x="1004" y="1419" on="1"/>
      </contour>
    </TTGlyph>
    <TTGlyph name="afii10099" xMin="47" yMin="-492" xMax="1087" yMax="1556">
      <contour>
        <pt x="575" y="1382" on="1"/>
        <pt x="899" y="1382" on="1"/>
        <pt x="864" y="1219" on="1"/>
        <pt x="543" y="1219" on="1"/>
        <pt x="526" y="1145" on="1"/>
        <pt x="505" y="1033" on="0"/>
        <pt x="455" y="879" on="1"/>
        <pt x="463" y="879" on="1"/>
        <pt x="612" y="1077" on="0"/>
        <pt x="807" y="1077" on="1"/>
        <pt x="943" y="1077" on="0"/>
        <pt x="1087" y="920" on="0"/>
        <pt x="1087" y="776" on="1"/>
        <pt x="1087" y="700" on="0"/>
        <pt x="1065" y="604" on="1"/>
        <pt x="907" y="-139" on="1"/>
        <pt x="869" y="-322" on="0"/>
        <pt x="688" y="-492" on="0"/>
        <pt x="541" y="-492" on="1"/>
        <pt x="447" y="-492" on="0"/>
        <pt x="393" y="-469" on="1"/>
        <pt x="393" y="-276" on="1"/>
        <pt x="452" y="-299" on="0"/>
        <pt x="510" y="-299" on="1"/>
        <pt x="639" y="-299" on="0"/>
        <pt x="678" y="-111" on="1"/>
        <pt x="834" y="623" on="1"/>
        <pt x="852" y="702" on="0"/>
        <pt x="852" y="750" on="1"/>
        <pt x="852" y="885" on="0"/>
        <pt x="725" y="885" on="1"/>
        <pt x="613" y="885" on="0"/>
        <pt x="418" y="635" on="0"/>
        <pt x="373" y="418" on="1"/>
        <pt x="283" y="0" on="1"/>
        <pt x="47" y="0" on="1"/>
        <pt x="305" y="1219" on="1"/>
        <pt x="150" y="1219" on="1"/>
        <pt x="186" y="1382" on="1"/>
        <pt x="340" y="1382" on="1"/>
        <pt x="377" y="1556" on="1"/>
        <pt x="612" y="1556" on="1"/>
      </contour>
    </TTGlyph>
    <TTGlyph name="afii10100" xMin="37" yMin="-20" xMax="1003" yMax="1569">
      <component glyphName="afii10068" x="0" y="0" flags="0x204"/>
      <component glyphName="acute" x="6" y="0" flags="0x4"/>
    </TTGlyph>
    <TTGlyph name="afii10101" xMin="94" yMin="-20" xMax="973" yMax="1126">
      <contour>
        <pt x="506" y="-20" on="1"/>
        <pt x="309" y="-20" on="0"/>
        <pt x="94" y="194" on="0"/>
        <pt x="94" y="391" on="1"/>
        <pt x="94" y="598" on="0"/>
        <pt x="244" y="944" on="0"/>
        <pt x="505" y="1126" on="0"/>
        <pt x="676" y="1126" on="1"/>
        <pt x="840" y="1126" on="0"/>
        <pt x="973" y="1065" on="1"/>
        <pt x="903" y="881" on="1"/>
        <pt x="781" y="934" on="0"/>
        <pt x="682" y="934" on="1"/>
        <pt x="570" y="934" on="0"/>
        <pt x="406" y="783" on="0"/>
        <pt x="367" y="651" on="1"/>
        <pt x="786" y="651" on="1"/>
        <pt x="748" y="475" on="1"/>
        <pt x="334" y="475" on="1"/>
        <pt x="332" y="439" on="1"/>
        <pt x="332" y="401" on="1"/>
        <pt x="332" y="295" on="0"/>
        <pt x="438" y="170" on="0"/>
        <pt x="543" y="170" on="1"/>
        <pt x="601" y="170" on="0"/>
        <pt x="721" y="201" on="0"/>
        <pt x="811" y="246" on="1"/>
        <pt x="811" y="51" on="1"/>
        <pt x="671" y="-20" on="0"/>
      </contour>
    </TTGlyph>
    <TTGlyph name="afii10102" xMin="14" yMin="-20" xMax="881" yMax="1126">
      <component glyphName="s" x="0" y="0" flags="0x204"/>
    </TTGlyph>
    <TTGlyph name="afii10103" xMin="47" yMin="0" xMax="598" yMax="1530">
      <component glyphName="i" x="0" y="0" flags="0x204"/>
    </TTGlyph>
    <TTGlyph name="afii10104" xMin="47" yMin="0" xMax="763" yMax="1516">
      <component glyphName="dotlessi" x="0" y="0" flags="0x204"/>
      <component glyphName="dieresis" x="-284" y="0" flags="0x4"/>
    </TTGlyph>
    <TTGlyph name="afii10105" xMin="-262" yMin="-492" xMax="598" yMax="1530">
      <component glyphName="j" x="0" y="0" flags="0x204"/>
    </TTGlyph>
    <TTGlyph name="afii10106" xMin="-78" yMin="-20" xMax="1544" yMax="1120">
      <contour>
        <pt x="981" y="639" on="1"/>
        <pt x="1109" y="664" on="0"/>
        <pt x="1200" y="664" on="1"/>
        <pt x="1363" y="664" on="0"/>
        <pt x="1544" y="508" on="0"/>
        <pt x="1544" y="367" on="1"/>
        <pt x="1544" y="251" on="0"/>
        <pt x="1431" y="76" on="0"/>
        <pt x="1216" y="-20" on="0"/>
        <pt x="1067" y="-20" on="1"/>
        <pt x="878" y="-20" on="0"/>
        <pt x="690" y="148" on="0"/>
        <pt x="690" y="299" on="1"/>
        <pt x="690" y="376" on="0"/>
        <pt x="715" y="487" on="1"/>
        <pt x="807" y="922" on="1"/>
        <pt x="774" y="928" on="0"/>
        <pt x="754" y="928" on="1"/>
        <pt x="693" y="928" on="0"/>
        <pt x="611" y="868" on="0"/>
        <pt x="539" y="729" on="0"/>
        <pt x="461" y="496" on="1"/>
        <pt x="380" y="250" on="0"/>
        <pt x="274" y="71" on="0"/>
        <pt x="134" y="-18" on="0"/>
        <pt x="35" y="-18" on="1"/>
        <pt x="-27" y="-18" on="0"/>
        <pt x="-78" y="2" on="1"/>
        <pt x="-78" y="199" on="1"/>
        <pt x="-44" y="184" on="0"/>
        <pt x="-2" y="184" on="1"/>
        <pt x="46" y="184" on="0"/>
        <pt x="119" y="245" on="0"/>
        <pt x="184" y="370" on="0"/>
        <pt x="254" y="578" on="1"/>
        <pt x="330" y="802" on="0"/>
        <pt x="422" y="974" on="0"/>
        <pt x="534" y="1073" on="0"/>
        <pt x="684" y="1120" on="0"/>
        <pt x="782" y="1120" on="1"/>
        <pt x="945" y="1120" on="0"/>
        <pt x="1073" y="1075" on="1"/>
      </contour>
      <contour>
        <pt x="1128" y="487" on="1"/>
        <pt x="1050" y="487" on="0"/>
        <pt x="946" y="467" on="1"/>
        <pt x="924" y="363" on="0"/>
        <pt x="924" y="313" on="1"/>
        <pt x="924" y="156" on="0"/>
        <pt x="1094" y="156" on="1"/>
        <pt x="1193" y="156" on="0"/>
        <pt x="1311" y="257" on="0"/>
        <pt x="1311" y="344" on="1"/>
        <pt x="1311" y="418" on="0"/>
        <pt x="1222" y="487" on="0"/>
      </contour>
    </TTGlyph>
    <TTGlyph name="afii10107" xMin="53" yMin="-20" xMax="1595" yMax="1106">
      <contour>
        <pt x="1032" y="639" on="1"/>
        <pt x="1163" y="664" on="0"/>
        <pt x="1251" y="664" on="1"/>
        <pt x="1414" y="664" on="0"/>
        <pt x="1595" y="508" on="0"/>
        <pt x="1595" y="367" on="1"/>
        <pt x="1595" y="251" on="0"/>
        <pt x="1482" y="76" on="0"/>
        <pt x="1267" y="-20" on="0"/>
        <pt x="1118" y="-20" on="1"/>
        <pt x="929" y="-20" on="0"/>
        <pt x="741" y="148" on="0"/>
        <pt x="741" y="299" on="1"/>
        <pt x="741" y="362" on="0"/>
        <pt x="764" y="477" on="1"/>
        <pt x="391" y="477" on="1"/>
        <pt x="289" y="0" on="1"/>
        <pt x="53" y="0" on="1"/>
        <pt x="291" y="1106" on="1"/>
        <pt x="524" y="1106" on="1"/>
        <pt x="430" y="662" on="1"/>
        <pt x="805" y="662" on="1"/>
        <pt x="899" y="1106" on="1"/>
        <pt x="1133" y="1106" on="1"/>
      </contour>
      <contour>
        <pt x="1180" y="487" on="1"/>
        <pt x="1101" y="487" on="0"/>
        <pt x="997" y="467" on="1"/>
        <pt x="975" y="363" on="0"/>
        <pt x="975" y="313" on="1"/>
        <pt x="975" y="156" on="0"/>
        <pt x="1145" y="156" on="1"/>
        <pt x="1244" y="156" on="0"/>
        <pt x="1362" y="257" on="0"/>
        <pt x="1362" y="344" on="1"/>
        <pt x="1362" y="418" on="0"/>
        <pt x="1274" y="487" on="0"/>
      </contour>
    </TTGlyph>
    <TTGlyph name="afii10108" xMin="47" yMin="0" xMax="1087" yMax="1556">
      <component glyphName="hbar" x="0" y="0" flags="0x204"/>
    </TTGlyph>
    <TTGlyph name="afii10109" xMin="47" yMin="0" xMax="1163" yMax="1569">
      <component glyphName="afii10076" x="0" y="0" flags="0x204"/>
      <component glyphName="acute" x="100" y="0" flags="0x4"/>
    </TTGlyph>
    <TTGlyph name="afii10110" xMin="-170" yMin="-492" xMax="1106" yMax="1575">
      <component glyphName="y" x="0" y="0" flags="0x204"/>
      <component glyphName="cyrillicbreve" x="-83" y="0" flags="0x4"/>
    </TTGlyph>
    <TTGlyph name="afii10145" xMin="70" yMin="-403" xMax="1417" yMax="1462">
      <contour>
        <pt x="379" y="1462" on="1"/>
        <pt x="618" y="1462" on="1"/>
        <pt x="352" y="205" on="1"/>
        <pt x="913" y="205" on="1"/>
        <pt x="1180" y="1462" on="1"/>
        <pt x="1417" y="1462" on="1"/>
        <pt x="1108" y="0" on="1"/>
        <pt x="705" y="0" on="1"/>
        <pt x="618" y="-403" on="1"/>
        <pt x="387" y="-403" on="1"/>
        <pt x="473" y="0" on="1"/>
        <pt x="70" y="0" on="1"/>
      </contour>
    </TTGlyph>
    <TTGlyph name="afii10193" xMin="109" yMin="-492" xMax="1159" yMax="1106">
      <contour>
        <pt x="563" y="-57" on="1"/>
        <pt x="608" y="-57" on="1"/>
        <pt x="514" y="-492" on="1"/>
        <pt x="289" y="-492" on="1"/>
        <pt x="369" y="-133" on="1"/>
      </contour>
      <contour>
        <pt x="506" y="1106" on="1"/>
        <pt x="362" y="432" on="1"/>
        <pt x="346" y="356" on="0"/>
        <pt x="346" y="303" on="1"/>
        <pt x="346" y="170" on="0"/>
        <pt x="473" y="170" on="1"/>
        <pt x="585" y="170" on="0"/>
        <pt x="782" y="425" on="0"/>
        <pt x="827" y="637" on="1"/>
        <pt x="926" y="1106" on="1"/>
        <pt x="1159" y="1106" on="1"/>
        <pt x="926" y="0" on="1"/>
        <pt x="741" y="0" on="1"/>
        <pt x="762" y="205" on="1"/>
        <pt x="754" y="205" on="1"/>
        <pt x="672" y="89" on="0"/>
        <pt x="494" y="-20" on="0"/>
        <pt x="391" y="-20" on="1"/>
        <pt x="257" y="-20" on="0"/>
        <pt x="109" y="132" on="0"/>
        <pt x="109" y="274" on="1"/>
        <pt x="109" y="342" on="0"/>
        <pt x="135" y="467" on="1"/>
        <pt x="270" y="1106" on="1"/>
      </contour>
    </TTGlyph>
    <TTGlyph name="afii61248" xMin="162" yMin="-12" xMax="1448" yMax="1475">
      <contour>
        <pt x="1448" y="1462" on="1"/>
        <pt x="360" y="0" on="1"/>
        <pt x="162" y="0" on="1"/>
        <pt x="1253" y="1462" on="1"/>
      </contour>
      <contour>
        <pt x="1448" y="412" on="1"/>
        <pt x="1448" y="218" on="0"/>
        <pt x="1253" y="-12" on="0"/>
        <pt x="1087" y="-12" on="1"/>
        <pt x="964" y="-12" on="0"/>
        <pt x="827" y="129" on="0"/>
        <pt x="827" y="252" on="1"/>
        <pt x="827" y="377" on="0"/>
        <pt x="914" y="577" on="0"/>
        <pt x="1077" y="688" on="0"/>
        <pt x="1186" y="688" on="1"/>
        <pt x="1310" y="688" on="0"/>
        <pt x="1448" y="541" on="0"/>
      </contour>
      <contour>
        <pt x="1174" y="555" on="1"/>
        <pt x="1097" y="555" on="0"/>
        <pt x="997" y="379" on="0"/>
        <pt x="997" y="256" on="1"/>
        <pt x="997" y="119" on="0"/>
        <pt x="1102" y="119" on="1"/>
        <pt x="1154" y="119" on="0"/>
        <pt x="1231" y="199" on="0"/>
        <pt x="1276" y="337" on="0"/>
        <pt x="1276" y="416" on="1"/>
        <pt x="1276" y="555" on="0"/>
      </contour>
      <contour>
        <pt x="471" y="772" on="1"/>
        <pt x="344" y="772" on="0"/>
        <pt x="207" y="915" on="0"/>
        <pt x="207" y="1040" on="1"/>
        <pt x="207" y="1162" on="0"/>
        <pt x="301" y="1363" on="0"/>
        <pt x="474" y="1475" on="0"/>
        <pt x="588" y="1475" on="1"/>
        <pt x="676" y="1475" on="0"/>
        <pt x="774" y="1436" on="1"/>
        <pt x="729" y="1309" on="1"/>
        <pt x="651" y="1341" on="0"/>
        <pt x="586" y="1341" on="1"/>
        <pt x="526" y="1341" on="0"/>
        <pt x="431" y="1262" on="0"/>
        <pt x="379" y="1127" on="0"/>
        <pt x="379" y="1051" on="1"/>
        <pt x="379" y="905" on="0"/>
        <pt x="500" y="905" on="1"/>
        <pt x="547" y="905" on="0"/>
        <pt x="616" y="929" on="0"/>
        <pt x="653" y="946" on="1"/>
        <pt x="653" y="813" on="1"/>
        <pt x="573" y="772" on="0"/>
      </contour>
    </TTGlyph>
    <TTGlyph name="afii61289" xMin="100" yMin="-20" xMax="932" yMax="1481">
      <contour>
        <pt x="639" y="150" on="1"/>
        <pt x="703" y="150" on="0"/>
        <pt x="780" y="255" on="0"/>
        <pt x="786" y="356" on="1"/>
        <pt x="932" y="356" on="1"/>
        <pt x="923" y="162" on="0"/>
        <pt x="764" y="-20" on="0"/>
        <pt x="614" y="-20" on="1"/>
        <pt x="458" y="-20" on="0"/>
        <pt x="289" y="174" on="0"/>
        <pt x="289" y="356" on="1"/>
        <pt x="289" y="543" on="1"/>
        <pt x="205" y="516" on="0"/>
        <pt x="100" y="489" on="1"/>
        <pt x="100" y="643" on="1"/>
        <pt x="162" y="658" on="0"/>
        <pt x="289" y="698" on="1"/>
        <pt x="289" y="1157" on="1"/>
        <pt x="289" y="1318" on="0"/>
        <pt x="447" y="1481" on="0"/>
        <pt x="600" y="1481" on="1"/>
        <pt x="729" y="1481" on="0"/>
        <pt x="877" y="1314" on="0"/>
        <pt x="877" y="1169" on="1"/>
        <pt x="877" y="995" on="0"/>
        <pt x="700" y="733" on="0"/>
        <pt x="510" y="637" on="1"/>
        <pt x="510" y="354" on="1"/>
        <pt x="510" y="253" on="0"/>
        <pt x="578" y="150" on="0"/>
      </contour>
      <contour>
        <pt x="688" y="1163" on="1"/>
        <pt x="688" y="1331" on="0"/>
        <pt x="600" y="1331" on="1"/>
        <pt x="554" y="1331" on="0"/>
        <pt x="510" y="1258" on="0"/>
        <pt x="510" y="1163" on="1"/>
        <pt x="510" y="803" on="1"/>
        <pt x="604" y="858" on="0"/>
        <pt x="688" y="1031" on="0"/>
      </contour>
    </TTGlyph>
    <TTGlyph name="afii61352" xMin="41" yMin="0" xMax="1909" yMax="1462">
      <contour>
        <pt x="1034" y="0" on="1"/>
        <pt x="788" y="0" on="1"/>
        <pt x="481" y="1139" on="1"/>
        <pt x="442" y="902" on="0"/>
        <pt x="406" y="721" on="1"/>
        <pt x="254" y="0" on="1"/>
        <pt x="41" y="0" on="1"/>
        <pt x="350" y="1462" on="1"/>
        <pt x="598" y="1462" on="1"/>
        <pt x="903" y="332" on="1"/>
        <pt x="918" y="418" on="1"/>
        <pt x="954" y="632" on="0"/>
        <pt x="977" y="733" on="1"/>
        <pt x="1133" y="1462" on="1"/>
        <pt x="1343" y="1462" on="1"/>
      </contour>
      <contour>
        <pt x="1214" y="0" on="1"/>
        <pt x="1249" y="164" on="1"/>
        <pt x="1778" y="164" on="1"/>
        <pt x="1743" y="0" on="1"/>
      </contour>
      <contour>
        <pt x="1909" y="702" on="1"/>
        <pt x="1909" y="586" on="0"/>
        <pt x="1822" y="389" on="0"/>
        <pt x="1662" y="274" on="0"/>
        <pt x="1550" y="274" on="1"/>
        <pt x="1429" y="274" on="0"/>
        <pt x="1288" y="414" on="0"/>
        <pt x="1288" y="545" on="1"/>
        <pt x="1288" y="666" on="0"/>
        <pt x="1376" y="867" on="0"/>
        <pt x="1540" y="983" on="0"/>
        <pt x="1649" y="983" on="1"/>
        <pt x="1769" y="983" on="0"/>
        <pt x="1909" y="829" on="0"/>
      </contour>
      <contour>
        <pt x="1638" y="842" on="1"/>
        <pt x="1585" y="842" on="0"/>
        <pt x="1505" y="756" on="0"/>
        <pt x="1460" y="617" on="0"/>
        <pt x="1460" y="545" on="1"/>
        <pt x="1460" y="414" on="0"/>
        <pt x="1561" y="414" on="1"/>
        <pt x="1615" y="414" on="0"/>
        <pt x="1693" y="495" on="0"/>
        <pt x="1739" y="632" on="0"/>
        <pt x="1739" y="709" on="1"/>
        <pt x="1739" y="842" on="0"/>
      </contour>
    </TTGlyph>
    <TTGlyph name="agrave" xMin="94" yMin="-20" xMax="1151" yMax="1569">
      <component glyphName="a" x="0" y="0" flags="0x204"/>
      <component glyphName="grave" x="-71" y="0" flags="0x4"/>
    </TTGlyph>
    <TTGlyph name="alpha" xMin="94" yMin="-20" xMax="1200" yMax="1126">
      <contour>
        <pt x="623" y="1126" on="1"/>
        <pt x="812" y="1126" on="0"/>
        <pt x="897" y="946" on="1"/>
        <pt x="905" y="946" on="1"/>
        <pt x="925" y="985" on="1"/>
        <pt x="967" y="1067" on="0"/>
        <pt x="1006" y="1106" on="1"/>
        <pt x="1200" y="1106" on="1"/>
        <pt x="1107" y="919" on="0"/>
        <pt x="1059" y="719" on="1"/>
        <pt x="979" y="375" on="1"/>
        <pt x="963" y="307" on="0"/>
        <pt x="963" y="244" on="1"/>
        <pt x="963" y="210" on="0"/>
        <pt x="997" y="174" on="0"/>
        <pt x="1026" y="174" on="1"/>
        <pt x="1054" y="174" on="0"/>
        <pt x="1092" y="186" on="1"/>
        <pt x="1092" y="8" on="1"/>
        <pt x="1030" y="-20" on="0"/>
        <pt x="948" y="-20" on="1"/>
        <pt x="756" y="-20" on="0"/>
        <pt x="735" y="166" on="1"/>
        <pt x="729" y="166" on="1"/>
        <pt x="645" y="64" on="0"/>
        <pt x="488" y="-20" on="0"/>
        <pt x="395" y="-20" on="1"/>
        <pt x="253" y="-20" on="0"/>
        <pt x="94" y="185" on="0"/>
        <pt x="94" y="367" on="1"/>
        <pt x="94" y="578" on="0"/>
        <pt x="230" y="929" on="0"/>
        <pt x="472" y="1126" on="0"/>
      </contour>
      <contour>
        <pt x="487" y="170" on="1"/>
        <pt x="571" y="170" on="0"/>
        <pt x="724" y="337" on="0"/>
        <pt x="819" y="605" on="0"/>
        <pt x="819" y="733" on="1"/>
        <pt x="819" y="824" on="0"/>
        <pt x="732" y="934" on="0"/>
        <pt x="653" y="934" on="1"/>
        <pt x="567" y="934" on="0"/>
        <pt x="420" y="784" on="0"/>
        <pt x="332" y="526" on="0"/>
        <pt x="332" y="379" on="1"/>
        <pt x="332" y="170" on="0"/>
      </contour>
    </TTGlyph>
    <TTGlyph name="alphatonos" xMin="94" yMin="-20" xMax="1200" yMax="1640">
      <component glyphName="alpha" x="0" y="0" flags="0x204"/>
      <component glyphName="tonos" x="39" y="0" flags="0x4"/>
    </TTGlyph>
    <TTGlyph name="amacron" xMin="94" yMin="-20" xMax="1151" yMax="1417">
      <component glyphName="a" x="0" y="0" flags="0x204"/>
      <component glyphName="macron" x="35" y="0" flags="0x4"/>
    </TTGlyph>
    <TTGlyph name="ampersand" xMin="66" yMin="-20" xMax="1370" yMax="1485">
      <contour>
        <pt x="748" y="1298" on="1"/>
        <pt x="661" y="1298" on="0"/>
        <pt x="567" y="1190" on="0"/>
        <pt x="567" y="1102" on="1"/>
        <pt x="567" y="993" on="0"/>
        <pt x="629" y="901" on="1"/>
        <pt x="776" y="976" on="0"/>
        <pt x="881" y="1093" on="0"/>
        <pt x="881" y="1161" on="1"/>
        <pt x="881" y="1227" on="0"/>
        <pt x="809" y="1298" on="0"/>
      </contour>
      <contour>
        <pt x="508" y="176" on="1"/>
        <pt x="585" y="176" on="0"/>
        <pt x="725" y="230" on="0"/>
        <pt x="799" y="285" on="1"/>
        <pt x="535" y="666" on="1"/>
        <pt x="402" y="592" on="0"/>
        <pt x="305" y="457" on="0"/>
        <pt x="305" y="371" on="1"/>
        <pt x="305" y="285" on="0"/>
        <pt x="417" y="176" on="0"/>
      </contour>
      <contour>
        <pt x="66" y="350" on="1"/>
        <pt x="66" y="497" on="0"/>
        <pt x="237" y="711" on="0"/>
        <pt x="438" y="809" on="1"/>
        <pt x="350" y="960" on="0"/>
        <pt x="350" y="1092" on="1"/>
        <pt x="350" y="1272" on="0"/>
        <pt x="575" y="1485" on="0"/>
        <pt x="760" y="1485" on="1"/>
        <pt x="920" y="1485" on="0"/>
        <pt x="1104" y="1323" on="0"/>
        <pt x="1104" y="1186" on="1"/>
        <pt x="1104" y="1057" on="0"/>
        <pt x="925" y="855" on="0"/>
        <pt x="721" y="764" on="1"/>
        <pt x="956" y="438" on="1"/>
        <pt x="1065" y="550" on="0"/>
        <pt x="1137" y="733" on="1"/>
        <pt x="1370" y="733" on="1"/>
        <pt x="1257" y="463" on="0"/>
        <pt x="1073" y="279" on="1"/>
        <pt x="1278" y="0" on="1"/>
        <pt x="1001" y="0" on="1"/>
        <pt x="907" y="131" on="1"/>
        <pt x="801" y="51" on="0"/>
        <pt x="591" y="-20" on="0"/>
        <pt x="467" y="-20" on="1"/>
        <pt x="277" y="-20" on="0"/>
        <pt x="66" y="175" on="0"/>
      </contour>
    </TTGlyph>
    <TTGlyph name="anoteleia" xMin="150" yMin="569" xMax="451" yMax="874">
      <component glyphName="period" x="117" y="598" flags="0x4"/>
    </TTGlyph>
    <TTGlyph name="aogonek" xMin="94" yMin="-467" xMax="1151" yMax="1126">
      <component glyphName="a" x="0" y="0" flags="0x204"/>
      <component glyphName="ogonek" x="676" y="0" flags="0x4"/>
    </TTGlyph>
    <TTGlyph name="approxequal" xMin="111" yMin="377" xMax="1067" yMax="1073">
      <contour>
        <pt x="344" y="893" on="1"/>
        <pt x="293" y="893" on="0"/>
        <pt x="171" y="831" on="0"/>
        <pt x="111" y="772" on="1"/>
        <pt x="111" y="963" on="1"/>
        <pt x="213" y="1071" on="0"/>
        <pt x="360" y="1071" on="1"/>
        <pt x="424" y="1071" on="0"/>
        <pt x="533" y="1047" on="0"/>
        <pt x="625" y="1008" on="1"/>
        <pt x="706" y="973" on="0"/>
        <pt x="790" y="952" on="0"/>
        <pt x="834" y="952" on="1"/>
        <pt x="887" y="952" on="0"/>
        <pt x="1012" y="1017" on="0"/>
        <pt x="1067" y="1073" on="1"/>
        <pt x="1067" y="883" on="1"/>
        <pt x="964" y="772" on="0"/>
        <pt x="817" y="772" on="1"/>
        <pt x="750" y="772" on="0"/>
        <pt x="640" y="802" on="0"/>
        <pt x="555" y="838" on="1"/>
        <pt x="479" y="870" on="0"/>
        <pt x="392" y="893" on="0"/>
      </contour>
      <contour>
        <pt x="344" y="498" on="1"/>
        <pt x="290" y="498" on="0"/>
        <pt x="163" y="430" on="0"/>
        <pt x="111" y="377" on="1"/>
        <pt x="111" y="567" on="1"/>
        <pt x="212" y="676" on="0"/>
        <pt x="360" y="676" on="1"/>
        <pt x="426" y="676" on="0"/>
        <pt x="534" y="649" on="0"/>
        <pt x="625" y="612" on="1"/>
        <pt x="695" y="582" on="0"/>
        <pt x="785" y="557" on="0"/>
        <pt x="834" y="557" on="1"/>
        <pt x="885" y="557" on="0"/>
        <pt x="1012" y="621" on="0"/>
        <pt x="1067" y="678" on="1"/>
        <pt x="1067" y="487" on="1"/>
        <pt x="965" y="377" on="0"/>
        <pt x="817" y="377" on="1"/>
        <pt x="749" y="377" on="0"/>
        <pt x="631" y="409" on="0"/>
        <pt x="555" y="442" on="1"/>
        <pt x="468" y="479" on="0"/>
        <pt x="388" y="498" on="0"/>
      </contour>
    </TTGlyph>
    <TTGlyph name="aring" xMin="94" yMin="-20" xMax="1151" yMax="1690">
      <component glyphName="a" x="0" y="0" flags="0x204"/>
      <component glyphName="ring" x="-24" y="0" flags="0x4"/>
    </TTGlyph>
    <TTGlyph name="aringacute" xMin="94" yMin="-20" xMax="1165" yMax="1962">
      <contour>
        <pt x="670" y="1741" on="1"/>
        <pt x="718" y="1782" on="0"/>
        <pt x="852" y="1918" on="0"/>
        <pt x="889" y="1962" on="1"/>
        <pt x="1165" y="1962" on="1"/>
        <pt x="1165" y="1948" on="1"/>
        <pt x="1123" y="1907" on="0"/>
        <pt x="931" y="1775" on="0"/>
        <pt x="836" y="1722" on="1"/>
        <pt x="670" y="1722" on="1"/>
      </contour>
      <contour>
        <pt x="969" y="1423" on="1"/>
        <pt x="969" y="1321" on="0"/>
        <pt x="839" y="1198" on="0"/>
        <pt x="731" y="1198" on="1"/>
        <pt x="625" y="1198" on="0"/>
        <pt x="498" y="1319" on="0"/>
        <pt x="498" y="1421" on="1"/>
        <pt x="498" y="1524" on="0"/>
        <pt x="628" y="1647" on="0"/>
        <pt x="731" y="1647" on="1"/>
        <pt x="835" y="1647" on="0"/>
        <pt x="969" y="1526" on="0"/>
      </contour>
      <contour>
        <pt x="838" y="1421" on="1"/>
        <pt x="838" y="1471" on="0"/>
        <pt x="778" y="1528" on="0"/>
        <pt x="731" y="1528" on="1"/>
        <pt x="685" y="1528" on="0"/>
        <pt x="627" y="1471" on="0"/>
        <pt x="627" y="1421" on="1"/>
        <pt x="627" y="1373" on="0"/>
        <pt x="679" y="1317" on="0"/>
        <pt x="731" y="1317" on="1"/>
        <pt x="778" y="1317" on="0"/>
        <pt x="838" y="1373" on="0"/>
      </contour>
      <contour>
        <pt x="399" y="-20" on="1"/>
        <pt x="258" y="-20" on="0"/>
        <pt x="94" y="183" on="0"/>
        <pt x="94" y="367" on="1"/>
        <pt x="94" y="569" on="0"/>
        <pt x="233" y="921" on="0"/>
        <pt x="477" y="1126" on="0"/>
        <pt x="623" y="1126" on="1"/>
        <pt x="720" y="1126" on="0"/>
        <pt x="860" y="1035" on="0"/>
        <pt x="899" y="948" on="1"/>
        <pt x="909" y="948" on="1"/>
        <pt x="971" y="1106" on="1"/>
        <pt x="1151" y="1106" on="1"/>
        <pt x="915" y="0" on="1"/>
        <pt x="733" y="0" on="1"/>
        <pt x="754" y="176" on="1"/>
        <pt x="748" y="176" on="1"/>
        <pt x="590" y="-20" on="0"/>
      </contour>
      <contour>
        <pt x="485" y="170" on="1"/>
        <pt x="567" y="170" on="0"/>
        <pt x="725" y="325" on="0"/>
        <pt x="827" y="585" on="0"/>
        <pt x="827" y="739" on="1"/>
        <pt x="827" y="827" on="0"/>
        <pt x="733" y="934" on="0"/>
        <pt x="657" y="934" on="1"/>
        <pt x="572" y="934" on="0"/>
        <pt x="422" y="780" on="0"/>
        <pt x="332" y="515" on="0"/>
        <pt x="332" y="373" on="1"/>
        <pt x="332" y="271" on="0"/>
        <pt x="413" y="170" on="0"/>
      </contour>
    </TTGlyph>
    <TTGlyph name="asciicircum" xMin="37" yMin="537" xMax="1044" yMax="1470">
      <contour>
        <pt x="37" y="537" on="1"/>
        <pt x="645" y="1470" on="1"/>
        <pt x="772" y="1470" on="1"/>
        <pt x="1044" y="537" on="1"/>
        <pt x="860" y="537" on="1"/>
        <pt x="672" y="1227" on="1"/>
        <pt x="238" y="537" on="1"/>
      </contour>
    </TTGlyph>
    <TTGlyph name="asciitilde" xMin="111" yMin="571" xMax="1067" yMax="872">
      <contour>
        <pt x="344" y="692" on="1"/>
        <pt x="293" y="692" on="0"/>
        <pt x="171" y="630" on="0"/>
        <pt x="111" y="571" on="1"/>
        <pt x="111" y="762" on="1"/>
        <pt x="211" y="870" on="0"/>
        <pt x="360" y="870" on="1"/>
        <pt x="424" y="870" on="0"/>
        <pt x="533" y="846" on="0"/>
        <pt x="625" y="807" on="1"/>
        <pt x="695" y="777" on="0"/>
        <pt x="785" y="752" on="0"/>
        <pt x="834" y="752" on="1"/>
        <pt x="884" y="752" on="0"/>
        <pt x="1009" y="814" on="0"/>
        <pt x="1067" y="872" on="1"/>
        <pt x="1067" y="682" on="1"/>
        <pt x="964" y="571" on="0"/>
        <pt x="817" y="571" on="1"/>
        <pt x="754" y="571" on="0"/>
        <pt x="632" y="604" on="0"/>
        <pt x="555" y="637" on="1"/>
        <pt x="479" y="669" on="0"/>
        <pt x="392" y="692" on="0"/>
      </contour>
    </TTGlyph>
    <TTGlyph name="asterisk" xMin="193" yMin="598" xMax="1155" yMax="1567">
      <contour>
        <pt x="868" y="1524" on="1"/>
        <pt x="752" y="1157" on="1"/>
        <pt x="1155" y="1180" on="1"/>
        <pt x="1143" y="975" on="1"/>
        <pt x="776" y="1020" on="1"/>
        <pt x="946" y="659" on="1"/>
        <pt x="741" y="598" on="1"/>
        <pt x="639" y="969" on="1"/>
        <pt x="412" y="657" on="1"/>
        <pt x="250" y="801" on="1"/>
        <pt x="543" y="1067" on="1"/>
        <pt x="193" y="1167" on="1"/>
        <pt x="264" y="1362" on="1"/>
        <pt x="618" y="1184" on="1"/>
        <pt x="655" y="1567" on="1"/>
      </contour>
    </TTGlyph>
    <TTGlyph name="at" xMin="100" yMin="-186" xMax="1706" yMax="1460">
      <contour>
        <pt x="1706" y="846" on="1"/>
        <pt x="1706" y="670" on="0"/>
        <pt x="1587" y="377" on="0"/>
        <pt x="1373" y="211" on="0"/>
        <pt x="1241" y="211" on="1"/>
        <pt x="1143" y="211" on="0"/>
        <pt x="1038" y="303" on="0"/>
        <pt x="1026" y="377" on="1"/>
        <pt x="1020" y="377" on="1"/>
        <pt x="919" y="211" on="0"/>
        <pt x="743" y="211" on="1"/>
        <pt x="620" y="211" on="0"/>
        <pt x="487" y="368" on="0"/>
        <pt x="487" y="508" on="1"/>
        <pt x="487" y="659" on="0"/>
        <pt x="622" y="916" on="0"/>
        <pt x="863" y="1065" on="0"/>
        <pt x="1006" y="1065" on="1"/>
        <pt x="1058" y="1065" on="0"/>
        <pt x="1143" y="1055" on="0"/>
        <pt x="1217" y="1039" on="0"/>
        <pt x="1309" y="1008" on="1"/>
        <pt x="1208" y="616" on="1"/>
        <pt x="1178" y="502" on="0"/>
        <pt x="1178" y="457" on="1"/>
        <pt x="1178" y="365" on="0"/>
        <pt x="1257" y="365" on="1"/>
        <pt x="1329" y="365" on="0"/>
        <pt x="1453" y="498" on="0"/>
        <pt x="1524" y="714" on="0"/>
        <pt x="1524" y="836" on="1"/>
        <pt x="1524" y="1064" on="0"/>
        <pt x="1267" y="1303" on="0"/>
        <pt x="1032" y="1303" on="1"/>
        <pt x="818" y="1303" on="0"/>
        <pt x="476" y="1104" on="0"/>
        <pt x="285" y="740" on="0"/>
        <pt x="285" y="516" on="1"/>
        <pt x="285" y="257" on="0"/>
        <pt x="566" y="-27" on="0"/>
        <pt x="817" y="-27" on="1"/>
        <pt x="1017" y="-27" on="0"/>
        <pt x="1247" y="59" on="1"/>
        <pt x="1247" y="-96" on="1"/>
        <pt x="1028" y="-186" on="0"/>
        <pt x="793" y="-186" on="1"/>
        <pt x="583" y="-186" on="0"/>
        <pt x="269" y="-19" on="0"/>
        <pt x="100" y="293" on="0"/>
        <pt x="100" y="502" on="1"/>
        <pt x="100" y="772" on="0"/>
        <pt x="345" y="1210" on="0"/>
        <pt x="786" y="1460" on="0"/>
        <pt x="1059" y="1460" on="1"/>
        <pt x="1259" y="1460" on="0"/>
        <pt x="1551" y="1311" on="0"/>
        <pt x="1706" y="1031" on="0"/>
      </contour>
      <contour>
        <pt x="989" y="913" on="1"/>
        <pt x="903" y="913" on="0"/>
        <pt x="758" y="806" on="0"/>
        <pt x="676" y="625" on="0"/>
        <pt x="676" y="522" on="1"/>
        <pt x="676" y="365" on="0"/>
        <pt x="788" y="365" on="1"/>
        <pt x="870" y="365" on="0"/>
        <pt x="989" y="509" on="0"/>
        <pt x="1030" y="657" on="1"/>
        <pt x="1094" y="897" on="1"/>
        <pt x="1041" y="913" on="0"/>
      </contour>
    </TTGlyph>
    <TTGlyph name="atilde" xMin="94" yMin="-20" xMax="1151" yMax="1526">
      <component glyphName="a" x="0" y="0" flags="0x204"/>
      <component glyphName="tilde" x="18" y="0" flags="0x4"/>
    </TTGlyph>
    <TTGlyph name="b" xMin="47" yMin="-20" xMax="1104" yMax="1556">
      <contour>
        <pt x="578" y="-20" on="1"/>
        <pt x="480" y="-20" on="0"/>
        <pt x="339" y="70" on="0"/>
        <pt x="299" y="156" on="1"/>
        <pt x="289" y="156" on="1"/>
        <pt x="225" y="0" on="1"/>
        <pt x="47" y="0" on="1"/>
        <pt x="377" y="1556" on="1"/>
        <pt x="612" y="1556" on="1"/>
        <pt x="541" y="1223" on="1"/>
        <pt x="528" y="1160" on="0"/>
        <pt x="478" y="973" on="0"/>
        <pt x="463" y="926" on="1"/>
        <pt x="471" y="926" on="1"/>
        <pt x="561" y="1039" on="0"/>
        <pt x="711" y="1126" on="0"/>
        <pt x="797" y="1126" on="1"/>
        <pt x="942" y="1126" on="0"/>
        <pt x="1104" y="919" on="0"/>
        <pt x="1104" y="737" on="1"/>
        <pt x="1104" y="535" on="0"/>
        <pt x="965" y="180" on="0"/>
        <pt x="723" y="-20" on="0"/>
      </contour>
      <contour>
        <pt x="711" y="934" on="1"/>
        <pt x="630" y="934" on="0"/>
        <pt x="468" y="774" on="0"/>
        <pt x="369" y="513" on="0"/>
        <pt x="369" y="373" on="1"/>
        <pt x="369" y="277" on="0"/>
        <pt x="462" y="170" on="0"/>
        <pt x="547" y="170" on="1"/>
        <pt x="632" y="170" on="0"/>
        <pt x="780" y="327" on="0"/>
        <pt x="866" y="590" on="0"/>
        <pt x="866" y="733" on="1"/>
        <pt x="866" y="934" on="0"/>
      </contour>
    </TTGlyph>
    <TTGlyph name="backslash" xMin="221" yMin="0" xMax="647" yMax="1462">
      <contour>
        <pt x="428" y="1462" on="1"/>
        <pt x="647" y="0" on="1"/>
        <pt x="438" y="0" on="1"/>
        <pt x="221" y="1462" on="1"/>
      </contour>
    </TTGlyph>
    <TTGlyph name="bar" xMin="498" yMin="-481" xMax="676" yMax="1552">
      <contour>
        <pt x="498" y="1552" on="1"/>
        <pt x="676" y="1552" on="1"/>
        <pt x="676" y="-481" on="1"/>
        <pt x="498" y="-481" on="1"/>
      </contour>
    </TTGlyph>
    <TTGlyph name="beta" xMin="-55" yMin="-492" xMax="1190" yMax="1567">
      <contour>
        <pt x="795" y="1567" on="1"/>
        <pt x="979" y="1567" on="0"/>
        <pt x="1190" y="1383" on="0"/>
        <pt x="1190" y="1219" on="1"/>
        <pt x="1190" y="883" on="0"/>
        <pt x="840" y="813" on="1"/>
        <pt x="965" y="786" on="0"/>
        <pt x="1100" y="612" on="0"/>
        <pt x="1100" y="479" on="1"/>
        <pt x="1100" y="336" on="0"/>
        <pt x="981" y="109" on="0"/>
        <pt x="759" y="-20" on="0"/>
        <pt x="604" y="-20" on="1"/>
        <pt x="523" y="-20" on="0"/>
        <pt x="381" y="19" on="0"/>
        <pt x="299" y="74" on="1"/>
        <pt x="180" y="-492" on="1"/>
        <pt x="-55" y="-492" on="1"/>
        <pt x="285" y="1116" on="1"/>
        <pt x="335" y="1352" on="0"/>
        <pt x="587" y="1567" on="0"/>
      </contour>
      <contour>
        <pt x="776" y="1378" on="1"/>
        <pt x="676" y="1378" on="0"/>
        <pt x="553" y="1244" on="0"/>
        <pt x="518" y="1087" on="1"/>
        <pt x="336" y="244" on="1"/>
        <pt x="375" y="212" on="0"/>
        <pt x="502" y="170" on="0"/>
        <pt x="569" y="170" on="1"/>
        <pt x="702" y="170" on="0"/>
        <pt x="860" y="341" on="0"/>
        <pt x="860" y="479" on="1"/>
        <pt x="860" y="715" on="0"/>
        <pt x="608" y="715" on="1"/>
        <pt x="551" y="715" on="1"/>
        <pt x="592" y="905" on="1"/>
        <pt x="657" y="905" on="1"/>
        <pt x="799" y="905" on="0"/>
        <pt x="950" y="1057" on="0"/>
        <pt x="950" y="1198" on="1"/>
        <pt x="950" y="1278" on="0"/>
        <pt x="862" y="1378" on="0"/>
      </contour>
    </TTGlyph>
    <TTGlyph name="braceleft" xMin="8" yMin="-324" xMax="842" yMax="1462">
      <contour>
        <pt x="457" y="-324" on="1"/>
        <pt x="141" y="-324" on="0"/>
        <pt x="141" y="-88" on="1"/>
        <pt x="141" y="-27" on="0"/>
        <pt x="158" y="45" on="1"/>
        <pt x="203" y="246" on="1"/>
        <pt x="217" y="311" on="0"/>
        <pt x="217" y="344" on="1"/>
        <pt x="217" y="485" on="0"/>
        <pt x="8" y="485" on="1"/>
        <pt x="47" y="672" on="1"/>
        <pt x="167" y="672" on="0"/>
        <pt x="310" y="757" on="0"/>
        <pt x="332" y="858" on="1"/>
        <pt x="391" y="1133" on="1"/>
        <pt x="419" y="1267" on="0"/>
        <pt x="509" y="1402" on="0"/>
        <pt x="659" y="1462" on="0"/>
        <pt x="782" y="1462" on="1"/>
        <pt x="842" y="1462" on="1"/>
        <pt x="801" y="1278" on="1"/>
        <pt x="705" y="1278" on="0"/>
        <pt x="618" y="1210" on="0"/>
        <pt x="600" y="1128" on="1"/>
        <pt x="530" y="819" on="1"/>
        <pt x="506" y="711" on="0"/>
        <pt x="380" y="586" on="0"/>
        <pt x="264" y="569" on="1"/>
        <pt x="264" y="563" on="1"/>
        <pt x="424" y="518" on="0"/>
        <pt x="424" y="348" on="1"/>
        <pt x="424" y="310" on="0"/>
        <pt x="408" y="227" on="1"/>
        <pt x="365" y="33" on="1"/>
        <pt x="354" y="-15" on="0"/>
        <pt x="354" y="-41" on="1"/>
        <pt x="354" y="-92" on="0"/>
        <pt x="419" y="-139" on="0"/>
        <pt x="496" y="-139" on="1"/>
        <pt x="496" y="-324" on="1"/>
      </contour>
    </TTGlyph>
    <TTGlyph name="braceright" xMin="-88" yMin="-324" xMax="721" yMax="1462">
      <contour>
        <pt x="270" y="1462" on="1"/>
        <pt x="588" y="1462" on="0"/>
        <pt x="588" y="1227" on="1"/>
        <pt x="588" y="1166" on="0"/>
        <pt x="571" y="1094" on="1"/>
        <pt x="526" y="891" on="1"/>
        <pt x="512" y="826" on="0"/>
        <pt x="512" y="793" on="1"/>
        <pt x="512" y="651" on="0"/>
        <pt x="721" y="651" on="1"/>
        <pt x="682" y="465" on="1"/>
        <pt x="561" y="465" on="0"/>
        <pt x="419" y="381" on="0"/>
        <pt x="397" y="281" on="1"/>
        <pt x="334" y="-25" on="1"/>
        <pt x="300" y="-190" on="0"/>
        <pt x="121" y="-324" on="0"/>
        <pt x="-59" y="-324" on="1"/>
        <pt x="-88" y="-324" on="1"/>
        <pt x="-88" y="-141" on="1"/>
        <pt x="18" y="-139" on="0"/>
        <pt x="111" y="-70" on="0"/>
        <pt x="129" y="10" on="1"/>
        <pt x="199" y="319" on="1"/>
        <pt x="223" y="428" on="0"/>
        <pt x="349" y="550" on="0"/>
        <pt x="465" y="567" on="1"/>
        <pt x="465" y="573" on="1"/>
        <pt x="307" y="621" on="0"/>
        <pt x="307" y="788" on="1"/>
        <pt x="307" y="843" on="0"/>
        <pt x="324" y="909" on="1"/>
        <pt x="367" y="1106" on="1"/>
        <pt x="377" y="1150" on="0"/>
        <pt x="377" y="1180" on="1"/>
        <pt x="377" y="1238" on="0"/>
        <pt x="291" y="1278" on="0"/>
        <pt x="213" y="1278" on="1"/>
        <pt x="248" y="1462" on="1"/>
      </contour>
    </TTGlyph>
    <TTGlyph name="bracketleft" xMin="-27" yMin="-324" xMax="784" yMax="1462">
      <contour>
        <pt x="403" y="-324" on="1"/>
        <pt x="-27" y="-324" on="1"/>
        <pt x="354" y="1462" on="1"/>
        <pt x="784" y="1462" on="1"/>
        <pt x="745" y="1286" on="1"/>
        <pt x="524" y="1286" on="1"/>
        <pt x="221" y="-147" on="1"/>
        <pt x="442" y="-147" on="1"/>
      </contour>
    </TTGlyph>
    <TTGlyph name="bracketright" xMin="-143" yMin="-324" xMax="666" yMax="1462">
      <contour>
        <pt x="-106" y="-147" on="1"/>
        <pt x="113" y="-147" on="1"/>
        <pt x="418" y="1286" on="1"/>
        <pt x="197" y="1286" on="1"/>
        <pt x="236" y="1462" on="1"/>
        <pt x="666" y="1462" on="1"/>
        <pt x="285" y="-324" on="1"/>
        <pt x="-143" y="-324" on="1"/>
      </contour>
    </TTGlyph>
    <TTGlyph name="breve" xMin="453" yMin="1241" xMax="1098" yMax="1544">
      <contour>
        <pt x="1098" y="1544" on="1"/>
        <pt x="1067" y="1389" on="0"/>
        <pt x="889" y="1241" on="0"/>
        <pt x="737" y="1241" on="1"/>
        <pt x="604" y="1241" on="0"/>
        <pt x="453" y="1373" on="0"/>
        <pt x="453" y="1489" on="1"/>
        <pt x="453" y="1525" on="0"/>
        <pt x="457" y="1544" on="1"/>
        <pt x="592" y="1544" on="1"/>
        <pt x="592" y="1481" on="0"/>
        <pt x="665" y="1419" on="0"/>
        <pt x="752" y="1419" on="1"/>
        <pt x="840" y="1419" on="0"/>
        <pt x="935" y="1481" on="0"/>
        <pt x="950" y="1544" on="1"/>
      </contour>
    </TTGlyph>
    <TTGlyph name="breveacutecomb" xMin="-760" yMin="1241" xMax="-109" yMax="1729">
      <contour>
        <pt x="-473" y="1241" on="1"/>
        <pt x="-608" y="1241" on="0"/>
        <pt x="-760" y="1389" on="0"/>
        <pt x="-760" y="1520" on="1"/>
        <pt x="-758" y="1538" on="1"/>
        <pt x="-633" y="1538" on="1"/>
        <pt x="-623" y="1461" on="0"/>
        <pt x="-536" y="1393" on="0"/>
        <pt x="-459" y="1393" on="1"/>
        <pt x="-301" y="1393" on="0"/>
        <pt x="-240" y="1538" on="1"/>
        <pt x="-109" y="1538" on="1"/>
        <pt x="-144" y="1395" on="0"/>
        <pt x="-328" y="1241" on="0"/>
      </contour>
      <contour>
        <pt x="-520" y="1522" on="1"/>
        <pt x="-426" y="1610" on="0"/>
        <pt x="-350" y="1729" on="1"/>
        <pt x="-156" y="1729" on="1"/>
        <pt x="-156" y="1712" on="1"/>
        <pt x="-187" y="1678" on="0"/>
        <pt x="-356" y="1540" on="0"/>
        <pt x="-420" y="1501" on="1"/>
        <pt x="-520" y="1501" on="1"/>
      </contour>
    </TTGlyph>
    <TTGlyph name="brevegravecomb" xMin="-760" yMin="1241" xMax="-109" yMax="1729">
      <contour>
        <pt x="-459" y="1501" on="1"/>
        <pt x="-513" y="1551" on="0"/>
        <pt x="-617" y="1671" on="0"/>
        <pt x="-641" y="1710" on="1"/>
        <pt x="-639" y="1729" on="1"/>
        <pt x="-463" y="1729" on="1"/>
        <pt x="-434" y="1643" on="0"/>
        <pt x="-360" y="1522" on="1"/>
        <pt x="-365" y="1501" on="1"/>
      </contour>
      <contour>
        <pt x="-473" y="1241" on="1"/>
        <pt x="-608" y="1241" on="0"/>
        <pt x="-760" y="1389" on="0"/>
        <pt x="-760" y="1520" on="1"/>
        <pt x="-758" y="1538" on="1"/>
        <pt x="-633" y="1538" on="1"/>
        <pt x="-623" y="1461" on="0"/>
        <pt x="-536" y="1393" on="0"/>
        <pt x="-459" y="1393" on="1"/>
        <pt x="-301" y="1393" on="0"/>
        <pt x="-240" y="1538" on="1"/>
        <pt x="-109" y="1538" on="1"/>
        <pt x="-144" y="1395" on="0"/>
        <pt x="-328" y="1241" on="0"/>
      </contour>
    </TTGlyph>
    <TTGlyph name="brevehookcomb" xMin="-760" yMin="1241" xMax="-109" yMax="1798">
      <contour>
        <pt x="-518" y="1485" on="1"/>
        <pt x="-510" y="1587" on="1"/>
        <pt x="-448" y="1596" on="0"/>
        <pt x="-387" y="1632" on="0"/>
        <pt x="-387" y="1667" on="1"/>
        <pt x="-387" y="1706" on="0"/>
        <pt x="-453" y="1706" on="1"/>
        <pt x="-496" y="1706" on="0"/>
        <pt x="-526" y="1696" on="1"/>
        <pt x="-526" y="1786" on="1"/>
        <pt x="-490" y="1798" on="0"/>
        <pt x="-430" y="1798" on="1"/>
        <pt x="-355" y="1798" on="0"/>
        <pt x="-268" y="1736" on="0"/>
        <pt x="-268" y="1681" on="1"/>
        <pt x="-268" y="1623" on="0"/>
        <pt x="-342" y="1541" on="0"/>
        <pt x="-412" y="1526" on="1"/>
        <pt x="-426" y="1485" on="1"/>
      </contour>
      <contour>
        <pt x="-473" y="1241" on="1"/>
        <pt x="-608" y="1241" on="0"/>
        <pt x="-760" y="1389" on="0"/>
        <pt x="-760" y="1520" on="1"/>
        <pt x="-758" y="1538" on="1"/>
        <pt x="-633" y="1538" on="1"/>
        <pt x="-623" y="1461" on="0"/>
        <pt x="-536" y="1393" on="0"/>
        <pt x="-459" y="1393" on="1"/>
        <pt x="-301" y="1393" on="0"/>
        <pt x="-240" y="1538" on="1"/>
        <pt x="-109" y="1538" on="1"/>
        <pt x="-144" y="1395" on="0"/>
        <pt x="-328" y="1241" on="0"/>
      </contour>
    </TTGlyph>
    <TTGlyph name="brevetildecomb" xMin="-764" yMin="1241" xMax="-45" yMax="1808">
      <contour>
        <pt x="-270" y="1585" on="1"/>
        <pt x="-307" y="1585" on="0"/>
        <pt x="-382" y="1612" on="0"/>
        <pt x="-452" y="1644" on="0"/>
        <pt x="-517" y="1671" on="0"/>
        <pt x="-545" y="1671" on="1"/>
        <pt x="-617" y="1671" on="0"/>
        <pt x="-647" y="1585" on="1"/>
        <pt x="-764" y="1585" on="1"/>
        <pt x="-714" y="1806" on="0"/>
        <pt x="-539" y="1806" on="1"/>
        <pt x="-503" y="1806" on="0"/>
        <pt x="-427" y="1778" on="0"/>
        <pt x="-355" y="1744" on="0"/>
        <pt x="-289" y="1716" on="0"/>
        <pt x="-262" y="1716" on="1"/>
        <pt x="-224" y="1716" on="0"/>
        <pt x="-180" y="1762" on="0"/>
        <pt x="-160" y="1808" on="1"/>
        <pt x="-45" y="1808" on="1"/>
        <pt x="-103" y="1585" on="0"/>
      </contour>
      <contour>
        <pt x="-473" y="1241" on="1"/>
        <pt x="-613" y="1241" on="0"/>
        <pt x="-762" y="1383" on="0"/>
        <pt x="-762" y="1518" on="1"/>
        <pt x="-637" y="1518" on="1"/>
        <pt x="-632" y="1453" on="0"/>
        <pt x="-545" y="1393" on="0"/>
        <pt x="-459" y="1393" on="1"/>
        <pt x="-372" y="1393" on="0"/>
        <pt x="-272" y="1456" on="0"/>
        <pt x="-244" y="1518" on="1"/>
        <pt x="-113" y="1518" on="1"/>
        <pt x="-147" y="1385" on="0"/>
        <pt x="-330" y="1241" on="0"/>
      </contour>
    </TTGlyph>
    <TTGlyph name="brokenbar" xMin="498" yMin="-481" xMax="676" yMax="1552">
      <contour>
        <pt x="498" y="1552" on="1"/>
        <pt x="676" y="1552" on="1"/>
        <pt x="676" y="758" on="1"/>
        <pt x="498" y="758" on="1"/>
      </contour>
      <contour>
        <pt x="498" y="315" on="1"/>
        <pt x="676" y="315" on="1"/>
        <pt x="676" y="-481" on="1"/>
        <pt x="498" y="-481" on="1"/>
      </contour>
    </TTGlyph>
    <TTGlyph name="bullet" xMin="152" yMin="461" xMax="676" yMax="1032">
      <contour>
        <pt x="152" y="684" on="1"/>
        <pt x="152" y="840" on="0"/>
        <pt x="319" y="1032" on="0"/>
        <pt x="459" y="1032" on="1"/>
        <pt x="559" y="1032" on="0"/>
        <pt x="676" y="923" on="0"/>
        <pt x="676" y="809" on="1"/>
        <pt x="676" y="653" on="0"/>
        <pt x="512" y="461" on="0"/>
        <pt x="367" y="461" on="1"/>
        <pt x="265" y="461" on="0"/>
        <pt x="152" y="576" on="0"/>
      </contour>
    </TTGlyph>
    <TTGlyph name="c" xMin="94" yMin="-20" xMax="973" yMax="1126">
      <contour>
        <pt x="506" y="-20" on="1"/>
        <pt x="310" y="-20" on="0"/>
        <pt x="94" y="192" on="0"/>
        <pt x="94" y="389" on="1"/>
        <pt x="94" y="596" on="0"/>
        <pt x="241" y="935" on="0"/>
        <pt x="507" y="1126" on="0"/>
        <pt x="676" y="1126" on="1"/>
        <pt x="840" y="1126" on="0"/>
        <pt x="973" y="1065" on="1"/>
        <pt x="903" y="881" on="1"/>
        <pt x="781" y="934" on="0"/>
        <pt x="682" y="934" on="1"/>
        <pt x="532" y="934" on="0"/>
        <pt x="332" y="627" on="0"/>
        <pt x="332" y="401" on="1"/>
        <pt x="332" y="290" on="0"/>
        <pt x="444" y="170" on="0"/>
        <pt x="543" y="170" on="1"/>
        <pt x="617" y="170" on="0"/>
        <pt x="746" y="214" on="0"/>
        <pt x="811" y="246" on="1"/>
        <pt x="811" y="51" on="1"/>
        <pt x="671" y="-20" on="0"/>
      </contour>
    </TTGlyph>
    <TTGlyph name="cacute" xMin="94" yMin="-20" xMax="1044" yMax="1569">
      <component glyphName="c" x="0" y="0" flags="0x204"/>
      <component glyphName="acute" x="47" y="0" flags="0x4"/>
    </TTGlyph>
    <TTGlyph name="caron" xMin="422" yMin="1241" xMax="1133" yMax="1569">
      <contour>
        <pt x="422" y="1569" on="1"/>
        <pt x="571" y="1569" on="1"/>
        <pt x="640" y="1511" on="0"/>
        <pt x="733" y="1391" on="1"/>
        <pt x="858" y="1496" on="0"/>
        <pt x="971" y="1569" on="1"/>
        <pt x="1133" y="1569" on="1"/>
        <pt x="1133" y="1542" on="1"/>
        <pt x="1053" y="1471" on="0"/>
        <pt x="875" y="1288" on="0"/>
        <pt x="842" y="1241" on="1"/>
        <pt x="594" y="1241" on="1"/>
        <pt x="550" y="1351" on="0"/>
        <pt x="422" y="1542" on="1"/>
      </contour>
    </TTGlyph>
    <TTGlyph name="caroncommaaccent" xMin="506" yMin="1229" xMax="864" yMax="1556">
      <contour>
        <pt x="506" y="1255" on="1"/>
        <pt x="586" y="1399" on="0"/>
        <pt x="643" y="1556" on="1"/>
        <pt x="864" y="1556" on="1"/>
        <pt x="864" y="1536" on="1"/>
        <pt x="831" y="1467" on="0"/>
        <pt x="695" y="1282" on="0"/>
        <pt x="641" y="1229" on="1"/>
        <pt x="506" y="1229" on="1"/>
      </contour>
    </TTGlyph>
    <TTGlyph name="ccaron" xMin="94" yMin="-20" xMax="1066" yMax="1569">
      <component glyphName="c" x="0" y="0" flags="0x204"/>
      <component glyphName="caron" x="-67" y="0" flags="0x4"/>
    </TTGlyph>
    <TTGlyph name="ccedilla" xMin="94" yMin="-492" xMax="973" yMax="1126">
      <component glyphName="c" x="0" y="0" flags="0x204"/>
      <component glyphName="cedilla" x="385" y="0" flags="0x4"/>
    </TTGlyph>
    <TTGlyph name="ccircumflex" xMin="94" yMin="-20" xMax="1013" yMax="1569">
      <component glyphName="c" x="0" y="0" flags="0x204"/>
      <component glyphName="circumflex" x="-54" y="0" flags="0x4"/>
    </TTGlyph>
    <TTGlyph name="cdot" xMin="94" yMin="-20" xMax="973" yMax="1530">
      <component glyphName="c" x="0" y="0" flags="0x204"/>
      <component glyphName="dotaccent" x="244" y="0" flags="0x4"/>
    </TTGlyph>
    <TTGlyph name="cedilla" xMin="-188" yMin="-492" xMax="236" yMax="0">
      <contour>
        <pt x="236" y="-264" on="1"/>
        <pt x="236" y="-370" on="0"/>
        <pt x="72" y="-492" on="0"/>
        <pt x="-70" y="-492" on="1"/>
        <pt x="-134" y="-492" on="0"/>
        <pt x="-188" y="-477" on="1"/>
        <pt x="-188" y="-342" on="1"/>
        <pt x="-141" y="-356" on="0"/>
        <pt x="-92" y="-356" on="1"/>
        <pt x="45" y="-356" on="0"/>
        <pt x="45" y="-260" on="1"/>
        <pt x="45" y="-220" on="0"/>
        <pt x="-25" y="-177" on="0"/>
        <pt x="-94" y="-168" on="1"/>
        <pt x="4" y="0" on="1"/>
        <pt x="150" y="0" on="1"/>
        <pt x="100" y="-96" on="1"/>
        <pt x="172" y="-121" on="0"/>
        <pt x="236" y="-205" on="0"/>
      </contour>
    </TTGlyph>
    <TTGlyph name="cent" xMin="195" yMin="-20" xMax="1073" yMax="1483">
      <contour>
        <pt x="578" y="-20" on="1"/>
        <pt x="422" y="-20" on="1"/>
        <pt x="467" y="193" on="1"/>
        <pt x="335" y="227" on="0"/>
        <pt x="195" y="428" on="0"/>
        <pt x="195" y="586" on="1"/>
        <pt x="195" y="776" on="0"/>
        <pt x="322" y="1098" on="0"/>
        <pt x="551" y="1297" on="0"/>
        <pt x="698" y="1319" on="1"/>
        <pt x="733" y="1483" on="1"/>
        <pt x="889" y="1483" on="1"/>
        <pt x="852" y="1319" on="1"/>
        <pt x="976" y="1307" on="0"/>
        <pt x="1073" y="1262" on="1"/>
        <pt x="1004" y="1077" on="1"/>
        <pt x="879" y="1130" on="0"/>
        <pt x="782" y="1130" on="1"/>
        <pt x="683" y="1130" on="0"/>
        <pt x="521" y="987" on="0"/>
        <pt x="432" y="741" on="0"/>
        <pt x="432" y="598" on="1"/>
        <pt x="432" y="487" on="0"/>
        <pt x="544" y="367" on="0"/>
        <pt x="643" y="367" on="1"/>
        <pt x="717" y="367" on="0"/>
        <pt x="846" y="410" on="0"/>
        <pt x="911" y="442" on="1"/>
        <pt x="911" y="248" on="1"/>
        <pt x="778" y="179" on="0"/>
        <pt x="618" y="174" on="1"/>
      </contour>
    </TTGlyph>
    <TTGlyph name="chi" xMin="-246" yMin="-492" xMax="1180" yMax="1118">
      <contour>
        <pt x="276" y="1118" on="1"/>
        <pt x="388" y="1118" on="0"/>
        <pt x="507" y="988" on="0"/>
        <pt x="526" y="840" on="1"/>
        <pt x="561" y="573" on="1"/>
        <pt x="926" y="1106" on="1"/>
        <pt x="1180" y="1106" on="1"/>
        <pt x="618" y="324" on="1"/>
        <pt x="688" y="-156" on="1"/>
        <pt x="699" y="-231" on="0"/>
        <pt x="751" y="-297" on="0"/>
        <pt x="807" y="-297" on="1"/>
        <pt x="852" y="-297" on="0"/>
        <pt x="897" y="-283" on="1"/>
        <pt x="897" y="-465" on="1"/>
        <pt x="821" y="-492" on="0"/>
        <pt x="735" y="-492" on="1"/>
        <pt x="620" y="-492" on="0"/>
        <pt x="497" y="-356" on="0"/>
        <pt x="477" y="-203" on="1"/>
        <pt x="434" y="123" on="1"/>
        <pt x="14" y="-492" on="1"/>
        <pt x="-246" y="-492" on="1"/>
        <pt x="379" y="371" on="1"/>
        <pt x="322" y="778" on="1"/>
        <pt x="311" y="856" on="0"/>
        <pt x="264" y="920" on="0"/>
        <pt x="219" y="920" on="1"/>
        <pt x="195" y="920" on="0"/>
        <pt x="150" y="905" on="1"/>
        <pt x="109" y="1085" on="1"/>
        <pt x="189" y="1118" on="0"/>
      </contour>
    </TTGlyph>
    <TTGlyph name="circumflex" xMin="354" yMin="1241" xMax="1067" yMax="1569">
      <contour>
        <pt x="1067" y="1241" on="1"/>
        <pt x="915" y="1241" on="1"/>
        <pt x="839" y="1304" on="0"/>
        <pt x="754" y="1419" on="1"/>
        <pt x="623" y="1309" on="0"/>
        <pt x="518" y="1241" on="1"/>
        <pt x="354" y="1241" on="1"/>
        <pt x="354" y="1266" on="1"/>
        <pt x="492" y="1394" on="0"/>
        <pt x="618" y="1529" on="0"/>
        <pt x="645" y="1569" on="1"/>
        <pt x="893" y="1569" on="1"/>
        <pt x="931" y="1470" on="0"/>
        <pt x="1067" y="1266" on="1"/>
      </contour>
    </TTGlyph>
    <TTGlyph name="circumflexacutecomb" xMin="-823" yMin="1241" xMax="182" yMax="1663">
      <contour>
        <pt x="-551" y="1536" on="1"/>
        <pt x="-305" y="1536" on="1"/>
        <pt x="-260" y="1417" on="0"/>
        <pt x="-147" y="1264" on="1"/>
        <pt x="-152" y="1241" on="1"/>
        <pt x="-272" y="1241" on="1"/>
        <pt x="-363" y="1304" on="0"/>
        <pt x="-444" y="1403" on="1"/>
        <pt x="-573" y="1301" on="0"/>
        <pt x="-686" y="1241" on="1"/>
        <pt x="-823" y="1241" on="1"/>
        <pt x="-819" y="1266" on="1"/>
        <pt x="-609" y="1461" on="0"/>
      </contour>
      <contour>
        <pt x="-199" y="1456" on="1"/>
        <pt x="-94" y="1566" on="0"/>
        <pt x="-27" y="1663" on="1"/>
        <pt x="182" y="1663" on="1"/>
        <pt x="182" y="1645" on="1"/>
        <pt x="147" y="1606" on="0"/>
        <pt x="-7" y="1479" on="0"/>
        <pt x="-74" y="1436" on="1"/>
        <pt x="-199" y="1436" on="1"/>
      </contour>
    </TTGlyph>
    <TTGlyph name="circumflexgravecomb" xMin="-993" yMin="1241" xMax="-147" yMax="1663">
      <contour>
        <pt x="-551" y="1536" on="1"/>
        <pt x="-305" y="1536" on="1"/>
        <pt x="-260" y="1417" on="0"/>
        <pt x="-147" y="1264" on="1"/>
        <pt x="-152" y="1241" on="1"/>
        <pt x="-272" y="1241" on="1"/>
        <pt x="-363" y="1304" on="0"/>
        <pt x="-444" y="1403" on="1"/>
        <pt x="-573" y="1301" on="0"/>
        <pt x="-686" y="1241" on="1"/>
        <pt x="-823" y="1241" on="1"/>
        <pt x="-819" y="1266" on="1"/>
        <pt x="-609" y="1461" on="0"/>
      </contour>
      <contour>
        <pt x="-817" y="1436" on="1"/>
        <pt x="-867" y="1482" on="0"/>
        <pt x="-969" y="1607" on="0"/>
        <pt x="-993" y="1645" on="1"/>
        <pt x="-993" y="1663" on="1"/>
        <pt x="-809" y="1663" on="1"/>
        <pt x="-792" y="1618" on="0"/>
        <pt x="-729" y="1493" on="0"/>
        <pt x="-707" y="1456" on="1"/>
        <pt x="-707" y="1436" on="1"/>
      </contour>
    </TTGlyph>
    <TTGlyph name="circumflexhookcomb" xMin="-823" yMin="1241" xMax="92" yMax="1769">
      <contour>
        <pt x="-551" y="1536" on="1"/>
        <pt x="-305" y="1536" on="1"/>
        <pt x="-260" y="1417" on="0"/>
        <pt x="-147" y="1264" on="1"/>
        <pt x="-152" y="1241" on="1"/>
        <pt x="-272" y="1241" on="1"/>
        <pt x="-363" y="1304" on="0"/>
        <pt x="-444" y="1403" on="1"/>
        <pt x="-573" y="1301" on="0"/>
        <pt x="-686" y="1241" on="1"/>
        <pt x="-823" y="1241" on="1"/>
        <pt x="-819" y="1266" on="1"/>
        <pt x="-609" y="1461" on="0"/>
      </contour>
      <contour>
        <pt x="-176" y="1440" on="1"/>
        <pt x="-166" y="1546" on="1"/>
        <pt x="-96" y="1553" on="0"/>
        <pt x="-33" y="1591" on="0"/>
        <pt x="-33" y="1626" on="1"/>
        <pt x="-33" y="1671" on="0"/>
        <pt x="-104" y="1671" on="1"/>
        <pt x="-149" y="1671" on="0"/>
        <pt x="-182" y="1659" on="1"/>
        <pt x="-182" y="1759" on="1"/>
        <pt x="-149" y="1769" on="0"/>
        <pt x="-80" y="1769" on="1"/>
        <pt x="-1" y="1769" on="0"/>
        <pt x="92" y="1703" on="0"/>
        <pt x="92" y="1640" on="1"/>
        <pt x="92" y="1522" on="0"/>
        <pt x="-61" y="1487" on="1"/>
        <pt x="-76" y="1440" on="1"/>
      </contour>
    </TTGlyph>
    <TTGlyph name="circumflextildecomb" xMin="-823" yMin="1241" xMax="-39" yMax="1808">
      <contour>
        <pt x="-266" y="1577" on="1"/>
        <pt x="-307" y="1577" on="0"/>
        <pt x="-381" y="1604" on="0"/>
        <pt x="-450" y="1637" on="0"/>
        <pt x="-513" y="1665" on="0"/>
        <pt x="-543" y="1665" on="1"/>
        <pt x="-584" y="1665" on="0"/>
        <pt x="-628" y="1616" on="0"/>
        <pt x="-643" y="1575" on="1"/>
        <pt x="-762" y="1575" on="1"/>
        <pt x="-737" y="1691" on="0"/>
        <pt x="-620" y="1806" on="0"/>
        <pt x="-535" y="1806" on="1"/>
        <pt x="-496" y="1806" on="0"/>
        <pt x="-422" y="1778" on="0"/>
        <pt x="-353" y="1744" on="0"/>
        <pt x="-288" y="1716" on="0"/>
        <pt x="-258" y="1716" on="1"/>
        <pt x="-221" y="1716" on="0"/>
        <pt x="-174" y="1760" on="0"/>
        <pt x="-154" y="1808" on="1"/>
        <pt x="-39" y="1808" on="1"/>
        <pt x="-96" y="1577" on="0"/>
      </contour>
      <contour>
        <pt x="-555" y="1528" on="1"/>
        <pt x="-309" y="1528" on="1"/>
        <pt x="-275" y="1436" on="0"/>
        <pt x="-147" y="1264" on="1"/>
        <pt x="-152" y="1241" on="1"/>
        <pt x="-272" y="1241" on="1"/>
        <pt x="-361" y="1300" on="0"/>
        <pt x="-449" y="1393" on="1"/>
        <pt x="-575" y="1300" on="0"/>
        <pt x="-684" y="1241" on="1"/>
        <pt x="-823" y="1241" on="1"/>
        <pt x="-819" y="1266" on="1"/>
        <pt x="-755" y="1325" on="1"/>
        <pt x="-614" y="1452" on="0"/>
      </contour>
    </TTGlyph>
    <TTGlyph name="colon" xMin="33" yMin="-29" xMax="506" yMax="1130">
      <contour>
        <pt x="205" y="948" on="1"/>
        <pt x="205" y="1031" on="0"/>
        <pt x="299" y="1130" on="0"/>
        <pt x="383" y="1130" on="1"/>
        <pt x="439" y="1130" on="0"/>
        <pt x="506" y="1067" on="0"/>
        <pt x="506" y="1006" on="1"/>
        <pt x="506" y="927" on="0"/>
        <pt x="409" y="825" on="0"/>
        <pt x="332" y="825" on="1"/>
        <pt x="266" y="825" on="0"/>
        <pt x="205" y="896" on="0"/>
      </contour>
      <contour>
        <pt x="33" y="94" on="1"/>
        <pt x="33" y="177" on="0"/>
        <pt x="127" y="276" on="0"/>
        <pt x="211" y="276" on="1"/>
        <pt x="267" y="276" on="0"/>
        <pt x="334" y="213" on="0"/>
        <pt x="334" y="152" on="1"/>
        <pt x="334" y="74" on="0"/>
        <pt x="239" y="-29" on="0"/>
        <pt x="162" y="-29" on="1"/>
        <pt x="96" y="-29" on="0"/>
        <pt x="33" y="42" on="0"/>
      </contour>
    </TTGlyph>
    <TTGlyph name="comma" xMin="-102" yMin="-264" xMax="342" yMax="238">
      <contour>
        <pt x="334" y="238" on="1"/>
        <pt x="342" y="215" on="1"/>
        <pt x="217" y="-45" on="0"/>
        <pt x="76" y="-264" on="1"/>
        <pt x="-102" y="-264" on="1"/>
        <pt x="3" y="-26" on="0"/>
        <pt x="98" y="238" on="1"/>
      </contour>
    </TTGlyph>
    <TTGlyph name="commaaccent" xMin="139" yMin="-453" xMax="496" yMax="-125">
      <contour>
        <pt x="139" y="-426" on="1"/>
        <pt x="226" y="-270" on="0"/>
        <pt x="274" y="-125" on="1"/>
        <pt x="496" y="-125" on="1"/>
        <pt x="496" y="-145" on="1"/>
        <pt x="467" y="-210" on="0"/>
        <pt x="339" y="-385" on="0"/>
        <pt x="274" y="-453" on="1"/>
        <pt x="139" y="-453" on="1"/>
      </contour>
    </TTGlyph>
    <TTGlyph name="commaaccentrotate" xMin="485" yMin="1241" xMax="844" yMax="1569">
      <contour>
        <pt x="844" y="1542" on="1"/>
        <pt x="747" y="1361" on="0"/>
        <pt x="707" y="1241" on="1"/>
        <pt x="485" y="1241" on="1"/>
        <pt x="485" y="1262" on="1"/>
        <pt x="516" y="1324" on="0"/>
        <pt x="643" y="1501" on="0"/>
        <pt x="707" y="1569" on="1"/>
        <pt x="844" y="1569" on="1"/>
      </contour>
    </TTGlyph>
</ttFont>
